<?xml version="1.0" standalone="no"?>
<!DOCTYPE svg PUBLIC "-//W3C//DTD SVG 1.1//EN" "http://www.w3.org/Graphics/SVG/1.1/DTD/svg11.dtd" >
<svg xmlns="http://www.w3.org/2000/svg" xmlns:xlink="http://www.w3.org/1999/xlink" version="1.1">
<metadata>
Created by FontForge 20170731 at Mon Feb 10 15:03:12 2014
 By Aleksey,,,
Font software Copyright 2001 Adobe Systems Incorporated. Typeface designs Copyright The Monotype Corporation. All Rights Reserved.
</metadata>
<defs>
<font id="GillSansProCyrillic-LightItalic" horiz-adv-x="521" >
  <font-face 
    font-family="Gill Sans Pro Cyrillic"
    font-weight="300"
    font-style="italic"
    font-stretch="normal"
    units-per-em="1000"
    panose-1="2 11 3 2 2 1 4 9 2 3"
    ascent="800"
    descent="-200"
    x-height="449"
    cap-height="682"
    bbox="-205 -231.409 1085 936"
    underline-thickness="50"
    underline-position="-250"
    slope="-8"
    unicode-range="U+0020-FB04"
  />
<missing-glyph horiz-adv-x="500" 
d="M487 0h-475v665h475v-665zM411 618h-323l162 -243zM221 333l-161 242v-484l40 61l80 120zM440 90v485l-162 -242zM88 48h323l-161 242z" />
    <glyph glyph-name="f_f" unicode="ff" horiz-adv-x="508" 
d="M427 449h121l-5 -29h-121l-91 -619h-44l91 619h-213l-91 -619h-45l90 619h-90l8 29h87l7 52q5 21 18 60q12 36 34 65q22 27 60.5 46t85.5 19q71 0 122 -48q59 48 139 48q13 0 43 -2l-6 -35q-23 3 -45 3q-17 0 -39 -5q-23 -4 -48 -24t-37 -49q-14 -32 -31 -130zM168 449
h215q14 108 44 165q-45 42 -101 42q-132 0 -158 -207z" />
    <glyph glyph-name="fi" unicode="fi" horiz-adv-x="467" 
d="M162 449h132l-5 -33h-131l-86 -615h-44l86 615h-82l4 33h83l9 57q18 121 88 158q61 33 165 25l-6 -38q-42 12 -85.5 4t-69.5 -34q-37 -37 -50 -122zM380 449h44l-63 -449h-44z" />
    <glyph glyph-name="fl" unicode="fl" horiz-adv-x="464" 
d="M161 449h121l-5 -33h-119l-86 -615h-44l86 615h-83l4 33h81l7 41q10 62 21 94q12 31 37 56q62 62 187 49l-5 -35q-91 17 -146 -32q-21 -19 -31 -47.5t-19 -85.5zM413 682h44l-101 -682h-44z" />
    <glyph glyph-name="f_f_i" unicode="ffi" horiz-adv-x="718" 
d="M425 449h124l-5 -29h-122l-91 -619h-44l90 619h-214l-91 -619h-44l90 619h-86l5 29h86q10 79 33 130q36 76 95 96q46 16 77 16q71 0 122 -48q44 48 118 48q86 0 121 -54q18 -28 15 -71h-38q-1 36 -12 53q-26 39 -86 39q-64 0 -95.5 -50t-47.5 -159zM167 449h214
q18 111 46 165q-47 42 -102 42q-87 0 -129 -93q-17 -41 -29 -114zM642 449h44l-64 -449h-44z" />
    <glyph glyph-name="f_f_l" unicode="ffl" horiz-adv-x="727" 
d="M426 449h121l-5 -29h-120l-92 -619h-44l91 619h-215l-89 -619h-45l90 619h-90l8 29h87l7 52q4 21 18 60q12 36 34 65q22 27 60.5 46t85.5 19q71 0 122 -48q58 48 139 48q13 0 43 -2l-6 -35q-24 3 -45 3q-16 0 -39 -5q-23 -4 -48 -24t-37 -49q-15 -36 -31 -130zM167 449
h215q14 108 44 165q-45 42 -101 42q-133 0 -158 -207zM676 682h45l-101 -682h-45z" />
    <glyph glyph-name=".notdef" horiz-adv-x="500" 
d="M487 0h-475v665h475v-665zM411 618h-323l162 -243zM221 333l-161 242v-484l40 61l80 120zM440 90v485l-162 -242zM88 48h323l-161 242z" />
    <glyph glyph-name=".null" horiz-adv-x="0" 
 />
    <glyph glyph-name="nonmarkingreturn" horiz-adv-x="333" 
 />
    <glyph glyph-name="space" unicode=" " horiz-adv-x="250" 
 />
    <glyph glyph-name="exclam" unicode="!" horiz-adv-x="167" 
d="M76 176h-21l59 506h56zM69 0h-59l12 89h59z" />
    <glyph glyph-name="quotedbl" unicode="&#x22;" horiz-adv-x="281" 
d="M195 573v109h66v-109l-12 -125h-42zM57 573v109h66v-109l-12 -125h-42z" />
    <glyph glyph-name="numbersign" unicode="#" horiz-adv-x="660" 
d="M232 493l42 205h46l-42 -205h190l43 205h46l-43 -205h82v-46h-91l-40 -191h131v-46h-141l-42 -203h-46l42 203h-190l-42 -203h-46l42 203h-83v46h93l39 191h-132v46h142zM459 447h-191l-39 -191h190z" />
    <glyph glyph-name="dollar" unicode="$" horiz-adv-x="448" 
d="M263 691h45l-6 -40q85 -11 122 -35l-7 -46q-69 32 -122 35l-37 -266q76 -39 110 -80.5t34 -97.5q0 -69 -55 -117q-55 -47 -138 -53l-15 -105h-45l15 105q-91 7 -145 46l6 48q69 -45 146 -48l38 272q-81 44 -113 80q-31 35 -31 91q0 73 54 121q53 48 138 50zM217 363
l34 243q-62 -5 -100 -40t-38 -87q0 -36 23 -61t81 -55zM250 284l-34 -247q60 4 99 37.5t39 81.5q0 42 -24 67q-24 27 -80 61z" />
    <glyph glyph-name="percent" unicode="%" horiz-adv-x="697" 
d="M528 -12q-67 0 -114 47t-47 114t47 114t114 47q66 0 113 -47q48 -47 48 -114t-48 -114q-47 -47 -113 -47zM410 149q0 -50 34 -84t84 -34q49 0 83 34q35 35 35 84q0 48 -35 83t-83 35q-49 0 -84 -35q-34 -34 -34 -83zM190 369q-67 0 -114 47t-47 114t47 114t114 47
q66 0 113 -47q48 -46 48 -114t-48 -114q-47 -47 -113 -47zM72 530q0 -50 34 -84t84 -34q49 0 83 34q35 35 35 84q0 48 -35 83t-83 35q-49 0 -84 -35q-34 -34 -34 -83zM606 688h49l-549 -699h-50z" />
    <glyph glyph-name="ampersand" unicode="&#x26;" horiz-adv-x="656" 
d="M568 330h51q-39 -103 -157 -233q39 -36 87.5 -52.5t84.5 -8.5l-24 -44q-95 -9 -183 73q-49 -40 -91.5 -57t-93.5 -17q-85 0 -143 52t-58 130q0 125 169 206q-47 92 -47 154q0 69 43 113q44 45 108 45q56 0 96 -40q41 -41 41 -95q0 -108 -176 -197q84 -145 152 -228
q86 81 141 199zM253 400q77 40 112 78t35 83q0 34 -26 59t-62 25q-41 0 -71 -31q-29 -32 -29 -73q0 -65 41 -141zM393 98q-65 75 -161 241q-72 -39 -105 -79t-33 -87q0 -59 42 -98q44 -38 107 -38q77 0 150 61z" />
    <glyph glyph-name="quotesingle" unicode="'" horiz-adv-x="219" 
d="M108 573v109h66v-109l-12 -125h-42z" />
    <glyph glyph-name="parenleft" unicode="(" horiz-adv-x="302" 
d="M300 691h58q-130 -129 -193.5 -260t-63.5 -285q0 -197 98 -376h-49q-43 80 -70 187q-26 107 -26 198q0 284 246 536z" />
    <glyph glyph-name="parenright" unicode=")" horiz-adv-x="302" 
d="M-27 -230h-58q130 129 193.5 260t63.5 285q0 197 -98 376h49q44 -81 69 -187q27 -105 27 -198q0 -284 -246 -536z" />
    <glyph glyph-name="asterisk" unicode="*" horiz-adv-x="469" 
d="M396 648l34 -35l-140 -113l2 -5l180 16v-47l-180 20l-3 -6l141 -114l-34 -34l-116 141l-5 -1l17 -185h-46l18 185l-4 1l-115 -141l-35 34l142 114l-2 5l-183 -17v46l182 -18l1 6l-140 113l35 35l114 -139l5 2l-18 180h46l-17 -179l5 -3z" />
    <glyph glyph-name="plus" unicode="+" horiz-adv-x="660" 
d="M81 329v44h240v240h44v-240h240v-44h-240v-240h-44v240h-240z" />
    <glyph glyph-name="comma" unicode="," horiz-adv-x="167" 
d="M38 0h-20l12 89h59l-11 -79q-6 -40 -31 -77q-25 -39 -56 -46l4 29q37 30 43 84z" />
    <glyph glyph-name="hyphen" unicode="-" horiz-adv-x="271" 
d="M19 238h238l-6 -39h-237z" />
    <glyph glyph-name="period" unicode="." horiz-adv-x="167" 
d="M86 0h-59l12 89h59z" />
    <glyph glyph-name="slash" unicode="/" horiz-adv-x="281" 
d="M21 -9l220 700h46l-219 -700h-47z" />
    <glyph glyph-name="zero" unicode="0" 
d="M494 455q0 -115 -32 -222q-32 -105 -94 -173q-63 -69 -144 -69q-82 0 -126 64.5t-44 174.5q0 50 9 108t30 121.5t51 114.5t77.5 84t104.5 33q60 0 100 -38q68 -63 68 -198zM447 450q0 94 -32.5 146.5t-91.5 52.5q-53 0 -98.5 -44t-72.5 -116q-51 -142 -51 -265
q0 -90 33 -140.5t91 -50.5q46 0 86 31.5t65 82.5q25 52 41 108q30 103 30 195z" />
    <glyph glyph-name="one" unicode="1" 
d="M294 682h45l-95 -682h-45z" />
    <glyph glyph-name="two" unicode="2" 
d="M138 42h294l-6 -42h-390q45 42 100 105q46 53 74 88q45 58 79 102q66 86 93.5 139.5t27.5 99.5q0 52 -31 83.5t-82 31.5q-70 0 -167 -67l8 53q95 56 167 56q68 0 110.5 -42.5t42.5 -111.5q0 -67 -54 -158q-21 -38 -70 -100q-51 -65 -85 -106z" />
    <glyph glyph-name="three" unicode="3" 
d="M149 610l6 44q67 37 136 37q78 0 133 -50q54 -49 54 -123q0 -71 -44 -112q-34 -31 -86 -56q91 -52 91 -149q0 -91 -65 -151q-65 -59 -162 -59q-96 0 -170 51l6 41q82 -50 160 -50q81 0 132 48q51 49 51 125q0 62 -41.5 97t-113.5 36l5 32q98 -2 145 42q48 43 48 102
q0 58 -44 96t-108 38t-133 -39z" />
    <glyph glyph-name="four" unicode="4" 
d="M366 266h111l-4 -33h-112l-33 -233h-45l33 233h-279l3 19l370 439h15zM364 579l-2 2l-264 -315h223z" />
    <glyph glyph-name="five" unicode="5" 
d="M185 682h290l-6 -42h-245l-30 -214q24 4 46 4q84 0 140 -56q55 -55 55 -143q0 -99 -71 -170q-70 -70 -172 -70q-98 0 -169 57l19 37q68 -52 149 -52t138 57q58 58 58 140q0 72 -45 115t-119 43q-43 0 -81 -12z" />
    <glyph glyph-name="six" unicode="6" 
d="M338 682h50l-212 -305l2 -2q64 43 132 43q71 0 113.5 -43.5t42.5 -117.5q0 -106 -71 -186t-162 -80q-72 0 -122 53q-48 52 -48 132q0 107 103 256zM418 261q0 52 -30 83.5t-79 31.5q-81 0 -140 -59q-58 -58 -58 -143q0 -65 33 -103t88 -38q74 0 130 68t56 160z" />
    <glyph glyph-name="seven" unicode="7" 
d="M108 682h398l-350 -682h-48l328 640h-334z" />
    <glyph glyph-name="eight" unicode="8" 
d="M362 358v1v-2q49 -11 76.5 -49.5t27.5 -94.5q0 -91 -67 -157q-68 -65 -160 -65q-81 0 -136 52t-55 133q0 65 40 120q41 56 120 71v2q-86 36 -86 129q0 82 58 137q59 56 142 56q76 0 123 -46q48 -47 48 -118q0 -58 -35 -104.5t-96 -64.5zM445 524q0 55 -34.5 90t-88.5 35
q-62 0 -108 -44q-44 -44 -44 -106q0 -51 36.5 -83t93.5 -32q69 0 106 43q39 43 39 97zM418 208q0 60 -40.5 97t-105.5 37q-78 0 -127 -48t-49 -121q0 -64 42 -103q43 -38 101 -37q73 1 126 51q53 51 53 124z" />
    <glyph glyph-name="nine" unicode="9" 
d="M208 0h-52l222 318l-2 2q-64 -54 -136 -54q-70 0 -113.5 44.5t-43.5 115.5q0 56 24 114q26 60 80 105q55 46 130 46t122 -51q47 -52 47 -134q0 -107 -94 -241zM438 510q0 63 -32.5 101t-87.5 38q-75 0 -131 -68t-56 -157q0 -53 29.5 -84.5t79.5 -31.5q81 0 140 59
q58 59 58 143z" />
    <glyph glyph-name="colon" unicode=":" horiz-adv-x="167" 
d="M127 360h-59l12 89h59zM74 0h-59l12 89h59z" />
    <glyph glyph-name="semicolon" unicode=";" horiz-adv-x="167" 
d="M127 360h-59l12 89h59zM42 0h-20l12 89h59l-11 -79q-6 -40 -31 -77q-25 -39 -56 -46l4 29q37 30 43 84z" />
    <glyph glyph-name="less" unicode="&#x3c;" horiz-adv-x="660" 
d="M605 109l-524 220v42l524 220v-49l-464 -192l464 -192v-49z" />
    <glyph glyph-name="equal" unicode="=" horiz-adv-x="660" 
d="M81 449v44h524v-44h-524zM81 208v44h524v-44h-524z" />
    <glyph glyph-name="greater" unicode="&#x3e;" horiz-adv-x="660" 
d="M605 371v-42l-524 -220v49l464 192l-464 192v49z" />
    <glyph glyph-name="question" unicode="?" horiz-adv-x="292" 
d="M48 593l7 50q58 48 127 48q59 0 102 -41q42 -40 42 -99q0 -76 -74 -143q-76 -68 -104 -102q-49 -62 -61 -129h-25q7 98 85 178q8 8 37 36.5t39.5 41t28.5 36t25 43t7 40.5q0 46 -29.5 76t-74.5 30q-65 0 -132 -65zM80 0h-59l12 89h59z" />
    <glyph glyph-name="at" unicode="@" horiz-adv-x="802" 
d="M557 423l16 82h61l-83 -392q-9 -31 -5.5 -45t23.5 -14q53 0 118 71q32 35 52.5 91.5t20.5 119.5q0 90 -40 164q-72 148 -286 151q-167 0 -274 -110q-106 -109 -106 -281q0 -171 106 -274q106 -105 279 -105q214 0 328 152h50q-55 -94 -158 -143q-101 -49 -221 -49
q-189 0 -308 116q-117 116 -117 304q0 64 15.5 124.5t49 116.5t82.5 97.5t121 66.5t159 25q91 0 164 -31.5t115 -85.5q82 -103 82 -238q0 -139 -83 -233q-82 -93 -169 -93q-74 0 -55 88l-2 2q-75 -90 -165 -90q-73 0 -121 58q-48 59 -48 148q0 118 73 209q74 92 178 92
q47 0 86 -24t60 -70h2zM533 336q0 60 -35 99t-90 39q-60 0 -105 -47q-83 -84 -83 -214q0 -66 35 -112q36 -44 90 -44t99 48q43 47 66 110t23 121z" />
    <glyph glyph-name="A" unicode="A" horiz-adv-x="527" 
d="M298 691h42l157 -691h-48l-56 246h-253l-116 -246h-48zM310 607h-2l-146 -315h221z" />
    <glyph glyph-name="B" unicode="B" horiz-adv-x="516" 
d="M40 0l96 682h66q112 0 170 -50q58 -49 58 -120q0 -89 -91 -135q70 -19 108.5 -66.5t38.5 -112.5q0 -87 -71 -143q-70 -55 -184 -55h-191zM219 638h-43l-34 -247h70q80 0 123 31.5t43 90.5q0 58 -42.5 91.5t-116.5 33.5zM257 347h-121l-43 -303h98h34q109 0 159 45t50 107
q0 67 -50 109t-127 42z" />
    <glyph glyph-name="C" unicode="C" horiz-adv-x="552" 
d="M562 682l-6 -44q-45 7 -81 7q-110 0 -201 -55q-89 -53 -137.5 -136t-48.5 -177q0 -101 62 -171q63 -69 155 -69q104 0 216 73l-8 -56q-109 -63 -207 -63q-102 0 -187 77q-83 78 -83 207q0 105 54 199q56 95 157 156q103 61 229 61q47 0 86 -9z" />
    <glyph glyph-name="D" unicode="D" horiz-adv-x="638" 
d="M257 0h-217l96 682h121q89 0 167 -39q78 -37 131 -119t53 -189q0 -149 -100 -242t-251 -93zM237 638h-58l-85 -594h145q70 0 126 18.5t91 48t58 69t32.5 78t9.5 77.5q0 137 -92 220t-227 83z" />
    <glyph glyph-name="E" unicode="E" 
d="M136 682h348l-6 -46h-301l-38 -264h285l-7 -46h-284l-40 -280h403l-6 -46h-450z" />
    <glyph glyph-name="F" unicode="F" horiz-adv-x="421" 
d="M136 682h313l-6 -46h-266l-38 -267h248l-6 -46h-248l-46 -323h-47z" />
    <glyph glyph-name="G" unicode="G" horiz-adv-x="614" 
d="M634 675l-6 -45q-70 15 -125 15q-191 0 -303 -105t-112 -257q0 -109 67 -177q68 -69 173 -69q73 0 165 46l22 152h-153l6 46h200l-31 -221q-101 -69 -215 -69t-200 79q-86 80 -86 217q0 158 121 277q59 59 150.5 93t199.5 34q66 0 127 -16z" />
    <glyph glyph-name="H" unicode="H" horiz-adv-x="693" 
d="M631 682h47l-96 -682h-47l45 325h-448l-45 -325h-47l95 682h47l-44 -311h449z" />
    <glyph glyph-name="I" unicode="I" horiz-adv-x="198" 
d="M136 682h47l-96 -682h-47z" />
    <glyph glyph-name="J" unicode="J" horiz-adv-x="198" 
d="M140 682h46l-106 -748q-23 -164 -164 -164q-27 0 -57 8l-9 49q27 -10 65 -10q56 0 84.5 36.5t41.5 124.5z" />
    <glyph glyph-name="K" unicode="K" horiz-adv-x="567" 
d="M508 682h69l-375 -312l359 -370h-62l-360 370l-52 -370h-47l96 682h47l-42 -300z" />
    <glyph glyph-name="L" unicode="L" horiz-adv-x="420" 
d="M136 682h47l-90 -636h306l-6 -46h-353z" />
    <glyph glyph-name="M" unicode="M" horiz-adv-x="801" 
d="M235 579h-2l-192 -579h-49l226 682h40l121 -574h2l304 574h43v-682h-49v574h-2l-303 -574h-17z" />
    <glyph glyph-name="N" unicode="N" horiz-adv-x="676" 
d="M614 682h47l-97 -688h-21l-374 588l-82 -582h-47l96 682h27l369 -584z" />
    <glyph glyph-name="O" unicode="O" horiz-adv-x="628" 
d="M608 415q0 -176 -91 -300t-231 -124q-116 0 -178.5 74t-62.5 209q0 51 10.5 106t36 111t61.5 100t92.5 72t124.5 28q109 0 174 -74q64 -73 64 -202zM556 426q0 101 -50 160t-136 59q-58 0 -107.5 -26.5t-80.5 -70.5q-42 -60 -64.5 -141t-20.5 -148q0 -106 50 -164
t140 -58q124 0 196 113q73 113 73 276z" />
    <glyph glyph-name="P" unicode="P" horiz-adv-x="454" 
d="M40 0l96 682h136q86 0 139 -51q53 -50 53 -130t-55 -138q-54 -57 -171 -57h-108l-43 -306h-47zM267 638h-90l-41 -288h98q96 0 137 44q41 46 41 105q0 62 -39.5 100.5t-105.5 38.5z" />
    <glyph glyph-name="Q" unicode="Q" horiz-adv-x="625" 
d="M615 0h13q6 -80 -36 -137t-125 -57q-74 0 -136 52q-63 52 -88 133q-70 8 -116.5 53.5t-64 103t-17.5 123.5q0 152 81 281q40 64 105 101.5t142 37.5q111 0 173 -73.5t62 -204.5q0 -103 -33 -194q-32 -92 -105 -158q-71 -65 -171 -70q61 -135 177 -135q61 0 99.5 40
t39.5 104zM556 424q0 104 -48.5 162.5t-136.5 58.5q-124 0 -199 -113t-75 -275q0 -104 51 -162t143 -58q83 0 145 60q120 116 120 327z" />
    <glyph glyph-name="R" unicode="R" 
d="M40 0l95 682h156q85 0 134.5 -49t49.5 -128q0 -70 -42.5 -120t-114.5 -65q25 -18 70 -98l124 -222h-55l-114 204l-33 60q-17 31 -24 35q-21 17 -24 17t-9.5 1.5t-13 2t-13.5 0.5h-15h-79l-45 -320h-47zM287 638h-111l-38 -274h103h21q75 0 118 37.5t43 102.5q0 51 -32 92
q-32 42 -104 42z" />
    <glyph glyph-name="S" unicode="S" horiz-adv-x="407" 
d="M389 653l-12 -43q-70 35 -113 35q-51 0 -89 -38q-37 -37 -37 -91q0 -14 3 -27.5t6 -23.5t12 -22l13.5 -18t18 -18t18 -15.5t21 -16t19.5 -15.5q52 -37 82 -79t30 -106q0 -79 -54 -132q-52 -52 -133 -52q-34 0 -76.5 13.5t-67.5 32.5l12 46q71 -46 127 -46
q61 0 100.5 37.5t39.5 101.5q0 78 -79 137q-1 1 -18.5 14t-20.5 15.5t-19 15.5t-20.5 18t-17 17.5t-17 20t-12.5 21t-11 24t-5.5 24t-2.5 27.5q0 76 51 129q51 52 127 52q33 0 68.5 -11t56.5 -27z" />
    <glyph glyph-name="T" unicode="T" horiz-adv-x="458" 
d="M66 682h451l-6 -46h-202l-90 -636h-47l90 636h-202z" />
    <glyph glyph-name="U" unicode="U" horiz-adv-x="632" 
d="M596 682h47l-63 -441q-9 -65 -37 -114.5t-67.5 -78.5t-83.5 -43t-91 -14q-101 0 -169 71q-68 70 -51 183l62 437h47l-61 -430q-15 -106 39 -161q56 -54 141 -54q99 0 155 62q57 61 69 146z" />
    <glyph glyph-name="V" unicode="V" horiz-adv-x="490" 
d="M491 682h49l-309 -691h-19l-144 691h47l113 -572h2z" />
    <glyph glyph-name="W" unicode="W" horiz-adv-x="902" 
d="M906 682h51l-332 -691h-20l-106 569h-2l-260 -569h-21l-148 691h47l121 -575h2l265 575h19l107 -575h2z" />
    <glyph glyph-name="X" unicode="X" horiz-adv-x="654" 
d="M622 682h62l-313 -326l239 -356h-56l-217 319l-304 -319h-63l342 356l-220 326h56l199 -289z" />
    <glyph glyph-name="Y" unicode="Y" horiz-adv-x="461" 
d="M472 682h57l-255 -329l-49 -353h-47l49 353l-171 329h51l149 -282z" />
    <glyph glyph-name="Z" unicode="Z" horiz-adv-x="622" 
d="M652 666l-570 -620h483l-6 -46h-566v16l570 620h-461l6 46h544v-16z" />
    <glyph glyph-name="bracketleft" unicode="[" horiz-adv-x="302" 
d="M141 682h211l-5 -39h-166l-121 -825h171l-5 -39h-218z" />
    <glyph glyph-name="backslash" unicode="\" horiz-adv-x="281" 
d="M283 -9h-46l-220 700h47z" />
    <glyph glyph-name="bracketright" unicode="]" horiz-adv-x="302" 
d="M155 -221h-211l5 39h166l121 825h-171l5 39h218z" />
    <glyph glyph-name="asciicircum" unicode="^" horiz-adv-x="656" 
d="M140 429l219 262l219 -262l-32 -26l-187 225l-188 -225z" />
    <glyph glyph-name="underscore" unicode="_" horiz-adv-x="500" 
d="M-6 -125v50h512v-50h-512z" />
    <glyph glyph-name="grave" unicode="`" horiz-adv-x="333" 
d="M230 506l-152 154h80l105 -154h-33z" />
    <glyph glyph-name="a" unicode="a" horiz-adv-x="463" 
d="M427 449l-63 -449h-44l7 53q-70 -62 -154 -62q-68 0 -113 51q-44 52 -44 129q0 110 80 196q40 42 102.5 66.5t136.5 24.5q55 0 92 -9zM334 104l45 315q-24 6 -55 6q-107 0 -184 -73q-77 -74 -77 -187q0 -62 32 -99.5t85 -37.5q75 0 154 76z" />
    <glyph glyph-name="b" unicode="b" horiz-adv-x="453" 
d="M119 682h44l-41 -289l2 -2q67 67 142 67q70 0 115 -53q46 -52 46 -134q0 -108 -70 -190q-77 -90 -230 -90q-63 0 -104 9zM109 303l-37 -268q143 -17 225 52q83 69 83 183q0 64 -35.5 105.5t-91.5 41.5q-47 0 -93 -36q-45 -35 -51 -78z" />
    <glyph glyph-name="c" unicode="c" horiz-adv-x="385" 
d="M380 449l-7 -48q-48 13 -85 13q-70 0 -121 -36q-94 -66 -94 -192q0 -70 41.5 -112t109.5 -42q45 0 128 37l-7 -47q-62 -31 -132 -31q-84 0 -136 55q-51 56 -51 145q0 97 64 178q72 89 202 89q43 0 88 -9z" />
    <glyph glyph-name="d" unicode="d" horiz-adv-x="475" 
d="M423 682h44l-95 -677l-17 -3q-64 -11 -104 -11q-93 0 -149 42q-82 61 -82 166q0 59 30.5 116t80.5 91q73 52 194 52q17 0 66 -4zM332 35l53 382q-34 8 -62 8q-87 0 -147 -36q-50 -30 -79.5 -82t-29.5 -110q0 -85 56 -129t131 -44q36 0 78 11z" />
    <glyph glyph-name="e" unicode="e" horiz-adv-x="436" 
d="M370 88v-47q-65 -50 -141 -50q-89 0 -145 59q-54 58 -54 157q0 106 60 178q60 73 148 73q73 0 116.5 -51.5t43.5 -138.5q0 -8 -2 -34h-317q-2 -24 -2 -29q0 -68 40 -120q41 -53 113 -53t140 56zM86 273h268q3 67 -29 105.5t-88 38.5q-54 0 -98 -43q-44 -42 -53 -101z" />
    <glyph glyph-name="f" unicode="f" horiz-adv-x="250" 
d="M167 449h106l-5 -33h-106l-86 -615h-44l86 615h-90l5 33h90l8 59q11 85 59 134t122 49q59 0 111 -28l-5 -37q-55 28 -103 28q-115 0 -135 -123z" />
    <glyph glyph-name="g" unicode="g" horiz-adv-x="427" 
d="M234 458h214l-5 -33h-126v-2q66 -41 66 -122q0 -75 -54 -129q-18 -18 -48 -30t-46 -15l-54 -8q-87 -12 -87 -46q0 -17 17 -25t75 -21l57 -15q8 -2 48 -16q28 -11 43 -23q37 -31 37 -74q0 -54 -52.5 -91.5t-147.5 -37.5q-86 0 -133.5 32t-47.5 80q0 80 154 117v2
q-92 18 -92 68t92 67v2q-45 16 -70.5 54t-25.5 88q0 72 54 125q56 53 132 53zM90 278q0 -46 29 -83q30 -36 81 -36q39 0 68 17t43.5 42t21 48t6.5 41q0 51 -36 82q-35 32 -79 32q-54 0 -94 -43q-40 -41 -40 -100zM189 -18q-75 -12 -116 -40.5t-41 -66.5q0 -33 36 -52.5
t97 -19.5q80 0 122 26t42 67q0 32 -33 51.5t-107 34.5z" />
    <glyph glyph-name="h" unicode="h" horiz-adv-x="458" 
d="M119 682h44l-45 -324l2 -2q50 53 90 77.5t87 24.5q57 0 89 -40t24 -100l-45 -318h-44l43 313q6 52 -15 78t-59 26q-42 0 -79 -25q-35 -22 -101 -90l-43 -302h-44z" />
    <glyph glyph-name="i" unicode="i" horiz-adv-x="177" 
d="M94 449h44l-63 -449h-44zM120 643h44l-11 -74h-44z" />
    <glyph glyph-name="j" unicode="j" horiz-adv-x="177" 
d="M93 449h44l-73 -508q-13 -89 -45 -130t-99 -41q-25 0 -55 8l6 40q24 -7 44 -7q46 0 72 33q11 14 18 39q12 32 22 101zM120 643h44l-11 -74h-44z" />
    <glyph glyph-name="k" unicode="k" horiz-adv-x="438" 
d="M119 682h44l-63 -444l268 211h66l-268 -211l280 -238h-63l-283 238l-33 -238h-44z" />
    <glyph glyph-name="l" unicode="l" horiz-adv-x="169" 
d="M119 682h44l-96 -682h-44z" />
    <glyph glyph-name="m" unicode="m" horiz-adv-x="737" 
d="M91 449h44l-11 -78q54 48 91.5 67.5t80.5 19.5q42 0 71.5 -27.5t34.5 -68.5q87 96 172 96q57 0 89 -38q33 -38 26 -87l-47 -333h-44l46 325q6 42 -16 67t-57 25q-39 0 -86 -27t-83 -71l-45 -319h-44l44 313q8 52 -11.5 78t-60.5 26q-82 0 -168 -98l-45 -319h-44z" />
    <glyph glyph-name="n" unicode="n" horiz-adv-x="457" 
d="M91 449h44l-10 -74l2 -2q85 85 171 85q55 0 87 -44t24 -106l-43 -308h-44l42 302q8 55 -13.5 85t-64.5 30q-74 0 -169 -98l-45 -319h-44z" />
    <glyph glyph-name="o" unicode="o" horiz-adv-x="421" 
d="M387 270q0 -127 -65 -204q-64 -75 -149 -75q-65 0 -110 49q-45 50 -45 140q0 121 59 200q58 78 152 78q73 0 115.5 -51t42.5 -137zM340 270q0 67 -30.5 107t-82.5 40t-89.5 -35.5t-55 -88t-17.5 -114.5q0 -68 28.5 -107.5t77.5 -39.5q69 0 119 69q50 71 50 169z" />
    <glyph glyph-name="p" unicode="p" horiz-adv-x="475" 
d="M129 540h44l-16 -115q59 33 111 33q82 0 131 -57q50 -56 50 -146q0 -96 -62 -175q-32 -41 -91.5 -65t-135.5 -24q-33 0 -63 3l-31 -215h-44l82 579q-14 -12 -27.5 -27t-23 -27.5t-17 -23.5t-12.5 -16.5t-6 -4.5q-6 0 -6 9q0 20 30 61q34 44 67 67zM152 389l-51 -362
q168 -19 239 60q62 69 62 167q0 75 -39.5 119t-105.5 44q-50 0 -105 -28z" />
    <glyph glyph-name="q" unicode="q" horiz-adv-x="446" 
d="M321 458h94l-95 -679h-44l34 245q-75 -33 -125 -33q-74 0 -119.5 52t-45.5 138q0 52 18 100t53 88.5t94.5 64.5t135.5 24zM316 61l51 364h-39q-71 0 -125 -22.5t-82 -61.5q-54 -72 -54 -160q0 -73 36.5 -115t99.5 -42q46 0 113 37z" />
    <glyph glyph-name="r" unicode="r" horiz-adv-x="309" 
d="M91 449h44l-17 -123l2 -2q53 75 86 105q32 29 72 29q23 0 44 -9v-44q-26 12 -46 12q-64 0 -166 -150l-38 -267h-44z" />
    <glyph glyph-name="s" unicode="s" horiz-adv-x="354" 
d="M331 416v-49q-80 50 -146 50q-38 0 -65 -18.5t-27 -45.5q0 -28 34 -56q33 -27 74 -50q41 -21 75 -58t34 -80q0 -50 -43 -84q-41 -34 -104 -34q-81 0 -151 59l14 47q60 -65 139 -65q42 -1 70.5 20.5t28 51.5t-33.5 61q-32 29 -73 52t-73 56q-33 35 -33 73q0 48 41 80
t102 32q71 0 137 -42z" />
    <glyph glyph-name="t" unicode="t" horiz-adv-x="291" 
d="M154 449h127l-5 -33h-126l-43 -290q-3 -20 -3 -36q0 -64 63 -64q46 0 83 37v-41q-40 -32 -90 -32q-99 0 -99 100q0 21 3 43l43 283h-82l5 33h82l15 103h42z" />
    <glyph glyph-name="u" unicode="u" horiz-adv-x="458" 
d="M389 449h44l-63 -449h-44l12 79l-2 2q-84 -90 -174 -90q-49 0 -84 35q-34 36 -25 101l45 322h44l-45 -320q-6 -44 15.5 -70.5t63.5 -26.5q75 0 170 107z" />
    <glyph glyph-name="v" unicode="v" horiz-adv-x="365" 
d="M345 449h43l-245 -458h-14l-104 458h43l82 -365z" />
    <glyph glyph-name="w" unicode="w" horiz-adv-x="615" 
d="M407 89h2l184 360h44l-237 -458h-16l-60 354h-2l-176 -354h-16l-105 458h42l83 -360h2l178 360h18z" />
    <glyph glyph-name="x" unicode="x" horiz-adv-x="421" 
d="M387 449h52l-199 -219l136 -230h-52l-115 200l-185 -200h-54l219 236l-123 213h47l106 -180z" />
    <glyph glyph-name="y" unicode="y" horiz-adv-x="375" 
d="M349 449h47l-355 -679h-49l125 236l-85 443h44l71 -383h2z" />
    <glyph glyph-name="z" unicode="z" horiz-adv-x="427" 
d="M70 449h366v-19l-371 -391h314l-6 -39h-391v18l376 392h-294z" />
    <glyph glyph-name="braceleft" unicode="{" horiz-adv-x="333" 
d="M59 194v64q52 1 73 38t21 126v97q0 87 35.5 127t107.5 36v-54q-50 0 -70 -21q-18 -21 -18 -88v-97q0 -160 -97 -196q97 -36 97 -196v-97q0 -67 18 -88q20 -21 70 -21v-54q-72 -4 -107.5 36t-35.5 127v97q0 89 -21 126t-73 38z" />
    <glyph glyph-name="bar" unicode="|" horiz-adv-x="219" 
d="M101 -230v912h47v-912h-47z" />
    <glyph glyph-name="braceright" unicode="}" horiz-adv-x="333" 
d="M294 258v-64q-52 -1 -73 -38t-21 -126v-97q0 -87 -35.5 -127t-107.5 -36v54q51 0 69 21q19 20 19 88v97q0 160 97 196q-97 36 -97 196v97q0 68 -19 88q-18 21 -69 21v54q72 4 107.5 -36t35.5 -127v-97q0 -89 21 -126t73 -38z" />
    <glyph glyph-name="asciitilde" unicode="~" horiz-adv-x="660" 
d="M80 291v54q82 59 140 59q40 0 127 -40q90 -39 119 -39q27 0 57 14q27 13 82 52v-54q-82 -59 -137 -59q-40 0 -127 39q-84 40 -120 40q-32 0 -59 -13q-31 -15 -82 -53z" />
    <glyph glyph-name="uni00A0" unicode="&#xa0;" horiz-adv-x="250" 
 />
    <glyph glyph-name="exclamdown" unicode="&#xa1;" horiz-adv-x="167" 
d="M75 284h21l-59 -506h-56zM82 460h59l-12 -89h-59z" />
    <glyph glyph-name="cent" unicode="&#xa2;" horiz-adv-x="385" 
d="M351 636h37l-62 -180q43 -6 52 -9l-6 -46q-1 0 -58 9l-122 -377q76 -10 157 34l-7 -46q-36 -17 -69 -24t-94 -6l-62 -183h-36l63 192q-58 17 -89 69t-31 121q0 102 72 185q72 82 196 81zM157 45l121 369q-92 -2 -149 -69q-56 -68 -56 -153q0 -52 22 -90.5t62 -56.5z" />
    <glyph glyph-name="sterling" unicode="&#xa3;" horiz-adv-x="469" 
d="M213 351h115l-6 -42h-125l-94 -260q29 6 67 6q44 0 99 -11q68 -11 73 -11q46 0 92 21l-5 -48q-11 -5 -42 -11q-33 -4 -59 -4q-22 0 -77 9q-45 9 -88 9q-66 0 -114 -18h-17l116 318h-88l6 42h97l34 90q47 126 101.5 188t130.5 62q42 0 73 -16l-7 -47q-36 17 -67 17
q-62 0 -106.5 -58t-86.5 -175z" />
    <glyph glyph-name="currency" unicode="&#xa4;" horiz-adv-x="552" 
d="M288 557q74 0 136 -48l63 63l32 -32l-63 -63q48 -60 48 -135q0 -74 -48 -136l63 -63l-32 -32l-63 63q-60 -48 -136 -48q-75 0 -135 48l-63 -63l-32 32l63 63q-48 64 -48 136q0 74 48 135l-63 63l32 32l63 -63q61 48 135 48zM407 460q-49 49 -119 49t-119 -49
q-48 -48 -48 -118t48 -119q49 -49 119 -49t119 49t49 119t-49 118z" />
    <glyph glyph-name="yen" unicode="&#xa5;" horiz-adv-x="542" 
d="M253 355l-141 361h65l126 -345l256 345h74l-281 -361h178l-6 -42h-203l-22 -97h199l-5 -42h-203l-39 -174h-58l38 174h-195l6 42h198l21 97h-197l6 42h183z" />
    <glyph glyph-name="brokenbar" unicode="&#xa6;" horiz-adv-x="219" 
d="M101 348v334h47v-334h-47zM101 -230v399h47v-399h-47z" />
    <glyph glyph-name="section" unicode="&#xa7;" horiz-adv-x="490" 
d="M470 550l-42 -19q19 57 -10 92t-76 35q-58 0 -102 -35q-43 -34 -43 -84q0 -32 25 -71q8 -12 31 -32l33 -28l40 -29q43 -32 64 -50q65 -57 65 -121q0 -108 -143 -170q46 -49 46 -108q0 -68 -54 -114q-52 -46 -132 -46q-70 0 -109 38t-29 98l41 14q-13 -50 14 -83.5
t81 -33.5q59 0 102 37q44 38 44 87q0 51 -43 89q-24 22 -39 33q-29 20 -50 34q-57 39 -90 72q-41 42 -41 99q0 108 153 168q-53 47 -53 110q0 66 54 112q55 47 131 47q72 0 110 -42q37 -42 22 -99zM95 259q0 -51 56 -98q21 -17 64 -48q56 -39 72 -52q126 59 126 140
q0 47 -54 98q-21 19 -68 55l-61 47q-70 -32 -102.5 -64t-32.5 -78z" />
    <glyph glyph-name="dieresis" unicode="&#xa8;" horiz-adv-x="333" 
d="M99 624q13 13 31 13t31 -13t13 -31t-13 -31t-31 -13t-31 13t-13 31t13 31zM257 624q13 13 31 13t31 -13t13 -31t-13 -31t-31 -13t-31 13t-13 31t13 31z" />
    <glyph glyph-name="copyright" unicode="&#xa9;" horiz-adv-x="802" 
d="M562 449l-47 -12q-35 81 -111 81q-60 0 -99 -42.5t-39 -111.5q0 -80 36.5 -129t96.5 -49q89 0 123 100l44 -16q-15 -57 -59.5 -92.5t-104.5 -35.5q-82 0 -134 61q-53 62 -53 153q0 86 52 144q53 59 138 59q101 0 157 -110zM136 619q109 109 264 109q154 0 263 -109
q110 -110 110 -264t-110 -264q-109 -109 -263 -109q-155 0 -264 109t-109 264t109 264zM630 585q-94 96 -230 96q-135 0 -231 -96q-95 -95 -95 -230q0 -134 95 -231q97 -95 231 -95q135 0 230 95q96 96 96 231t-96 230z" />
    <glyph glyph-name="ordfeminine" unicode="&#xaa;" horiz-adv-x="323" 
d="M334 682l-44 -267h-36l3 23q-47 -29 -92 -29t-76 31t-31 77q0 69 57 122q58 52 152 52q35 0 67 -9zM263 479l26 184h-25q-74 0 -118 -44t-44 -105q0 -34 18.5 -55t50.5 -21q48 0 92 41z" />
    <glyph glyph-name="guillemotleft" unicode="&#xab;" horiz-adv-x="448" 
d="M415 456h47l-164 -228l88 -221h-47l-88 223zM190 456h47l-164 -228l88 -221h-47l-88 223z" />
    <glyph glyph-name="logicalnot" unicode="&#xac;" horiz-adv-x="660" 
d="M81 439v44h524v-284h-44v240h-480z" />
    <glyph glyph-name="uni00AD" unicode="&#xad;" horiz-adv-x="312" 
d="M38 249h237v-47h-237v47z" />
    <glyph glyph-name="registered" unicode="&#xae;" horiz-adv-x="802" 
d="M251 155v392h161q62 0 97.5 -27.5t35.5 -76.5q0 -41 -26.5 -70.5t-80.5 -38.5q42 -25 61 -52q17 -23 61 -127h-59q-52 115 -83 143q-31 29 -97 29h-23v-172h-47zM298 508v-142h65q68 0 96.5 16.5t28.5 56.5q0 39 -26 54t-92 15h-72zM136 619q109 109 264 109
q154 0 263 -109q110 -110 110 -264t-110 -264q-109 -109 -263 -109q-155 0 -264 109t-109 264t109 264zM630 585q-94 96 -230 96q-135 0 -231 -96q-95 -95 -95 -230q0 -134 95 -231q97 -95 231 -95q135 0 230 95q96 96 96 231t-96 230z" />
    <glyph glyph-name="overscore" unicode="&#xaf;" horiz-adv-x="333" 
d="M84 623h267l-7 -51h-267z" />
    <glyph glyph-name="degree" unicode="&#xb0;" horiz-adv-x="395" 
d="M142 650q41 41 99 41t99 -41t41 -98q0 -58 -41 -99t-99 -41t-99 41q-40 40 -40 99q0 58 40 98zM311 621q-29 30 -70 30t-70 -30q-29 -29 -29 -70t29 -70t70 -29t70 29q30 29 30 70t-30 70z" />
    <glyph glyph-name="plusminus" unicode="&#xb1;" horiz-adv-x="660" 
d="M81 329v44h240v240h44v-240h240v-44h-240v-240h-44v240h-240zM81 0v44h524v-44h-524z" />
    <glyph glyph-name="two.superior" unicode="&#xb2;" horiz-adv-x="323" 
d="M115 302h170l-4 -29h-247q226 202 226 276q0 25 -16 40t-44 15q-36 0 -107 -39l6 37q88 41 144 24t56 -76q0 -38 -39 -91q-39 -51 -145 -157z" />
    <glyph glyph-name="three.superior" unicode="&#xb3;" horiz-adv-x="323" 
d="M107 579l4 32q47 21 85 21q50 0 84 -26.5t34 -65.5q0 -29 -20.5 -51.5t-57.5 -34.5q53 -26 53 -77q0 -48 -38.5 -78.5t-97.5 -30.5q-60 0 -107 32l3 29q50 -29 100 -29q48 0 74.5 21t26.5 58q0 67 -91 67l3 23q54 -3 83 17.5t30 53.5q1 29 -22.5 46.5t-61.5 17.5
q-40 0 -84 -25z" />
    <glyph glyph-name="acute" unicode="&#xb4;" horiz-adv-x="333" 
d="M266 660h80l-152 -154h-33z" />
    <glyph glyph-name="mu" unicode="&#xb5;" horiz-adv-x="475" 
d="M344 194l39 255h44l-52 -350q0 -6 -0.5 -12t-1 -9t-0.5 -4q0 -18 11.5 -29.5t29.5 -11.5q16 0 55 12l-6 -40q-31 -14 -56 -14q-61 0 -76 63q-53 -63 -125 -63q-86 0 -128 92l-46 -304h-42l99 670h44l-36 -239q-5 -32 -5 -56q0 -52 35 -87q34 -34 84 -34q59 0 89.5 40
t43.5 121z" />
    <glyph glyph-name="paragraph" unicode="&#xb6;" horiz-adv-x="646" 
d="M303 716h338v-68h-96v-847h-62v847h-130v-847h-64v504q-97 -5 -159 54q-61 58 -61 152q0 93 63 149q65 56 171 56z" />
    <glyph glyph-name="middot" unicode="&#xb7;" horiz-adv-x="281" 
d="M118 384q16 16 38 16t38 -16t16 -38t-16 -38t-38 -16t-38 16t-16 38t16 38z" />
    <glyph glyph-name="cedilla" unicode="&#xb8;" horiz-adv-x="333" 
d="M140 7h31l-17 -41q16 -5 26 -19.5t10 -32.5q0 -48 -38 -70.5t-101 -13.5l10 32q47 -5 69 10q24 15 24 42t-41 29z" />
    <glyph glyph-name="one.superior" unicode="&#xb9;" horiz-adv-x="323" 
d="M201 628h38l-62 -355h-39z" />
    <glyph glyph-name="ordmasculine" unicode="&#xba;" horiz-adv-x="302" 
d="M314 577q0 -70 -41 -120q-41 -48 -102 -48q-48 0 -76.5 31t-28.5 84q0 74 39.5 120.5t101.5 46.5q49 0 78 -30.5t29 -83.5zM272 576q0 39 -18 60.5t-49 21.5q-42 0 -69.5 -37.5t-27.5 -95.5q0 -39 16.5 -61t45.5 -22q43 0 72.5 38.5t29.5 95.5z" />
    <glyph glyph-name="guillemotright" unicode="&#xbb;" horiz-adv-x="448" 
d="M246 7h-47l164 228l-88 221h47l88 -223zM22 7h-47l164 228l-88 221h47l88 -223z" />
    <glyph glyph-name="onequarter" unicode="&#xbc;" horiz-adv-x="813" 
d="M616 142h70l-3 -23h-70l-17 -119h-38l17 119h-160v13l222 228h19zM604 284l-2 2l-137 -144h113zM612 691h39l-537 -718h-39zM211 687h38l-62 -355h-39z" />
    <glyph glyph-name="onehalf" unicode="&#xbd;" horiz-adv-x="812" 
d="M530 29h170l-4 -29h-247q226 202 226 276q0 25 -16 40t-44 15q-37 0 -107 -39l6 37q88 41 144 24t56 -76q0 -39 -39 -91q-39 -51 -145 -157zM612 691h39l-537 -718h-39zM211 687h38l-62 -355h-39z" />
    <glyph glyph-name="threequarters" unicode="&#xbe;" horiz-adv-x="812" 
d="M122 638l4 32q46 21 85 21q50 0 84 -26.5t34 -65.5q0 -29 -20.5 -51.5t-57.5 -34.5q53 -26 53 -77q0 -48 -38.5 -78.5t-97.5 -30.5q-60 0 -107 32l3 29q50 -29 100 -29q48 0 74.5 21t26.5 58q0 67 -91 67l3 23q54 -3 83.5 17.5t29.5 53.5q0 29 -23 46.5t-61 17.5
q-40 0 -84 -25zM673 691h39l-537 -718h-39zM677 142h70l-3 -23h-70l-17 -119h-38l17 119h-160v13l222 228h19zM665 284l-2 2l-137 -144h113z" />
    <glyph glyph-name="questiondown" unicode="&#xbf;" horiz-adv-x="292" 
d="M208 -132l-7 -50q-59 -48 -127 -48q-59 0 -102 41q-42 41 -42 99q0 76 74 143q76 68 104 102q49 62 61 129h25q-7 -98 -85 -178q-8 -8 -37 -36.5t-39.5 -41t-28.5 -36t-25 -43t-7 -40.5q0 -46 29.5 -76t74.5 -30q65 0 132 65zM176 461h59l-12 -89h-59z" />
    <glyph glyph-name="Agrave" unicode="&#xc0;" horiz-adv-x="527" 
d="M298 691h42l157 -691h-48l-56 246h-253l-116 -246h-48zM310 607h-2l-146 -315h221zM373 728l-202 127h126l122 -127h-46z" />
    <glyph glyph-name="Aacute" unicode="&#xc1;" horiz-adv-x="527" 
d="M298 691h42l157 -691h-48l-56 246h-253l-116 -246h-48zM310 607h-2l-146 -315h221zM374 855h126l-202 -127h-46z" />
    <glyph glyph-name="Acircumflex" unicode="&#xc2;" horiz-adv-x="527" 
d="M298 691h42l157 -691h-48l-56 246h-253l-116 -246h-48zM310 607h-2l-146 -315h221zM315 860h80l90 -132h-52l-76 87l-150 -87h-51z" />
    <glyph glyph-name="Atilde" unicode="&#xc3;" horiz-adv-x="527" 
d="M298 691h42l157 -691h-48l-56 246h-253l-116 -246h-48zM310 607h-2l-146 -315h221zM198 728h-41q3 50 12 69q29 51 79 51q22 0 39.5 -7t54.5 -29q49 -27 68 -27q21 3 29 17.5t11 44.5h38q2 -57 -24 -89t-66 -32q-31 0 -87 31q-62 33 -73 33q-37 0 -40 -62z" />
    <glyph glyph-name="Adieresis" unicode="&#xc4;" horiz-adv-x="527" 
d="M298 691h42l157 -691h-48l-56 246h-253l-116 -246h-48zM310 607h-2l-146 -315h221zM493 771q0 -17 -13 -31t-32 -14q-18 0 -31 13t-13 31t12.5 31t30.5 13q20 0 33 -12.5t13 -30.5zM203 727q-18 0 -30.5 12.5t-12.5 31.5t12.5 31.5t29.5 12.5q28 1 39.5 -21.5t0 -45
t-38.5 -21.5z" />
    <glyph glyph-name="Aring" unicode="&#xc5;" horiz-adv-x="527" 
d="M298 691h42l157 -691h-48l-56 246h-253l-116 -246h-48zM310 607h-2l-146 -315h221zM268 905q31 31 74 31t73 -31q31 -30 31 -73t-31 -74q-30 -30 -73 -30t-74 30q-30 31 -30 74t30 73zM269 832q0 -29 21 -50.5t51 -21.5t51.5 21.5t21.5 50.5q0 30 -21.5 51t-51.5 21
t-51 -21t-21 -51z" />
    <glyph glyph-name="AE" unicode="&#xc6;" horiz-adv-x="800" 
d="M373 682h389l-6 -46h-292l-38 -267h272l-6 -46h-272l-40 -277h395l-6 -46h-442l46 323h-173l-204 -323h-53zM379 369l38 267h-19l-169 -267h150z" />
    <glyph glyph-name="Ccedilla" unicode="&#xc7;" horiz-adv-x="552" 
d="M521 110l-8 -56q-107 -63 -217 -63l-11 -25q16 -5 26 -19.5t10 -32.5q0 -48 -38 -70.5t-101 -13.5l10 32q47 -5 69 10q24 15 24 42t-41 29l22 52q-92 15 -162 89q-68 76 -68 191q0 105 54 199q56 95 157 156q103 61 229 61q47 0 86 -9l-6 -44q-45 7 -81 7
q-110 0 -201 -55q-89 -53 -137.5 -136t-48.5 -177q0 -101 62 -171q63 -69 155 -69q104 0 216 73z" />
    <glyph glyph-name="Egrave" unicode="&#xc8;" 
d="M136 682h348l-6 -46h-301l-38 -264h285l-7 -46h-284l-40 -280h403l-6 -46h-450zM373 728l-202 127h126l122 -127h-46z" />
    <glyph glyph-name="Eacute" unicode="&#xc9;" 
d="M136 682h348l-6 -46h-301l-38 -264h285l-7 -46h-284l-40 -280h403l-6 -46h-450zM404 855h126l-202 -127h-46z" />
    <glyph glyph-name="Ecircumflex" unicode="&#xca;" 
d="M136 682h348l-6 -46h-301l-38 -264h285l-7 -46h-284l-40 -280h403l-6 -46h-450zM340 860h80l90 -132h-52l-76 87l-150 -87h-51z" />
    <glyph glyph-name="Edieresis" unicode="&#xcb;" 
d="M136 682h348l-6 -46h-301l-38 -264h285l-7 -46h-284l-40 -280h403l-6 -46h-450zM518 771q0 -17 -13 -31t-32 -14q-18 0 -31 13t-13 31t12.5 31t30.5 13q20 0 33 -12.5t13 -30.5zM228 727q-18 0 -30.5 12.5t-12.5 31.5t12.5 31.5t29.5 12.5q28 1 39.5 -21.5t0 -45
t-38.5 -21.5z" />
    <glyph glyph-name="Igrave" unicode="&#xcc;" horiz-adv-x="198" 
d="M136 682h47l-96 -682h-47zM207 728l-202 127h126l122 -127h-46z" />
    <glyph glyph-name="Iacute" unicode="&#xcd;" horiz-adv-x="198" 
d="M136 682h47l-96 -682h-47zM218 855h126l-202 -127h-46z" />
    <glyph glyph-name="Icircumflex" unicode="&#xce;" horiz-adv-x="198" 
d="M136 682h47l-96 -682h-47zM169 860h80l90 -132h-52l-76 87l-150 -87h-51z" />
    <glyph glyph-name="Idieresis" unicode="&#xcf;" horiz-adv-x="198" 
d="M136 682h47l-96 -682h-47zM347 771q0 -17 -13 -31t-32 -14q-18 0 -31 13t-13 31t12.5 31t30.5 13q20 0 33 -12.5t13 -30.5zM57 727q-18 0 -30.5 12.5t-12.5 31.5t12.5 31.5t29.5 12.5q28 1 39.5 -21.5t0 -45t-38.5 -21.5z" />
    <glyph glyph-name="Eth" unicode="&#xd0;" horiz-adv-x="641" 
d="M42 0l44 320h-81l6 44h82l44 318h125q93 0 176 -45q81 -43 127 -123.5t46 -178.5q0 -111 -56 -193t-156 -117q-66 -25 -169 -25h-188zM315 320h-182l-38 -276h109q83 0 130 10q52 11 93 35q63 37 98 101.5t35 142.5q0 137 -90 221q-88 84 -235 84h-57l-38 -274h182z" />
    <glyph glyph-name="Ntilde" unicode="&#xd1;" horiz-adv-x="676" 
d="M614 682h47l-97 -688h-21l-374 588l-82 -582h-47l96 682h27l369 -584zM296 728h-41q3 50 12 69q29 51 79 51q22 0 39.5 -7t54.5 -29q50 -27 68 -27q21 3 29 17.5t11 44.5h38q2 -57 -24 -89t-66 -32q-31 0 -87 31q-61 33 -73 33q-37 0 -40 -62z" />
    <glyph glyph-name="Ograve" unicode="&#xd2;" horiz-adv-x="628" 
d="M608 415q0 -176 -91 -300t-231 -124q-116 0 -178.5 74t-62.5 209q0 51 10.5 106t36 111t61.5 100t92.5 72t124.5 28q109 0 174 -74q64 -73 64 -202zM556 426q0 101 -50 160t-136 59q-58 0 -107.5 -26.5t-80.5 -70.5q-42 -60 -64.5 -141t-20.5 -148q0 -106 50 -164
t140 -58q124 0 196 113q73 113 73 276zM444 728l-202 127h126l122 -127h-46z" />
    <glyph glyph-name="Oacute" unicode="&#xd3;" horiz-adv-x="628" 
d="M608 415q0 -176 -91 -300t-231 -124q-116 0 -178.5 74t-62.5 209q0 51 10.5 106t36 111t61.5 100t92.5 72t124.5 28q109 0 174 -74q64 -73 64 -202zM556 426q0 101 -50 160t-136 59q-58 0 -107.5 -26.5t-80.5 -70.5q-42 -60 -64.5 -141t-20.5 -148q0 -106 50 -164
t140 -58q124 0 196 113q73 113 73 276zM435 855h126l-202 -127h-46z" />
    <glyph glyph-name="Ocircumflex" unicode="&#xd4;" horiz-adv-x="628" 
d="M608 415q0 -176 -91 -300t-231 -124q-116 0 -178.5 74t-62.5 209q0 51 10.5 106t36 111t61.5 100t92.5 72t124.5 28q109 0 174 -74q64 -73 64 -202zM556 426q0 101 -50 160t-136 59q-58 0 -107.5 -26.5t-80.5 -70.5q-42 -60 -64.5 -141t-20.5 -148q0 -106 50 -164
t140 -58q124 0 196 113q73 113 73 276zM386 860h80l90 -132h-52l-76 87l-150 -87h-51z" />
    <glyph glyph-name="Otilde" unicode="&#xd5;" horiz-adv-x="628" 
d="M608 415q0 -176 -91 -300t-231 -124q-116 0 -178.5 74t-62.5 209q0 51 10.5 106t36 111t61.5 100t92.5 72t124.5 28q109 0 174 -74q64 -73 64 -202zM556 426q0 101 -50 160t-136 59q-58 0 -107.5 -26.5t-80.5 -70.5q-42 -60 -64.5 -141t-20.5 -148q0 -106 50 -164
t140 -58q124 0 196 113q73 113 73 276zM274 728h-41q3 50 12 69q29 51 79 51q22 0 39.5 -7t54.5 -29q50 -27 68 -27q21 3 29 17.5t11 44.5h38q2 -57 -24 -89t-66 -32q-31 0 -87 31q-61 33 -73 33q-37 0 -40 -62z" />
    <glyph glyph-name="Odieresis" unicode="&#xd6;" horiz-adv-x="628" 
d="M608 415q0 -176 -91 -300t-231 -124q-116 0 -178.5 74t-62.5 209q0 51 10.5 106t36 111t61.5 100t92.5 72t124.5 28q109 0 174 -74q64 -73 64 -202zM556 426q0 101 -50 160t-136 59q-58 0 -107.5 -26.5t-80.5 -70.5q-42 -60 -64.5 -141t-20.5 -148q0 -106 50 -164
t140 -58q124 0 196 113q73 113 73 276zM564 771q0 -17 -13 -31t-32 -14q-18 0 -31 13t-13 31t12.5 31t30.5 13q20 0 33 -12.5t13 -30.5zM274 727q-18 0 -30.5 12.5t-12.5 31.5t12.5 31.5t29.5 12.5q28 1 39.5 -21.5t0 -45t-38.5 -21.5z" />
    <glyph glyph-name="multiply" unicode="&#xd7;" horiz-adv-x="660" 
d="M311 352l-169 169l32 32l169 -169l169 169l32 -32l-169 -169l169 -169l-32 -32l-169 169l-169 -169l-32 32z" />
    <glyph glyph-name="Oslash" unicode="&#xd8;" horiz-adv-x="628" 
d="M149 93l334 515q-46 37 -113 37q-58 0 -107.5 -26.5t-80.5 -70.5q-42 -60 -64.5 -141t-20.5 -148q0 -105 52 -166zM148 28l-40 -62l-29 18l43 66q-35 31 -56 89t-21 135q0 51 10.5 106t36 111t61.5 100t92.5 72t124.5 28q42 0 81 -12.5t58 -30.5l33 51l26 -17l-34 -53
q74 -77 74 -214q0 -176 -91 -300t-231 -124q-74 0 -138 37zM506 585l-330 -514q41 -34 111 -34q124 0 196 113q73 113 73 276q0 100 -50 159z" />
    <glyph glyph-name="Ugrave" unicode="&#xd9;" horiz-adv-x="632" 
d="M596 682h47l-63 -441q-9 -65 -37 -114.5t-67.5 -78.5t-83.5 -43t-91 -14q-101 0 -169 71q-68 70 -51 183l62 437h47l-61 -430q-15 -106 39 -161q56 -54 141 -54q99 0 155 62q57 61 69 146zM441 728l-202 127h126l122 -127h-46z" />
    <glyph glyph-name="Uacute" unicode="&#xda;" horiz-adv-x="632" 
d="M596 682h47l-63 -441q-9 -65 -37 -114.5t-67.5 -78.5t-83.5 -43t-91 -14q-101 0 -169 71q-68 70 -51 183l62 437h47l-61 -430q-15 -106 39 -161q56 -54 141 -54q99 0 155 62q57 61 69 146zM452 855h126l-202 -127h-46z" />
    <glyph glyph-name="Ucircumflex" unicode="&#xdb;" horiz-adv-x="632" 
d="M596 682h47l-63 -441q-9 -65 -37 -114.5t-67.5 -78.5t-83.5 -43t-91 -14q-101 0 -169 71q-68 70 -51 183l62 437h47l-61 -430q-15 -106 39 -161q56 -54 141 -54q99 0 155 62q57 61 69 146zM393 860h80l90 -132h-52l-76 87l-150 -87h-51z" />
    <glyph glyph-name="Udieresis" unicode="&#xdc;" horiz-adv-x="632" 
d="M596 682h47l-63 -441q-9 -65 -37 -114.5t-67.5 -78.5t-83.5 -43t-91 -14q-101 0 -169 71q-68 70 -51 183l62 437h47l-61 -430q-15 -106 39 -161q56 -54 141 -54q99 0 155 62q57 61 69 146zM571 771q0 -17 -13 -31t-32 -14q-18 0 -31 13t-13 31t12.5 31t30.5 13
q20 0 33 -12.5t13 -30.5zM281 727q-18 0 -30.5 12.5t-12.5 31.5t12.5 31.5t29.5 12.5q28 1 39.5 -21.5t0 -45t-38.5 -21.5z" />
    <glyph glyph-name="Yacute" unicode="&#xdd;" horiz-adv-x="461" 
d="M472 682h57l-255 -329l-49 -353h-47l49 353l-171 329h51l149 -282zM370 855h126l-202 -127h-46z" />
    <glyph glyph-name="Thorn" unicode="&#xde;" horiz-adv-x="473" 
d="M40 0l96 682h52l-21 -153h63q79 0 123 -23q41 -22 65 -64t24 -94q0 -62 -31 -108.5t-85 -67.5q-48 -19 -129 -19h-83l-22 -153h-52zM223 485h-63l-40 -288h76q77 0 116 19q78 37 78 129q0 46 -22 81t-60 49q-27 10 -85 10z" />
    <glyph glyph-name="germandbls" unicode="&#xdf;" horiz-adv-x="469" 
d="M70 0h-44l73 516q10 73 57 124q48 51 127 51q55 0 93.5 -28t52.5 -61.5t14 -65.5q0 -54 -33 -95t-87 -55v-2q100 -40 100 -159q0 -99 -57 -167q-57 -67 -143 -67q-28 0 -55 9l5 40q18 -8 46 -8q68 0 112 53q45 52 45 134q0 62 -37.5 104t-102.5 46l5 39q69 -5 112 34
q43 40 43 95q0 47 -35 80q-34 33 -82 33q-54 0 -91.5 -40.5t-47.5 -110.5z" />
    <glyph glyph-name="agrave" unicode="&#xe0;" horiz-adv-x="463" 
d="M427 449l-63 -449h-44l7 53q-70 -62 -154 -62q-68 0 -113 51q-44 52 -44 129q0 110 80 196q40 42 102.5 66.5t136.5 24.5q55 0 92 -9zM334 104l45 315q-24 6 -55 6q-107 0 -184 -73q-77 -74 -77 -187q0 -62 32 -99.5t85 -37.5q75 0 154 76zM309 506l-152 154h80l105 -154
h-33z" />
    <glyph glyph-name="aacute" unicode="&#xe1;" horiz-adv-x="463" 
d="M427 449l-63 -449h-44l7 53q-70 -62 -154 -62q-68 0 -113 51q-44 52 -44 129q0 110 80 196q40 42 102.5 66.5t136.5 24.5q55 0 92 -9zM334 104l45 315q-24 6 -55 6q-107 0 -184 -73q-77 -74 -77 -187q0 -62 32 -99.5t85 -37.5q75 0 154 76zM341 660h80l-152 -154h-33z
" />
    <glyph glyph-name="acircumflex" unicode="&#xe2;" horiz-adv-x="463" 
d="M427 449l-63 -449h-44l7 53q-70 -62 -154 -62q-68 0 -113 51q-44 52 -44 129q0 110 80 196q40 42 102.5 66.5t136.5 24.5q55 0 92 -9zM334 104l45 315q-24 6 -55 6q-107 0 -184 -73q-77 -74 -77 -187q0 -62 32 -99.5t85 -37.5q75 0 154 76zM327 703h56l9 -197h-36
l-21 135l-149 -135h-39z" />
    <glyph glyph-name="atilde" unicode="&#xe3;" horiz-adv-x="463" 
d="M427 449l-63 -449h-44l7 53q-70 -62 -154 -62q-68 0 -113 51q-44 52 -44 129q0 110 80 196q40 42 102.5 66.5t136.5 24.5q55 0 92 -9zM334 104l45 315q-24 6 -55 6q-107 0 -184 -73q-77 -74 -77 -187q0 -62 32 -99.5t85 -37.5q75 0 154 76zM414 649h31q-9 -95 -80 -95
q-31 0 -91 25q-59 24 -85 24q-20 0 -29.5 -10t-10.5 -38h-31q-6 43 19 70.5t64 27.5q26 0 86 -24q63 -25 85 -25q20 0 29.5 10t12.5 35z" />
    <glyph glyph-name="adieresis" unicode="&#xe4;" horiz-adv-x="463" 
d="M427 449l-63 -449h-44l7 53q-70 -62 -154 -62q-68 0 -113 51q-44 52 -44 129q0 110 80 196q40 42 102.5 66.5t136.5 24.5q55 0 92 -9zM334 104l45 315q-24 6 -55 6q-107 0 -184 -73q-77 -74 -77 -187q0 -62 32 -99.5t85 -37.5q75 0 154 76zM178 624q13 13 31 13t31 -13
t13 -31t-13 -31t-31 -13t-31 13t-13 31t13 31zM336 624q13 13 31 13t31 -13t13 -31t-13 -31t-31 -13t-31 13t-13 31t13 31z" />
    <glyph glyph-name="aring" unicode="&#xe5;" horiz-adv-x="463" 
d="M427 449l-63 -449h-44l7 53q-70 -62 -154 -62q-68 0 -113 51q-44 52 -44 129q0 110 80 196q40 42 102.5 66.5t136.5 24.5q55 0 92 -9zM334 104l45 315q-24 6 -55 6q-107 0 -184 -73q-77 -74 -77 -187q0 -62 32 -99.5t85 -37.5q75 0 154 76zM272 633q-17 -17 -17 -41
t17 -41t41 -17t41 17t17 41t-17 41t-41 17t-41 -17zM252 531q-25 26 -25 61t25 60q26 26 61 26t60 -26q26 -25 26 -60t-26 -61q-25 -25 -60 -25t-61 25z" />
    <glyph glyph-name="ae" unicode="&#xe6;" horiz-adv-x="658" 
d="M591 94l-7 -51q-27 -20 -74 -37q-45 -15 -79 -15q-47 0 -88 24q-41 26 -54 61q-36 -37 -85 -61t-89 -24q-44 0 -72 26.5t-28 66.5q0 68 77 116q78 49 200 57l7 61q5 44 -16 71.5t-66 27.5q-75 0 -158 -78l-9 42q86 77 173 77q73 0 109 -71q57 71 132 71q81 0 123 -65
q43 -64 30 -158h-287q-14 -86 -14 -107q0 -43 31 -69.5t80 -26.5q79 0 164 62zM334 274h243q7 61 -24.5 102t-85.5 41q-52 0 -87 -36.5t-46 -106.5zM270 105l16 116q-98 -11 -163 -46q-66 -35 -66 -90q0 -22 18 -37.5t44 -15.5q65 0 151 73z" />
    <glyph glyph-name="ccedilla" unicode="&#xe7;" horiz-adv-x="385" 
d="M352 69l-7 -47q-62 -31 -135 -31l-11 -25q16 -5 26 -19.5t10 -32.5q0 -48 -38 -70.5t-101 -13.5l10 32q47 -5 69 10q24 15 24 42t-41 29l22 51q-70 11 -112 64t-42 133q0 97 64 178q72 89 202 89q43 0 88 -9l-7 -48q-48 13 -85 13q-70 0 -121 -36q-94 -66 -94 -192
q0 -70 41.5 -112t109.5 -42q45 0 128 37z" />
    <glyph glyph-name="egrave" unicode="&#xe8;" horiz-adv-x="436" 
d="M370 88v-47q-65 -50 -141 -50q-89 0 -145 59q-54 58 -54 157q0 106 60 178q60 73 148 73q73 0 116.5 -51.5t43.5 -138.5q0 -8 -2 -34h-317q-2 -24 -2 -29q0 -68 40 -120q41 -53 113 -53t140 56zM86 273h268q3 67 -29 105.5t-88 38.5q-54 0 -98 -43q-44 -42 -53 -101z
M280 506l-152 154h80l105 -154h-33z" />
    <glyph glyph-name="eacute" unicode="&#xe9;" horiz-adv-x="436" 
d="M370 88v-47q-65 -50 -141 -50q-89 0 -145 59q-54 58 -54 157q0 106 60 178q60 73 148 73q73 0 116.5 -51.5t43.5 -138.5q0 -8 -2 -34h-317q-2 -24 -2 -29q0 -68 40 -120q41 -53 113 -53t140 56zM86 273h268q3 67 -29 105.5t-88 38.5q-54 0 -98 -43q-44 -42 -53 -101z
M301 660h80l-152 -154h-33z" />
    <glyph glyph-name="ecircumflex" unicode="&#xea;" horiz-adv-x="436" 
d="M370 88v-47q-65 -50 -141 -50q-89 0 -145 59q-54 58 -54 157q0 106 60 178q60 73 148 73q73 0 116.5 -51.5t43.5 -138.5q0 -8 -2 -34h-317q-2 -24 -2 -29q0 -68 40 -120q41 -53 113 -53t140 56zM86 273h268q3 67 -29 105.5t-88 38.5q-54 0 -98 -43q-44 -42 -53 -101z
M300 703h56l9 -197h-36l-21 135l-149 -135h-39z" />
    <glyph glyph-name="edieresis" unicode="&#xeb;" horiz-adv-x="436" 
d="M370 88v-47q-65 -50 -141 -50q-89 0 -145 59q-54 58 -54 157q0 106 60 178q60 73 148 73q73 0 116.5 -51.5t43.5 -138.5q0 -8 -2 -34h-317q-2 -24 -2 -29q0 -68 40 -120q41 -53 113 -53t140 56zM86 273h268q3 67 -29 105.5t-88 38.5q-54 0 -98 -43q-44 -42 -53 -101z
M154 624q13 13 31 13t31 -13t13 -31t-13 -31t-31 -13t-31 13t-13 31t13 31zM312 624q13 13 31 13t31 -13t13 -31t-13 -31t-31 -13t-31 13t-13 31t13 31z" />
    <glyph glyph-name="igrave" unicode="&#xec;" horiz-adv-x="177" 
d="M94 449h44l-63 -449h-44zM152 506l-152 154h80l105 -154h-33z" />
    <glyph glyph-name="iacute" unicode="&#xed;" horiz-adv-x="177" 
d="M94 449h44l-63 -449h-44zM188 660h80l-152 -154h-33z" />
    <glyph glyph-name="icircumflex" unicode="&#xee;" horiz-adv-x="177" 
d="M94 449h44l-63 -449h-44zM177 703h56l9 -197h-36l-21 135l-149 -135h-39z" />
    <glyph glyph-name="idieresis" unicode="&#xef;" horiz-adv-x="177" 
d="M94 449h44l-63 -449h-44zM21 624q13 13 31 13t31 -13t13 -31t-13 -31t-31 -13t-31 13t-13 31t13 31zM179 624q13 13 31 13t31 -13t13 -31t-13 -31t-31 -13t-31 13t-13 31t13 31z" />
    <glyph glyph-name="eth" unicode="&#xf0;" horiz-adv-x="429" 
d="M67 179q0 -68 28.5 -107.5t77.5 -39.5q67 0 118 67t51 171q0 67 -30 107t-83 40q-52 0 -89.5 -35.5t-55 -88t-17.5 -114.5zM403 682l19 -34l-91 -47q70 -97 70 -264q0 -151 -61 -248q-60 -98 -165 -98q-65 0 -110 49q-45 50 -45 140q0 121 59 200q59 78 152 78
q83 0 125 -77l2 2q-9 121 -66 198l-103 -53l-19 34l96 50q-17 20 -44 40l29 30q33 -25 54 -50z" />
    <glyph glyph-name="ntilde" unicode="&#xf1;" horiz-adv-x="457" 
d="M91 449h44l-10 -74l2 -2q85 85 171 85q55 0 87 -44t24 -106l-43 -308h-44l42 302q8 55 -13.5 85t-64.5 30q-74 0 -169 -98l-45 -319h-44zM406 649h31q-9 -95 -80 -95q-31 0 -91 25q-58 24 -85 24q-20 0 -29.5 -10t-10.5 -38h-31q-6 43 19 70.5t64 27.5q26 0 86 -24
q63 -25 85 -25q20 0 29.5 10t12.5 35z" />
    <glyph glyph-name="ograve" unicode="&#xf2;" horiz-adv-x="421" 
d="M387 270q0 -127 -65 -204q-64 -75 -149 -75q-65 0 -110 49q-45 50 -45 140q0 121 59 200q58 78 152 78q73 0 115.5 -51t42.5 -137zM340 270q0 67 -30.5 107t-82.5 40t-89.5 -35.5t-55 -88t-17.5 -114.5q0 -68 28.5 -107.5t77.5 -39.5q69 0 119 69q50 71 50 169zM280 506
l-152 154h80l105 -154h-33z" />
    <glyph glyph-name="oacute" unicode="&#xf3;" horiz-adv-x="421" 
d="M387 270q0 -127 -65 -204q-64 -75 -149 -75q-65 0 -110 49q-45 50 -45 140q0 121 59 200q58 78 152 78q73 0 115.5 -51t42.5 -137zM340 270q0 67 -30.5 107t-82.5 40t-89.5 -35.5t-55 -88t-17.5 -114.5q0 -68 28.5 -107.5t77.5 -39.5q69 0 119 69q50 71 50 169zM296 660
h80l-152 -154h-33z" />
    <glyph glyph-name="ocircumflex" unicode="&#xf4;" horiz-adv-x="421" 
d="M387 270q0 -127 -65 -204q-64 -75 -149 -75q-65 0 -110 49q-45 50 -45 140q0 121 59 200q58 78 152 78q73 0 115.5 -51t42.5 -137zM340 270q0 67 -30.5 107t-82.5 40t-89.5 -35.5t-55 -88t-17.5 -114.5q0 -68 28.5 -107.5t77.5 -39.5q69 0 119 69q50 71 50 169zM305 703
h56l9 -197h-36l-21 135l-149 -135h-39z" />
    <glyph glyph-name="otilde" unicode="&#xf5;" horiz-adv-x="421" 
d="M387 270q0 -127 -65 -204q-64 -75 -149 -75q-65 0 -110 49q-45 50 -45 140q0 121 59 200q58 78 152 78q73 0 115.5 -51t42.5 -137zM340 270q0 67 -30.5 107t-82.5 40t-89.5 -35.5t-55 -88t-17.5 -114.5q0 -68 28.5 -107.5t77.5 -39.5q69 0 119 69q50 71 50 169zM392 649
h31q-9 -95 -80 -95q-31 0 -91 25q-59 24 -85 24q-20 0 -29.5 -10t-10.5 -38h-31q-6 43 19 70.5t64 27.5q26 0 86 -24q63 -25 85 -25q20 0 29.5 10t12.5 35z" />
    <glyph glyph-name="odieresis" unicode="&#xf6;" horiz-adv-x="421" 
d="M387 270q0 -127 -65 -204q-64 -75 -149 -75q-65 0 -110 49q-45 50 -45 140q0 121 59 200q58 78 152 78q73 0 115.5 -51t42.5 -137zM340 270q0 67 -30.5 107t-82.5 40t-89.5 -35.5t-55 -88t-17.5 -114.5q0 -68 28.5 -107.5t77.5 -39.5q69 0 119 69q50 71 50 169zM149 624
q13 13 31 13t31 -13t13 -31t-13 -31t-31 -13t-31 13t-13 31t13 31zM307 624q13 13 31 13t31 -13t13 -31t-13 -31t-31 -13t-31 13t-13 31t13 31z" />
    <glyph glyph-name="divide" unicode="&#xf7;" horiz-adv-x="660" 
d="M81 329v44h524v-44h-524zM371 489q-11 -11 -28 -11t-28 11t-11 28t11 28t28 11t28 -11t11 -28t-11 -28zM371 157q-11 -11 -28 -11t-28 11t-11 28t11 28t28 11t28 -11t11 -28t-11 -28z" />
    <glyph glyph-name="oslash" unicode="&#xf8;" horiz-adv-x="421" 
d="M316 367l-203 -317q31 -18 58 -18q69 0 119 69q50 71 50 169q0 60 -24 97zM315 434l41 64l31 -21l-44 -69q44 -50 44 -138q0 -127 -65 -204q-64 -75 -149 -75q-37 0 -83 24l-42 -65l-32 19l46 71q-44 56 -44 140q0 121 59 200q58 78 152 78q49 0 86 -24zM88 81l203 316
q-32 20 -64 20q-50 0 -88 -34t-57 -90q-17 -54 -17 -114q0 -61 23 -98z" />
    <glyph glyph-name="ugrave" unicode="&#xf9;" horiz-adv-x="458" 
d="M389 449h44l-63 -449h-44l12 79l-2 2q-84 -90 -174 -90q-49 0 -84 35q-34 36 -25 101l45 322h44l-45 -320q-6 -44 15.5 -70.5t63.5 -26.5q75 0 170 107zM302 506l-152 154h80l105 -154h-33z" />
    <glyph glyph-name="uacute" unicode="&#xfa;" horiz-adv-x="458" 
d="M389 449h44l-63 -449h-44l12 79l-2 2q-84 -90 -174 -90q-49 0 -84 35q-34 36 -25 101l45 322h44l-45 -320q-6 -44 15.5 -70.5t63.5 -26.5q75 0 170 107zM338 660h80l-152 -154h-33z" />
    <glyph glyph-name="ucircumflex" unicode="&#xfb;" horiz-adv-x="458" 
d="M389 449h44l-63 -449h-44l12 79l-2 2q-84 -90 -174 -90q-49 0 -84 35q-34 36 -25 101l45 322h44l-45 -320q-6 -44 15.5 -70.5t63.5 -26.5q75 0 170 107zM327 703h56l9 -197h-36l-21 135l-149 -135h-39z" />
    <glyph glyph-name="udieresis" unicode="&#xfc;" horiz-adv-x="458" 
d="M389 449h44l-63 -449h-44l12 79l-2 2q-84 -90 -174 -90q-49 0 -84 35q-34 36 -25 101l45 322h44l-45 -320q-6 -44 15.5 -70.5t63.5 -26.5q75 0 170 107zM171 624q13 13 31 13t31 -13t13 -31t-13 -31t-31 -13t-31 13t-13 31t13 31zM329 624q13 13 31 13t31 -13t13 -31
t-13 -31t-31 -13t-31 13t-13 31t13 31z" />
    <glyph glyph-name="yacute" unicode="&#xfd;" horiz-adv-x="375" 
d="M349 449h47l-355 -679h-49l125 236l-85 443h44l71 -383h2zM287 660h80l-152 -154h-33z" />
    <glyph glyph-name="thorn" unicode="&#xfe;" horiz-adv-x="500" 
d="M156 389l-51 -362q168 -19 239 60q62 69 62 167q0 75 -39.5 119t-105.5 44q-50 0 -105 -28zM70 -221h-44l127 903h44l-36 -257q59 33 111 33q82 0 131 -57q50 -56 50 -146q0 -96 -62 -175q-32 -41 -91.5 -65t-135.5 -24q-33 0 -63 3z" />
    <glyph glyph-name="ydieresis" unicode="&#xff;" horiz-adv-x="375" 
d="M349 449h47l-355 -679h-49l125 236l-85 443h44l71 -383h2zM130 624q13 13 31 13t31 -13t13 -31t-13 -31t-31 -13t-31 13t-13 31t13 31zM288 624q13 13 31 13t31 -13t13 -31t-13 -31t-31 -13t-31 13t-13 31t13 31z" />
    <glyph glyph-name="Amacron" unicode="&#x100;" horiz-adv-x="527" 
d="M298 691h42l157 -691h-48l-56 246h-253l-116 -246h-48zM310 607h-2l-146 -315h221zM172 796h319l-9 -50h-319z" />
    <glyph glyph-name="amacron" unicode="&#x101;" horiz-adv-x="463" 
d="M427 449l-63 -449h-44l7 53q-70 -62 -154 -62q-68 0 -113 51q-44 52 -44 129q0 110 80 196q40 42 102.5 66.5t136.5 24.5q55 0 92 -9zM334 104l45 315q-24 6 -55 6q-107 0 -184 -73q-77 -74 -77 -187q0 -62 32 -99.5t85 -37.5q75 0 154 76zM151 623h267l-7 -51h-267z" />
    <glyph glyph-name="Abreve" unicode="&#x102;" horiz-adv-x="527" 
d="M298 691h42l157 -691h-48l-56 246h-253l-116 -246h-48zM310 607h-2l-146 -315h221zM180 846h55q9 -30 36 -48.5t56 -18.5q66 0 127 67h56q-33 -54 -84 -86t-104 -32t-93 32t-49 86z" />
    <glyph glyph-name="abreve" unicode="&#x103;" horiz-adv-x="463" 
d="M427 449l-63 -449h-44l7 53q-70 -62 -154 -62q-68 0 -113 51q-44 52 -44 129q0 110 80 196q40 42 102.5 66.5t136.5 24.5q55 0 92 -9zM334 104l45 315q-24 6 -55 6q-107 0 -184 -73q-77 -74 -77 -187q0 -62 32 -99.5t85 -37.5q75 0 154 76zM385 633h36
q-18 -58 -55.5 -92.5t-82.5 -34.5q-48 0 -77.5 35t-30.5 92h41q5 -83 65 -83q28 0 57 23.5t47 59.5z" />
    <glyph glyph-name="Aogonek" unicode="&#x104;" horiz-adv-x="527" 
d="M570 -133v-45q-30 -8 -54 -8q-48 0 -77.5 25.5t-29.5 60.5q0 50 40 100l-56 246h-253l-116 -246h-48l322 691h42l157 -691q-36 -56 -36 -85q0 -22 18 -37.5t45 -15.5q8 0 46 5zM161 292h222l-73 322z" />
    <glyph glyph-name="aogonek" unicode="&#x105;" horiz-adv-x="463" 
d="M427 -120v-41q-27 -7 -48 -7q-44 0 -71 23t-27 55q0 42 36 90l8 52q-82 -61 -154 -61q-63 0 -109 48q-46 49 -46 132q0 103 75 190q38 44 102.5 70.5t142.5 26.5q46 0 91 -9l-66 -449q-33 -48 -33 -77q0 -19 16 -33t42 -14q21 0 41 4zM332 103l47 317l-54 2
q-108 0 -184 -74q-75 -74 -75 -184q0 -63 32 -99.5t85 -36.5q42 0 82 22t67 53z" />
    <glyph glyph-name="Cacute" unicode="&#x106;" horiz-adv-x="552" 
d="M562 682l-6 -44q-45 7 -81 7q-110 0 -201 -55q-89 -53 -137.5 -136t-48.5 -177q0 -101 62 -171q63 -69 155 -69q104 0 216 73l-8 -56q-109 -63 -207 -63q-102 0 -187 77q-83 78 -83 207q0 105 54 199q56 95 157 156q103 61 229 61q47 0 86 -9zM481 855h126l-202 -127h-46
z" />
    <glyph glyph-name="cacute" unicode="&#x107;" horiz-adv-x="385" 
d="M380 449l-7 -48q-48 13 -85 13q-70 0 -121 -36q-94 -66 -94 -192q0 -70 41.5 -112t109.5 -42q45 0 128 37l-7 -47q-62 -31 -132 -31q-84 0 -136 55q-51 56 -51 145q0 97 64 178q72 89 202 89q43 0 88 -9zM307 660h80l-152 -154h-33z" />
    <glyph glyph-name="Ccircumflex" unicode="&#x108;" horiz-adv-x="552" 
d="M566 682l-6 -44q-45 7 -81 7q-110 0 -201 -55q-89 -53 -137.5 -136t-48.5 -177q0 -101 62 -171q63 -69 155 -69q104 0 216 73l-8 -56q-109 -63 -207 -63q-102 0 -187 77q-83 78 -83 207q0 105 54 199q56 95 157 156q103 61 229 61q47 0 86 -9zM396 860h80l90 -132h-52
l-76 87l-150 -87h-51z" />
    <glyph glyph-name="ccircumflex" unicode="&#x109;" horiz-adv-x="385" 
d="M380 449l-7 -48q-48 13 -85 13q-70 0 -121 -36q-94 -66 -94 -192q0 -70 41.5 -112t109.5 -42q45 0 128 37l-7 -47q-62 -31 -132 -31q-84 0 -136 55q-51 56 -51 145q0 97 64 178q72 89 202 89q43 0 88 -9zM316 703h56l9 -197h-36l-21 135l-149 -135h-39z" />
    <glyph glyph-name="Cdotaccent" unicode="&#x10a;" horiz-adv-x="552" 
d="M566 682l-6 -44q-45 7 -81 7q-110 0 -201 -55q-89 -53 -137.5 -136t-48.5 -177q0 -101 62 -171q63 -69 155 -69q104 0 216 73l-8 -56q-109 -63 -207 -63q-102 0 -187 77q-83 78 -83 207q0 105 54 199q56 95 157 156q103 61 229 61q47 0 86 -9zM416 815q27 1 38.5 -21.5
t0.5 -45t-38 -21.5q-19 0 -31.5 12.5t-12.5 31.5t12.5 31.5t30.5 12.5z" />
    <glyph glyph-name="cdotaccent" unicode="&#x10b;" horiz-adv-x="385" 
d="M380 449l-7 -48q-48 13 -85 13q-70 0 -121 -36q-94 -66 -94 -192q0 -70 41.5 -112t109.5 -42q45 0 128 37l-7 -47q-62 -31 -132 -31q-84 0 -136 55q-51 56 -51 145q0 97 64 178q72 89 202 89q43 0 88 -9zM245 624q13 13 31 13t31 -13t13 -31t-13 -31t-31 -13t-31 13
t-13 31t13 31z" />
    <glyph glyph-name="Ccaron" unicode="&#x10c;" horiz-adv-x="552" 
d="M562 682l-6 -44q-45 7 -81 7q-110 0 -201 -55q-89 -53 -137.5 -136t-48.5 -177q0 -101 62 -171q63 -69 155 -69q104 0 216 73l-8 -56q-109 -63 -207 -63q-102 0 -187 77q-83 78 -83 207q0 105 54 199q56 95 157 156q103 61 229 61q47 0 86 -9zM453 728h-80l-90 132h52
l76 -87l150 87h51z" />
    <glyph glyph-name="ccaron" unicode="&#x10d;" horiz-adv-x="385" 
d="M380 449l-7 -48q-48 13 -85 13q-70 0 -121 -36q-94 -66 -94 -192q0 -70 41.5 -112t109.5 -42q45 0 128 37l-7 -47q-62 -31 -132 -31q-84 0 -136 55q-51 56 -51 145q0 97 64 178q72 89 202 89q43 0 88 -9zM294 506h-56l-9 197h36l21 -135l149 135h39z" />
    <glyph glyph-name="Dcaron" unicode="&#x10e;" horiz-adv-x="638" 
d="M257 0h-217l96 682h121q89 0 167 -39q78 -37 131 -119t53 -189q0 -149 -100 -242t-251 -93zM237 638h-58l-85 -594h145q70 0 126 18.5t91 48t58 69t32.5 78t9.5 77.5q0 137 -92 220t-227 83zM360 728h-80l-90 132h52l76 -87l150 87h51z" />
    <glyph glyph-name="dcaron" unicode="&#x10f;" horiz-adv-x="491" 
d="M422 682h44l-99 -677q-61 -14 -118 -14q-129 0 -184 77q-45 63 -45 130q0 60 34 122q70 135 268 138q38 0 66 -4zM328 38l55 380q-28 4 -61 4q-67 0 -120 -22.5t-82 -59.5q-54 -72 -54 -144q0 -100 74 -139q63 -30 116 -30q37 0 72 11zM515 691h59l-8 -56
q-10 -67 -31 -100.5t-60 -48.5l4 29q36 21 43 85h-21z" />
    <glyph glyph-name="Dcroat" unicode="&#x110;" horiz-adv-x="640" 
d="M41 0l44 320h-81l6 44h82l44 318h125q93 0 176 -45q81 -43 127 -123.5t46 -178.5q0 -111 -56 -193t-156 -117q-66 -25 -169 -25h-188zM314 320h-182l-38 -276h109q83 0 130 10q52 11 93 35q63 37 98 101.5t35 142.5q0 137 -90 221q-89 84 -235 84h-57l-38 -274h182z" />
    <glyph glyph-name="dslash" unicode="&#x111;" horiz-adv-x="461" 
d="M467 682l-15 -98h74l-6 -40h-73l-80 -539q-61 -14 -118 -14q-129 0 -184 77q-45 63 -45 130q0 60 34 122q70 135 268 138q39 0 67 -4l13 90h-148l6 40h148l15 98h44zM328 38l55 380q-28 4 -60 4q-65 0 -116 -21t-80.5 -55t-44.5 -72.5t-15 -77.5q0 -100 73 -139
q63 -30 116 -30q26 0 72 11z" />
    <glyph glyph-name="Emacron" unicode="&#x112;" 
d="M136 682h348l-6 -46h-301l-38 -264h285l-7 -46h-284l-40 -280h403l-6 -46h-450zM192 796h319l-9 -50h-319z" />
    <glyph glyph-name="emacron" unicode="&#x113;" horiz-adv-x="436" 
d="M370 88v-47q-65 -50 -141 -50q-89 0 -145 59q-54 58 -54 157q0 106 60 178q60 73 148 73q73 0 116.5 -51.5t43.5 -138.5q0 -8 -2 -34h-317q-2 -24 -2 -29q0 -68 40 -120q41 -53 113 -53t140 56zM86 273h268q3 67 -29 105.5t-88 38.5q-54 0 -98 -43q-44 -42 -53 -101z
M134 623h267l-7 -51h-267z" />
    <glyph glyph-name="Ebreve" unicode="&#x114;" 
d="M136 682h348l-6 -46h-301l-38 -264h285l-7 -46h-284l-40 -280h403l-6 -46h-450zM201 846h55q9 -30 36 -48.5t56 -18.5q66 0 127 67h56q-33 -54 -84 -86t-104 -32t-93 32t-49 86z" />
    <glyph glyph-name="ebreve" unicode="&#x115;" horiz-adv-x="436" 
d="M370 88v-47q-65 -50 -141 -50q-89 0 -145 59q-54 58 -54 157q0 106 60 178q60 73 148 73q73 0 116.5 -51.5t43.5 -138.5q0 -8 -2 -34h-317q-2 -24 -2 -29q0 -68 40 -120q41 -53 113 -53t140 56zM86 273h268q3 67 -29 105.5t-88 38.5q-54 0 -98 -43q-44 -42 -53 -101z
M356 633h36q-18 -58 -55.5 -92.5t-82.5 -34.5q-48 0 -77.5 35t-30.5 92h41q5 -83 65 -83q28 0 57 23.5t47 59.5z" />
    <glyph glyph-name="Edotaccent" unicode="&#x116;" 
d="M136 682h348l-6 -46h-301l-38 -264h285l-7 -46h-284l-40 -280h403l-6 -46h-450zM350 815q27 1 38.5 -21.5t0.5 -45t-38 -21.5q-19 0 -31.5 12.5t-12.5 31.5t12.5 31.5t30.5 12.5z" />
    <glyph glyph-name="edotaccent" unicode="&#x117;" horiz-adv-x="436" 
d="M370 88v-47q-65 -50 -141 -50q-89 0 -145 59q-54 58 -54 157q0 106 60 178q60 73 148 73q73 0 116.5 -51.5t43.5 -138.5q0 -8 -2 -34h-317q-2 -24 -2 -29q0 -68 40 -120q41 -53 113 -53t140 56zM86 273h268q3 67 -29 105.5t-88 38.5q-54 0 -98 -43q-44 -42 -53 -101z
M239 624q13 13 31 13t31 -13t13 -31t-13 -31t-31 -13t-31 13t-13 31t13 31z" />
    <glyph glyph-name="Eogonek" unicode="&#x118;" 
d="M489 -133v-45q-30 -8 -54 -8q-47 0 -76.5 25.5t-29.5 60.5q0 45 40 100h-331l101 682h350l-8 -41h-301l-41 -273h288l-9 -42h-284l-43 -282h409l-7 -44h-75q-37 -53 -37 -86q0 -22 17.5 -37t45.5 -15q7 0 45 5z" />
    <glyph glyph-name="eogonek" unicode="&#x119;" horiz-adv-x="436" 
d="M310 -120v-41q-27 -7 -48 -7q-43 0 -70 23.5t-27 54.5q0 39 31 82q-74 9 -120 67.5t-46 147.5q0 115 66 182q66 69 142 69q31 0 58 -10q31 -10 58.5 -43t36.5 -79q7 -32 7 -86h-319q-3 -30 -3 -35q0 -66 39 -120q41 -54 114 -54q71 0 141 57v-51q-57 -40 -131 -45
q-27 -39 -27 -69q0 -19 15.5 -33t41.5 -14q20 0 41 4zM85 272h269q-1 40 -7 63q-12 40 -42 61.5t-66 21.5q-54 0 -97 -43q-44 -42 -57 -103z" />
    <glyph glyph-name="Ecaron" unicode="&#x11a;" 
d="M136 682h348l-6 -46h-301l-38 -264h285l-7 -46h-284l-40 -280h403l-6 -46h-450zM356 728h-80l-90 132h52l76 -87l150 87h51z" />
    <glyph glyph-name="ecaron" unicode="&#x11b;" horiz-adv-x="436" 
d="M370 88v-47q-65 -50 -141 -50q-89 0 -145 59q-54 58 -54 157q0 106 60 178q60 73 148 73q73 0 116.5 -51.5t43.5 -138.5q0 -8 -2 -34h-317q-2 -24 -2 -29q0 -68 40 -120q41 -53 113 -53t140 56zM86 273h268q3 67 -29 105.5t-88 38.5q-54 0 -98 -43q-44 -42 -53 -101z
M273 506h-56l-9 197h36l21 -135l149 135h39z" />
    <glyph glyph-name="Gcircumflex" unicode="&#x11c;" horiz-adv-x="614" 
d="M637 675l-6 -45q-70 15 -125 15q-190 0 -303 -105q-112 -105 -112 -257q0 -109 67 -177q67 -69 173 -69q73 0 165 46l22 152h-153l6 46h200l-31 -221q-101 -69 -215 -69t-200 79q-86 80 -86 217q0 158 121 277q59 59 150.5 93t199.5 34q66 0 127 -16zM437 860h80l90 -132
h-52l-76 87l-150 -87h-51z" />
    <glyph glyph-name="gcircumflex" unicode="&#x11d;" horiz-adv-x="427" 
d="M234 458h214l-5 -33h-126v-2q66 -41 66 -122q0 -75 -54 -129q-18 -18 -48 -30t-46 -15l-54 -8q-87 -12 -87 -46q0 -17 17 -25t75 -21l57 -15q8 -2 48 -16q28 -11 43 -23q37 -31 37 -74q0 -54 -52.5 -91.5t-147.5 -37.5q-86 0 -133.5 32t-47.5 80q0 80 154 117v2
q-92 18 -92 68t92 67v2q-45 16 -70.5 54t-25.5 88q0 72 54 125q56 53 132 53zM90 278q0 -46 29 -83q30 -36 81 -36q39 0 68 17t43.5 42t21 48t6.5 41q0 51 -36 82q-35 32 -79 32q-54 0 -94 -43q-40 -41 -40 -100zM189 -18q-75 -12 -116 -40.5t-41 -66.5q0 -33 36 -52.5
t97 -19.5q80 0 122 26t42 67q0 32 -33 51.5t-107 34.5zM302 703h56l9 -197h-36l-21 135l-149 -135h-39z" />
    <glyph glyph-name="Gbreve" unicode="&#x11e;" horiz-adv-x="614" 
d="M634 675l-6 -45q-70 15 -125 15q-191 0 -303 -105t-112 -257q0 -109 67 -177q68 -69 173 -69q73 0 165 46l22 152h-153l6 46h200l-31 -221q-101 -69 -215 -69t-200 79q-86 80 -86 217q0 158 121 277q59 59 150.5 93t199.5 34q66 0 127 -16zM310 846h55q9 -30 36 -48.5
t56 -18.5q66 0 127 67h56q-33 -54 -84 -86t-104 -32t-93 32t-49 86z" />
    <glyph glyph-name="gbreve" unicode="&#x11f;" horiz-adv-x="427" 
d="M234 458h214l-5 -33h-126v-2q66 -41 66 -122q0 -75 -54 -129q-18 -18 -48 -30t-46 -15l-54 -8q-87 -12 -87 -46q0 -17 17 -25t75 -21l57 -15q8 -2 48 -16q28 -11 43 -23q37 -31 37 -74q0 -54 -52.5 -91.5t-147.5 -37.5q-86 0 -133.5 32t-47.5 80q0 80 154 117v2
q-92 18 -92 68t92 67v2q-45 16 -70.5 54t-25.5 88q0 72 54 125q56 53 132 53zM90 278q0 -46 29 -83q30 -36 81 -36q39 0 68 17t43.5 42t21 48t6.5 41q0 51 -36 82q-35 32 -79 32q-54 0 -94 -43q-40 -41 -40 -100zM189 -18q-75 -12 -116 -40.5t-41 -66.5q0 -33 36 -52.5
t97 -19.5q80 0 122 26t42 67q0 32 -33 51.5t-107 34.5zM368 633h36q-18 -58 -55.5 -92.5t-82.5 -34.5q-48 0 -77.5 35t-30.5 92h41q5 -83 65 -83q28 0 57 23.5t47 59.5z" />
    <glyph glyph-name="Gdotaccent" unicode="&#x120;" horiz-adv-x="615" 
d="M637 675l-6 -45q-70 15 -125 15q-190 0 -303 -105q-112 -105 -112 -257q0 -109 67 -177q67 -69 173 -69q73 0 165 46l22 152h-153l6 46h200l-31 -221q-101 -69 -215 -69t-200 79q-86 80 -86 217q0 158 121 277q59 59 150.5 93t199.5 34q66 0 127 -16zM462 815
q27 1 38.5 -21.5t0.5 -45t-38 -21.5q-19 0 -31.5 12.5t-12.5 31.5t12.5 31.5t30.5 12.5z" />
    <glyph glyph-name="gdotaccent" unicode="&#x121;" horiz-adv-x="427" 
d="M234 458h214l-5 -33h-126v-2q66 -41 66 -122q0 -75 -54 -129q-18 -18 -48 -30t-46 -15l-54 -8q-87 -12 -87 -46q0 -17 17 -25t75 -21l57 -15q8 -2 48 -16q28 -11 43 -23q37 -31 37 -74q0 -54 -52.5 -91.5t-147.5 -37.5q-86 0 -133.5 32t-47.5 80q0 80 154 117v2
q-92 18 -92 68t92 67v2q-45 16 -70.5 54t-25.5 88q0 72 54 125q56 53 132 53zM90 278q0 -46 29 -83q30 -36 81 -36q39 0 68 17t43.5 42t21 48t6.5 41q0 51 -36 82q-35 32 -79 32q-54 0 -94 -43q-40 -41 -40 -100zM189 -18q-75 -12 -116 -40.5t-41 -66.5q0 -33 36 -52.5
t97 -19.5q80 0 122 26t42 67q0 32 -33 51.5t-107 34.5zM231 624q13 13 31 13t31 -13t13 -31t-13 -31t-31 -13t-31 13t-13 31t13 31z" />
    <glyph glyph-name="Gcommaaccent" unicode="&#x122;" horiz-adv-x="614" 
d="M634 675l-6 -45q-70 15 -125 15q-191 0 -303 -105t-112 -257q0 -109 67 -177q68 -69 173 -69q73 0 165 46l22 152h-153l6 46h200l-31 -221q-101 -69 -215 -69t-200 79q-86 80 -86 217q0 158 121 277q59 59 150.5 93t199.5 34q66 0 127 -16zM196 -189l13 35q126 -9 126 53
q0 42 -102 36l7 37q22 2 30 2q113 0 113 -70q0 -25 -13 -45t-32 -30q-16 -10 -43 -15q-28 -6 -63 -6q-3 0 -36 3z" />
    <glyph glyph-name="gcommaaccent" unicode="&#x123;" horiz-adv-x="426" 
d="M267 458h181l-5 -33h-127q20 -11 31 -26q35 -41 35 -99q0 -25 -11 -58q-23 -92 -146 -116q-5 -2 -39 -6l-39 -6q-56 -11 -56 -41q0 -17 17 -25q12 -5 81 -23q29 -6 54 -14q12 -3 48 -16q40 -15 58.5 -37t21.5 -59q0 -54 -52.5 -91.5t-147.5 -37.5q-48 0 -84 10t-54 23
t-28.5 30.5t-12.5 28t-2 19.5q0 42 39 68.5t115 46.5q-92 18 -92 70q0 51 92 71q-64 24 -83 78q-13 38 -13 65q-2 41 24 87.5t80 73.5q39 17 115 17zM338 304q0 58 -37 88q-36 30 -77 30q-53 0 -93 -43q-39 -42 -39 -100q0 -46 29 -83q30 -36 81 -36q62 0 99 42
q37 41 37 102zM186 -18q-44 -9 -94 -29q-60 -26 -60 -77q0 -34 37 -53t98 -19q105 0 137 37q27 27 27 56q0 61 -145 85zM281 508h-52l7 52q6 44 24 75q25 45 57 55l-3 -25q-34 -31 -39 -77h18z" />
    <glyph glyph-name="Hcircumflex" unicode="&#x124;" horiz-adv-x="693" 
d="M631 682h47l-96 -682h-47l45 325h-448l-45 -325h-47l95 682h47l-44 -311h449zM407 860h80l90 -132h-52l-76 87l-150 -87h-51z" />
    <glyph glyph-name="hcircumflex" unicode="&#x125;" horiz-adv-x="458" 
d="M119 682h44l-45 -324l2 -2q50 53 90 77.5t87 24.5q57 0 89 -40t24 -100l-45 -318h-44l43 313q6 52 -15 78t-59 26q-42 0 -79 -25q-35 -22 -101 -90l-43 -302h-44zM318 915h56l9 -197h-36l-21 135l-149 -135h-39z" />
    <glyph glyph-name="Hbar" unicode="&#x126;" horiz-adv-x="698" 
d="M682 682l-21 -139h80l-7 -43h-79l-74 -500h-48l48 325h-446l-48 -325h-48l75 500h-80l7 43h79l21 139h47l-21 -139h447l21 139h47zM587 367l20 133h-446l-20 -133h446z" />
    <glyph glyph-name="hbar" unicode="&#x127;" horiz-adv-x="458" 
d="M168 682l-15 -104h172l-6 -40h-171l-25 -180l27 26q23 23 31 29q60 45 116 45q54 0 84 -32t30 -79q0 -23 -3 -45l-44 -302h-44l44 293q0 10 1 24q0 6 0.5 12t1 9.5t0.5 4.5q0 34 -22.5 54.5t-53.5 20.5q-58 0 -123 -56q-5 -4 -30 -32l-26 -28l-44 -302h-44l78 538h-74
l6 40h74l15 104h45z" />
    <glyph glyph-name="Itilde" unicode="&#x128;" horiz-adv-x="198" 
d="M136 682h47l-96 -682h-47zM57 728h-41q3 50 12 69q29 51 79 51q22 0 39.5 -7t54.5 -29q49 -27 68 -27q21 3 29 17.5t11 44.5h38q2 -57 -24 -89t-66 -32q-31 0 -87 31q-60 33 -73 33q-37 0 -40 -62z" />
    <glyph glyph-name="itilde" unicode="&#x129;" horiz-adv-x="177" 
d="M270 649h31q-9 -95 -80 -95q-31 0 -91 25q-58 24 -85 24q-20 0 -29.5 -10t-10.5 -38h-31q-6 43 19 70.5t64 27.5q26 0 86 -24q63 -25 85 -25q20 0 29.5 10t12.5 35zM100 449h44l-63 -449h-44z" />
    <glyph glyph-name="Imacron" unicode="&#x12a;" horiz-adv-x="198" 
d="M136 682h47l-96 -682h-47zM21 796h319l-9 -50h-319z" />
    <glyph glyph-name="imacron" unicode="&#x12b;" horiz-adv-x="177" 
d="M94 449h44l-63 -449h-44zM6 623h267l-7 -51h-267z" />
    <glyph glyph-name="Ibreve" unicode="&#x12c;" horiz-adv-x="198" 
d="M136 682h47l-96 -682h-47zM18 846h55q9 -30 36 -48.5t56 -18.5q66 0 127 67h56q-33 -54 -84 -86t-104 -32t-93 32t-49 86z" />
    <glyph glyph-name="ibreve" unicode="&#x12d;" horiz-adv-x="177" 
d="M94 449h44l-63 -449h-44zM228 633h36q-18 -58 -55.5 -92.5t-82.5 -34.5q-48 0 -77.5 35t-30.5 92h41q5 -83 65 -83q28 0 57 23.5t47 59.5z" />
    <glyph glyph-name="Iogonek" unicode="&#x12e;" horiz-adv-x="198" 
d="M154 -133l-7 -45q-27 -8 -53 -8q-49 0 -78 26t-29 61q0 51 48 109l101 672h47l-101 -682q-38 -47 -38 -86q0 -21 18 -36.5t46 -15.5q11 0 46 5z" />
    <glyph glyph-name="iogonek" unicode="&#x12f;" horiz-adv-x="177" 
d="M139 -120l-6 -41q-27 -7 -48 -7q-43 0 -69.5 23t-26.5 55q0 49 41 96l65 443h44l-65 -449q-33 -46 -33 -77q0 -19 16 -33t41 -14q21 0 41 4zM123 643h44l-10 -73h-44z" />
    <glyph glyph-name="Idot" unicode="&#x130;" horiz-adv-x="198" 
d="M136 682h47l-96 -682h-47zM179 815q27 1 38.5 -21.5t0.5 -45t-38 -21.5q-19 0 -31.5 12.5t-12.5 31.5t12.5 31.5t30.5 12.5z" />
    <glyph glyph-name="dotlessi" unicode="&#x131;" horiz-adv-x="177" 
d="M94 449h44l-63 -449h-44z" />
    <glyph glyph-name="IJ" unicode="&#x132;" horiz-adv-x="396" 
d="M142 682h47l-101 -682h-48zM342 682h47l-105 -711q-13 -94 -36 -130q-45 -72 -133 -72q-28 0 -58 8l-9 49q25 -11 64 -11q67 0 93 50q21 37 33 112z" />
    <glyph glyph-name="ij" unicode="&#x133;" horiz-adv-x="354" 
d="M122 643h44l-10 -74h-44zM94 449h44l-65 -449h-44zM300 643h44l-11 -74h-44zM272 449h44l-65 -449q-10 -61 -11 -63q-2 -12 -11 -54q-7 -34 -18 -49q-16 -30 -45 -49t-69 -16q-27 0 -56 9l8 40q30 -8 44 -8q46 0 70 35q12 16 19 40q10 32 20 99z" />
    <glyph glyph-name="Jcircumflex" unicode="&#x134;" horiz-adv-x="198" 
d="M140 682h46l-106 -748q-23 -164 -164 -164q-27 0 -57 8l-9 49q27 -10 65 -10q56 0 84.5 36.5t41.5 124.5zM169 860h80l90 -132h-52l-76 87l-150 -87h-51z" />
    <glyph glyph-name="jcircumflex" unicode="&#x135;" horiz-adv-x="177" 
d="M95 449h44l-66 -449q-4 -29 -8 -54q-4 -24 -10 -48q-6 -32 -13 -44q-19 -48 -43 -63q-35 -22 -79 -22q-28 0 -56 9l7 40q32 -8 45 -8q44 0 70 34q11 14 18 41q9 29 12 45l9 54zM143 693h56l9 -197h-37l-19 129l-149 -129h-40z" />
    <glyph glyph-name="Kcommaaccent" unicode="&#x136;" horiz-adv-x="567" 
d="M508 682h69l-375 -312l359 -370h-62l-360 370l-52 -370h-47l96 682h47l-42 -300zM133 -189l13 35q126 -9 126 53q0 42 -102 36l7 37q22 2 30 2q113 0 113 -70q0 -25 -13 -45t-32 -30q-16 -10 -43 -15q-28 -6 -63 -6q-3 0 -36 3z" />
    <glyph glyph-name="kcommaaccent" unicode="&#x137;" horiz-adv-x="438" 
d="M119 682h44l-63 -444l268 211h66l-268 -211l280 -238h-63l-283 238l-33 -238h-44zM99 -172l11 38q40 -6 64 8.5t24 39.5q0 28 -39 24l10 35q75 7 75 -61q0 -39 -34 -67q-35 -29 -111 -17z" />
    <glyph glyph-name="kgreenlandic" unicode="&#x138;" horiz-adv-x="427" 
d="M89 449h43l-30 -209l265 209h66l-268 -209l280 -240h-63l-280 240l-36 -240h-44z" />
    <glyph glyph-name="Lacute" unicode="&#x139;" horiz-adv-x="420" 
d="M136 682h47l-90 -636h306l-6 -46h-353zM250 855h126l-202 -127h-46z" />
    <glyph glyph-name="lacute" unicode="&#x13a;" horiz-adv-x="169" 
d="M119 682h44l-96 -682h-44zM182 872h80l-152 -154h-33z" />
    <glyph glyph-name="Lcommaaccent" unicode="&#x13b;" horiz-adv-x="420" 
d="M136 682h47l-90 -636h306l-6 -46h-353zM88 -189l13 35q126 -9 126 53q0 42 -102 36l7 37q22 2 30 2q113 0 113 -70q0 -25 -13 -45t-32 -30q-16 -10 -43 -15q-28 -6 -63 -6q-3 0 -36 3z" />
    <glyph glyph-name="lcommaaccent" unicode="&#x13c;" horiz-adv-x="171" 
d="M119 682h44l-96 -682h-44zM-43 -172l11 38q40 -6 64 8.5t24 39.5q0 28 -39 24l10 35q75 7 75 -61q0 -39 -34 -67q-35 -29 -111 -17z" />
    <glyph glyph-name="Lcaron" unicode="&#x13d;" horiz-adv-x="420" 
d="M140 682h46l-95 -639h305l-7 -43h-352zM342 682h59l-8 -60q-6 -47 -26 -83q-30 -50 -65 -62l4 29q38 34 43 85h-20z" />
    <glyph glyph-name="lcaron" unicode="&#x13e;" horiz-adv-x="189" 
d="M122 682h44l-101 -682h-44zM215 691h58l-8 -60q-6 -47 -26 -83q-30 -50 -65 -62l5 29q38 35 42 85h-20z" />
    <glyph glyph-name="Ldot" unicode="&#x13f;" horiz-adv-x="420" 
d="M141 682h48l-95 -639h305l-7 -43h-352zM274 282q-18 0 -30.5 12.5t-12.5 31.5q0 18 12 30.5t30 12.5q27 2 38 -20.5t0 -45t-37 -21.5z" />
    <glyph glyph-name="ldot" unicode="&#x140;" horiz-adv-x="271" 
d="M128 682h44l-101 -682h-44zM212 378q19 0 31.5 -12.5t12.5 -30.5t-12.5 -31t-30.5 -13t-30.5 12.5t-12.5 30.5t12 31t30 13z" />
    <glyph glyph-name="Lslash" unicode="&#x141;" horiz-adv-x="417" 
d="M300 468l-170 -143l-40 -279h306l-6 -46h-353l41 289l-83 -70l9 49l81 68l48 346h47l-43 -309l170 142z" />
    <glyph glyph-name="lslash" unicode="&#x142;" horiz-adv-x="172" 
d="M209 408l-94 -75l-47 -333h-44l42 299l-87 -69l6 39l87 69l48 344h44l-43 -310l93 75z" />
    <glyph glyph-name="Nacute" unicode="&#x143;" horiz-adv-x="676" 
d="M614 682h47l-97 -688h-21l-374 588l-82 -582h-47l96 682h27l369 -584zM482 855h126l-202 -127h-46z" />
    <glyph glyph-name="nacute" unicode="&#x144;" horiz-adv-x="457" 
d="M91 449h44l-10 -74l2 -2q85 85 171 85q55 0 87 -44t24 -106l-43 -308h-44l42 302q8 55 -13.5 85t-64.5 30q-74 0 -169 -98l-45 -319h-44zM345 660h80l-152 -154h-33z" />
    <glyph glyph-name="Ncommaaccent" unicode="&#x145;" horiz-adv-x="676" 
d="M614 682h47l-97 -688h-21l-374 588l-82 -582h-47l96 682h27l369 -584zM200 -189l13 35q126 -9 126 53q0 42 -102 36l7 37q22 2 30 2q113 0 113 -70q0 -25 -13 -45t-32 -30q-16 -10 -43 -15q-28 -6 -63 -6q-3 0 -36 3z" />
    <glyph glyph-name="ncommaaccent" unicode="&#x146;" horiz-adv-x="457" 
d="M91 449h44l-10 -74l2 -2q85 85 171 85q55 0 87 -44t24 -106l-43 -308h-44l42 302q8 55 -13.5 85t-64.5 30q-74 0 -169 -98l-45 -319h-44zM115 -172l11 38q40 -6 64 8.5t24 39.5q0 28 -39 24l10 35q75 7 75 -61q0 -39 -34 -67q-35 -29 -111 -17z" />
    <glyph glyph-name="Ncaron" unicode="&#x147;" horiz-adv-x="676" 
d="M614 682h47l-97 -688h-21l-374 588l-82 -582h-47l96 682h27l369 -584zM444 728h-80l-90 132h52l76 -87l150 87h51z" />
    <glyph glyph-name="ncaron" unicode="&#x148;" horiz-adv-x="457" 
d="M91 449h44l-10 -74l2 -2q85 85 171 85q55 0 87 -44t24 -106l-43 -308h-44l42 302q8 55 -13.5 85t-64.5 30q-74 0 -169 -98l-45 -319h-44zM292 506h-56l-9 197h36l21 -135l149 135h39z" />
    <glyph glyph-name="napostrophe" unicode="&#x149;" horiz-adv-x="482" 
d="M114 449h44l-12 -77q30 33 76 59q48 27 97 27q48 0 80.5 -34t32.5 -85q0 -31 -3 -46l-46 -293h-43l43 275q5 33 5 60q0 38 -22.5 60t-56.5 22q-37 0 -80 -25q-65 -38 -91 -73l-47 -319h-44zM57 682h59l-8 -60q-7 -48 -27 -83q-27 -49 -64 -62l4 29q38 34 43 85h-21z" />
    <glyph glyph-name="Eng" unicode="&#x14a;" horiz-adv-x="666" 
d="M356 -2l-5 46q31 -7 57 -7q61 0 89 34q30 36 43 128l32 219q13 86 -34 157t-146 71q-66 0 -126 -39.5t-105 -113.5l-75 -493h-47l102 682h47l-15 -104q90 113 234 113q100 0 165 -80q66 -80 47 -204l-37 -243q-14 -91 -55.5 -132t-112.5 -41q-26 0 -58 7z" />
    <glyph glyph-name="eng" unicode="&#x14b;" horiz-adv-x="458" 
d="M151 -221l8 39q29 -8 44 -8q52 0 77 46q17 30 32 128l48 291q5 45 5 56q0 24 -8 41.5t-18 25.5t-23.5 13t-19.5 5.5t-11 0.5q-36 0 -79 -25q-65 -38 -91 -73l-47 -319h-45l67 449h44l-11 -77q30 33 76 59q48 27 97 27q48 0 80.5 -34t32.5 -85q0 -23 -3 -46l-45 -293
q-7 -44 -10 -58q-4 -23 -10 -49q-6 -32 -13 -44q-23 -48 -44 -60q-35 -20 -80 -20q-29 0 -53 10z" />
    <glyph glyph-name="Omacron" unicode="&#x14c;" horiz-adv-x="628" 
d="M608 415q0 -176 -91 -300t-231 -124q-116 0 -178.5 74t-62.5 209q0 51 10.5 106t36 111t61.5 100t92.5 72t124.5 28q109 0 174 -74q64 -73 64 -202zM556 426q0 101 -50 160t-136 59q-58 0 -107.5 -26.5t-80.5 -70.5q-42 -60 -64.5 -141t-20.5 -148q0 -106 50 -164
t140 -58q124 0 196 113q73 113 73 276zM244 796h319l-9 -50h-319z" />
    <glyph glyph-name="omacron" unicode="&#x14d;" horiz-adv-x="421" 
d="M387 270q0 -127 -65 -204q-64 -75 -149 -75q-65 0 -110 49q-45 50 -45 140q0 121 59 200q58 78 152 78q73 0 115.5 -51t42.5 -137zM340 270q0 67 -30.5 107t-82.5 40t-89.5 -35.5t-55 -88t-17.5 -114.5q0 -68 28.5 -107.5t77.5 -39.5q69 0 119 69q50 71 50 169zM134 623
h267l-7 -51h-267z" />
    <glyph glyph-name="Obreve" unicode="&#x14e;" horiz-adv-x="628" 
d="M608 415q0 -176 -91 -300t-231 -124q-116 0 -178.5 74t-62.5 209q0 51 10.5 106t36 111t61.5 100t92.5 72t124.5 28q109 0 174 -74q64 -73 64 -202zM556 426q0 101 -50 160t-136 59q-58 0 -107.5 -26.5t-80.5 -70.5q-42 -60 -64.5 -141t-20.5 -148q0 -106 50 -164
t140 -58q124 0 196 113q73 113 73 276zM237 846h55q9 -30 36 -48.5t56 -18.5q66 0 127 67h56q-33 -54 -84 -86t-104 -32t-93 32t-49 86z" />
    <glyph glyph-name="obreve" unicode="&#x14f;" horiz-adv-x="421" 
d="M387 270q0 -127 -65 -204q-64 -75 -149 -75q-65 0 -110 49q-45 50 -45 140q0 121 59 200q58 78 152 78q73 0 115.5 -51t42.5 -137zM340 270q0 67 -30.5 107t-82.5 40t-89.5 -35.5t-55 -88t-17.5 -114.5q0 -68 28.5 -107.5t77.5 -39.5q69 0 119 69q50 71 50 169zM346 633
h36q-18 -58 -55.5 -92.5t-82.5 -34.5q-48 0 -77.5 35t-30.5 92h41q5 -83 65 -83q28 0 57 23.5t47 59.5z" />
    <glyph glyph-name="Ohungarumlaut" unicode="&#x150;" horiz-adv-x="628" 
d="M608 415q0 -176 -91 -300t-231 -124q-116 0 -178.5 74t-62.5 209q0 51 10.5 106t36 111t61.5 100t92.5 72t124.5 28q109 0 174 -74q64 -73 64 -202zM556 426q0 101 -50 160t-136 59q-58 0 -107.5 -26.5t-80.5 -70.5q-42 -60 -64.5 -141t-20.5 -148q0 -106 50 -164
t140 -58q124 0 196 113q73 113 73 276zM355 857h105l-145 -129h-37zM503 857h104l-145 -129h-37z" />
    <glyph glyph-name="ohungarumlaut" unicode="&#x151;" horiz-adv-x="421" 
d="M387 270q0 -127 -65 -204q-64 -75 -149 -75q-65 0 -110 49q-45 50 -45 140q0 121 59 200q58 78 152 78q73 0 115.5 -51t42.5 -137zM340 270q0 67 -30.5 107t-82.5 40t-89.5 -35.5t-55 -88t-17.5 -114.5q0 -68 28.5 -107.5t77.5 -39.5q69 0 119 69q50 71 50 169zM385 660
h80l-152 -154h-33zM251 660h80l-152 -154h-33z" />
    <glyph glyph-name="OE" unicode="&#x152;" horiz-adv-x="972" 
d="M559 682h374l-7 -46h-302l-38 -266h285l-6 -46h-286l-39 -278h407l-6 -46h-570q-75 0 -134 19t-95.5 49t-60.5 70.5t-33.5 79.5t-9.5 80q0 89 34 164q35 77 75 116q67 64 158 90q88 25 254 14zM365 46h128l84 590q-108 4 -139 3q-175 -4 -255 -94q-93 -103 -93 -247
q0 -118 72 -185t203 -67z" />
    <glyph glyph-name="oe" unicode="&#x153;" horiz-adv-x="699" 
d="M632 95l-7 -53q-72 -51 -154 -51q-55 0 -94.5 27t-56.5 77q-60 -104 -155 -104q-64 0 -108 53q-43 53 -43 135q0 113 63 196q65 83 149 83q97 0 131 -100q55 100 150 100q76 0 121 -59q46 -58 28 -164h-295q-5 -45 -5 -66q0 -63 32 -100t87 -37q69 0 157 63zM367 274h251
q8 60 -23 101q-30 42 -83 42q-54 0 -94 -40q-41 -41 -51 -103zM320 290q0 58 -26.5 92.5t-70.5 34.5q-65 0 -114 -69q-48 -69 -48 -163q0 -69 29.5 -111t76.5 -42q70 0 111 77q42 76 42 181z" />
    <glyph glyph-name="Racute" unicode="&#x154;" 
d="M40 0l95 682h156q85 0 134.5 -49t49.5 -128q0 -70 -42.5 -120t-114.5 -65q25 -18 70 -98l124 -222h-55l-114 204l-33 60q-17 31 -24 35q-21 17 -24 17t-9.5 1.5t-13 2t-13.5 0.5h-15h-79l-45 -320h-47zM287 638h-111l-38 -274h103h21q75 0 118 37.5t43 102.5q0 51 -32 92
q-32 42 -104 42zM369 855h126l-202 -127h-46z" />
    <glyph glyph-name="racute" unicode="&#x155;" horiz-adv-x="309" 
d="M91 449h44l-17 -123l2 -2q53 75 86 105q32 29 72 29q23 0 44 -9v-44q-26 12 -46 12q-64 0 -166 -150l-38 -267h-44zM263 660h80l-152 -154h-33z" />
    <glyph glyph-name="Rcommaaccent" unicode="&#x156;" 
d="M40 0l95 682h156q85 0 134.5 -49t49.5 -128q0 -70 -42.5 -120t-114.5 -65q25 -18 70 -98l124 -222h-55l-114 204l-33 60q-17 31 -24 35q-21 17 -24 17t-9.5 1.5t-13 2t-13.5 0.5h-15h-79l-45 -320h-47zM287 638h-111l-38 -274h103h21q75 0 118 37.5t43 102.5q0 51 -32 92
q-32 42 -104 42zM122 -189l13 35q126 -9 126 53q0 42 -102 36l7 37q22 2 30 2q113 0 113 -70q0 -25 -13 -45t-32 -30q-16 -10 -43 -15q-28 -6 -63 -6q-3 0 -36 3z" />
    <glyph glyph-name="rcommaaccent" unicode="&#x157;" horiz-adv-x="309" 
d="M91 449h44l-17 -123l2 -2q53 75 86 105q32 29 72 29q23 0 44 -9v-44q-26 12 -46 12q-64 0 -166 -150l-38 -267h-44zM-32 -172l11 38q40 -6 64 8.5t24 39.5q0 28 -39 24l10 35q75 7 75 -61q0 -39 -34 -67q-35 -29 -111 -17z" />
    <glyph glyph-name="Rcaron" unicode="&#x158;" 
d="M40 0l95 682h156q85 0 134.5 -49t49.5 -128q0 -70 -42.5 -120t-114.5 -65q25 -18 70 -98l124 -222h-55l-114 204l-33 60q-17 31 -24 35q-21 17 -24 17t-9.5 1.5t-13 2t-13.5 0.5h-15h-79l-45 -320h-47zM287 638h-111l-38 -274h103h21q75 0 118 37.5t43 102.5q0 51 -32 92
q-32 42 -104 42zM306 728h-80l-90 132h52l76 -87l150 87h51z" />
    <glyph glyph-name="rcaron" unicode="&#x159;" horiz-adv-x="309" 
d="M91 449h44l-17 -123l2 -2q53 75 86 105q32 29 72 29q23 0 44 -9v-44q-26 12 -46 12q-64 0 -166 -150l-38 -267h-44zM225 506h-56l-9 197h36l21 -135l149 135h39z" />
    <glyph glyph-name="Sacute" unicode="&#x15a;" horiz-adv-x="407" 
d="M389 653l-12 -43q-70 35 -113 35q-51 0 -89 -38q-37 -37 -37 -91q0 -14 3 -27.5t6 -23.5t12 -22l13.5 -18t18 -18t18 -15.5t21 -16t19.5 -15.5q52 -37 82 -79t30 -106q0 -79 -54 -132q-52 -52 -133 -52q-34 0 -76.5 13.5t-67.5 32.5l12 46q71 -46 127 -46
q61 0 100.5 37.5t39.5 101.5q0 78 -79 137q-1 1 -18.5 14t-20.5 15.5t-19 15.5t-20.5 18t-17 17.5t-17 20t-12.5 21t-11 24t-5.5 24t-2.5 27.5q0 76 51 129q51 52 127 52q33 0 68.5 -11t56.5 -27zM332 855h126l-202 -127h-46z" />
    <glyph glyph-name="sacute" unicode="&#x15b;" horiz-adv-x="354" 
d="M331 416v-49q-80 50 -146 50q-38 0 -65 -18.5t-27 -45.5q0 -28 34 -56q33 -27 74 -50q41 -21 75 -58t34 -80q0 -50 -43 -84q-41 -34 -104 -34q-81 0 -151 59l14 47q60 -65 139 -65q42 -1 70.5 20.5t28 51.5t-33.5 61q-32 29 -73 52t-73 56q-33 35 -33 73q0 48 41 80
t102 32q71 0 137 -42zM292 660h80l-152 -154h-33z" />
    <glyph glyph-name="Scircumflex" unicode="&#x15c;" horiz-adv-x="407" 
d="M389 653l-12 -43q-70 35 -113 35q-51 0 -89 -38q-37 -37 -37 -91q0 -14 3 -27.5t6 -23.5t12 -22l13.5 -18t18 -18t18 -15.5t21 -16t19.5 -15.5q52 -37 82 -79t30 -106q0 -79 -54 -132q-52 -52 -133 -52q-34 0 -76.5 13.5t-67.5 32.5l12 46q71 -46 127 -46
q61 0 100.5 37.5t39.5 101.5q0 78 -79 137q-1 1 -18.5 14t-20.5 15.5t-19 15.5t-20.5 18t-17 17.5t-17 20t-12.5 21t-11 24t-5.5 24t-2.5 27.5q0 76 51 129q51 52 127 52q33 0 68.5 -11t56.5 -27zM278 860h80l90 -132h-52l-76 87l-150 -87h-51z" />
    <glyph glyph-name="scircumflex" unicode="&#x15d;" horiz-adv-x="354" 
d="M331 416v-49q-80 50 -146 50q-38 0 -65 -18.5t-27 -45.5q0 -28 34 -56q33 -27 74 -50q41 -21 75 -58t34 -80q0 -50 -43 -84q-41 -34 -104 -34q-81 0 -151 59l14 47q60 -65 139 -65q42 -1 70.5 20.5t28 51.5t-33.5 61q-32 29 -73 52t-73 56q-33 35 -33 73q0 48 41 80
t102 32q71 0 137 -42zM266 703h56l9 -197h-36l-21 135l-149 -135h-39z" />
    <glyph glyph-name="Scedilla" unicode="&#x15e;" horiz-adv-x="407" 
d="M203 -7l-12 -24q41 -17 41 -57q0 -17 -10 -36q-27 -60 -136 -60q-19 0 -45 2l14 36q58 -4 91.5 11.5t33.5 43.5q0 30 -51 36l28 47q-30 3 -69 17q-32 12 -56 28l12 46q74 -47 126 -47q61 0 101 38.5t40 98.5q0 39 -18 70q-18 32 -37 48q-18 17 -54 42q-114 81 -114 180
q0 66 47 122q48 56 131 56q39 0 73 -12t52 -26l-12 -43q-67 36 -112 36q-56 0 -92 -40q-36 -39 -36 -89q0 -34 17 -65q18 -30 36 -46q28 -23 63 -49q34 -25 65 -62q43 -49 43 -122q0 -61 -41 -116q-40 -54 -119 -64z" />
    <glyph glyph-name="scedilla" unicode="&#x15f;" horiz-adv-x="354" 
d="M157 -9l-14 -31q56 -17 56 -66q0 -35 -25.5 -57t-57.5 -26t-60.5 -6.5t-35.5 1.5l14 32q117 0 117 56q-2 17 -11.5 25.5t-18.5 10t-26 2.5l28 63q-63 13 -111 55l14 47q63 -65 139 -65q48 0 73 22t25 50q0 36 -40 67q-29 24 -38 29q-28 20 -52 34q-82 52 -82 112
q0 48 41 80t103 32q69 0 136 -42v-49q-82 50 -145 50q-38 0 -64.5 -20t-26.5 -45t20.5 -44.5t73.5 -51.5q35 -21 57 -38q24 -17 44 -48t20 -61q0 -53 -46 -87q-46 -32 -107 -31z" />
    <glyph glyph-name="Scaron" unicode="&#x160;" horiz-adv-x="407" 
d="M389 653l-12 -43q-70 35 -113 35q-51 0 -89 -38q-37 -37 -37 -91q0 -14 3 -27.5t6 -23.5t12 -22l13.5 -18t18 -18t18 -15.5t21 -16t19.5 -15.5q52 -37 82 -79t30 -106q0 -79 -54 -132q-52 -52 -133 -52q-34 0 -76.5 13.5t-67.5 32.5l12 46q71 -46 127 -46
q61 0 100.5 37.5t39.5 101.5q0 78 -79 137q-1 1 -18.5 14t-20.5 15.5t-19 15.5t-20.5 18t-17 17.5t-17 20t-12.5 21t-11 24t-5.5 24t-2.5 27.5q0 76 51 129q51 52 127 52q33 0 68.5 -11t56.5 -27zM304 728h-80l-90 132h52l76 -87l150 87h51z" />
    <glyph glyph-name="scaron" unicode="&#x161;" horiz-adv-x="354" 
d="M331 416v-49q-80 50 -146 50q-38 0 -65 -18.5t-27 -45.5q0 -28 34 -56q33 -27 74 -50q41 -21 75 -58t34 -80q0 -50 -43 -84q-41 -34 -104 -34q-81 0 -151 59l14 47q60 -65 139 -65q42 -1 70.5 20.5t28 51.5t-33.5 61q-32 29 -73 52t-73 56q-33 35 -33 73q0 48 41 80
t102 32q71 0 137 -42zM239 506h-56l-9 197h36l21 -135l149 135h39z" />
    <glyph glyph-name="Tcommaaccent" unicode="&#x162;" horiz-adv-x="458" 
d="M66 682h451l-6 -46h-202l-90 -636h-47l90 636h-202zM91 -189l13 35q126 -9 126 53q0 42 -102 36l7 37q22 2 30 2q113 0 113 -70q0 -25 -13 -45t-32 -30q-16 -10 -43 -15q-28 -6 -63 -6q-3 0 -36 3z" />
    <glyph glyph-name="tcommaaccent" unicode="&#x163;" horiz-adv-x="291" 
d="M36 -172l11 38q40 -6 64 8.5t24 39.5q0 28 -39 24l10 35q75 7 75 -61q0 -39 -34 -67q-35 -29 -111 -17zM154 449h127l-5 -33h-126l-43 -290q-3 -20 -3 -36q0 -64 63 -64q46 0 83 37v-41q-40 -32 -90 -32q-99 0 -99 100q0 21 3 43l43 283h-82l5 33h82l15 103h42z" />
    <glyph glyph-name="Tcaron" unicode="&#x164;" horiz-adv-x="458" 
d="M66 682h451l-6 -46h-202l-90 -636h-47l90 636h-202zM325 728h-80l-90 132h52l76 -87l150 87h51z" />
    <glyph glyph-name="tcaron" unicode="&#x165;" horiz-adv-x="394" 
d="M352 682h58l-8 -60q-6 -47 -26 -83q-30 -50 -65 -62l5 29q38 35 42 85h-20zM154 449h127l-5 -33h-126l-43 -290q-3 -20 -3 -36q0 -64 63 -64q46 0 83 37v-41q-40 -32 -90 -32q-99 0 -99 100q0 21 3 43l43 283h-82l5 33h82l15 103h42z" />
    <glyph glyph-name="Tbar" unicode="&#x166;" horiz-adv-x="458" 
d="M311 640l-42 -277h180l-7 -44h-179l-49 -319h-47l48 319h-180l7 44h179l41 277h-202l7 42h450l-7 -42h-199z" />
    <glyph glyph-name="tbar" unicode="&#x167;" horiz-adv-x="281" 
d="M161 415l-23 -127h127l-8 -40h-127l-8 -42q-13 -68 -13 -104q0 -35 21.5 -56t48.5 -21q43 0 89 38v-41q-46 -31 -93 -31q-22 0 -61 18q-49 26 -49 101q0 33 13 101l7 37h-88l7 40h88l25 127h-87l7 34h85l19 103h44l-18 -103h121l-5 -34h-122z" />
    <glyph glyph-name="Utilde" unicode="&#x168;" horiz-adv-x="632" 
d="M596 682h47l-63 -441q-9 -65 -37 -114.5t-67.5 -78.5t-83.5 -43t-91 -14q-101 0 -169 71q-68 70 -51 183l62 437h47l-61 -430q-15 -106 39 -161q56 -54 141 -54q99 0 155 62q57 61 69 146zM291 728h-41q3 50 12 69q28 51 79 51q22 0 39.5 -7t54.5 -29q49 -27 68 -27
q21 3 29 17.5t11 44.5h38q2 -57 -24 -89t-66 -32q-31 0 -87 31q-60 33 -73 33q-37 0 -40 -62z" />
    <glyph glyph-name="utilde" unicode="&#x169;" horiz-adv-x="458" 
d="M389 449h44l-63 -449h-44l12 79l-2 2q-84 -90 -174 -90q-49 0 -84 35q-34 36 -25 101l45 322h44l-45 -320q-6 -44 15.5 -70.5t63.5 -26.5q75 0 170 107zM414 649h31q-9 -95 -80 -95q-31 0 -91 25q-58 24 -85 24q-20 0 -29.5 -10t-10.5 -38h-31q-6 43 19 70.5t64 27.5
q26 0 86 -24q63 -25 85 -25q20 0 29.5 10t12.5 35z" />
    <glyph glyph-name="Umacron" unicode="&#x16a;" horiz-adv-x="632" 
d="M596 682h47l-63 -441q-9 -65 -37 -114.5t-67.5 -78.5t-83.5 -43t-91 -14q-101 0 -169 71q-68 70 -51 183l62 437h47l-61 -430q-15 -106 39 -161q56 -54 141 -54q99 0 155 62q57 61 69 146zM255 796h319l-9 -50h-319z" />
    <glyph glyph-name="umacron" unicode="&#x16b;" horiz-adv-x="458" 
d="M389 449h44l-63 -449h-44l12 79l-2 2q-84 -90 -174 -90q-49 0 -84 35q-34 36 -25 101l45 322h44l-45 -320q-6 -44 15.5 -70.5t63.5 -26.5q75 0 170 107zM156 623h267l-7 -51h-267z" />
    <glyph glyph-name="Ubreve" unicode="&#x16c;" horiz-adv-x="632" 
d="M596 682h47l-63 -441q-9 -65 -37 -114.5t-67.5 -78.5t-83.5 -43t-91 -14q-101 0 -169 71q-68 70 -51 183l62 437h47l-61 -430q-15 -106 39 -161q56 -54 141 -54q99 0 155 62q57 61 69 146zM254 846h55q9 -30 36 -48.5t56 -18.5q66 0 127 67h56q-33 -54 -84 -86t-104 -32
t-93 32t-49 86z" />
    <glyph glyph-name="ubreve" unicode="&#x16d;" horiz-adv-x="458" 
d="M389 449h44l-63 -449h-44l12 79l-2 2q-84 -90 -174 -90q-49 0 -84 35q-34 36 -25 101l45 322h44l-45 -320q-6 -44 15.5 -70.5t63.5 -26.5q75 0 170 107zM378 633h36q-18 -58 -55.5 -92.5t-82.5 -34.5q-48 0 -77.5 35t-30.5 92h41q5 -83 65 -83q28 0 57 23.5t47 59.5z" />
    <glyph glyph-name="Uring" unicode="&#x16e;" horiz-adv-x="632" 
d="M596 682h47l-63 -441q-9 -65 -37 -114.5t-67.5 -78.5t-83.5 -43t-91 -14q-101 0 -169 71q-68 70 -51 183l62 437h47l-61 -430q-15 -106 39 -161q56 -54 141 -54q99 0 155 62q57 61 69 146zM336 905q31 31 74 31t73 -31q31 -30 31 -73t-31 -74q-30 -30 -73 -30t-74 30
q-30 31 -30 74t30 73zM337 832q0 -29 21 -50.5t51 -21.5t51.5 21.5t21.5 50.5q0 30 -21.5 51t-51.5 21t-51 -21t-21 -51z" />
    <glyph glyph-name="uring" unicode="&#x16f;" horiz-adv-x="458" 
d="M389 449h44l-63 -449h-44l12 79l-2 2q-84 -90 -174 -90q-49 0 -84 35q-34 36 -25 101l45 322h44l-45 -320q-6 -44 15.5 -70.5t63.5 -26.5q75 0 170 107zM242 633q-17 -17 -17 -41t17 -41t41 -17t41 17t17 41t-17 41t-41 17t-41 -17zM222 531q-25 26 -25 61t25 60
q26 26 61 26t60 -26q26 -25 26 -60t-26 -61q-25 -25 -60 -25t-61 25z" />
    <glyph glyph-name="Uhungarumlaut" unicode="&#x170;" horiz-adv-x="635" 
d="M596 682h47l-63 -441q-9 -65 -37 -114.5t-67.5 -78.5t-83.5 -43t-91 -14q-101 0 -169 71q-68 70 -51 183l62 437h47l-61 -430q-15 -106 39 -161q56 -54 141 -54q99 0 155 62q57 61 69 146zM372 857h105l-145 -129h-37zM520 857h104l-145 -129h-37z" />
    <glyph glyph-name="uhungarumlaut" unicode="&#x171;" horiz-adv-x="458" 
d="M389 449h44l-63 -449h-44l12 79l-2 2q-84 -90 -174 -90q-49 0 -84 35q-34 36 -25 101l45 322h44l-45 -320q-6 -44 15.5 -70.5t63.5 -26.5q75 0 170 107zM417 660h80l-152 -154h-33zM283 660h80l-152 -154h-33z" />
    <glyph glyph-name="Uogonek" unicode="&#x172;" horiz-adv-x="632" 
d="M508 -133l-6 -45q-30 -8 -54 -8q-48 0 -77.5 26t-29.5 60q0 52 51 113q-57 -22 -108 -22q-100 0 -162 62q-61 61 -61 140q0 36 8 92l60 397h48l-61 -409q-7 -45 -7 -80q0 -73 54 -117q55 -42 128 -42q51 0 98 22t76 63q41 59 55 154l60 409h48l-61 -415q-11 -73 -30 -114
q-17 -38 -66 -104q-42 -57 -57 -84t-15 -51q0 -21 18 -36.5t45 -15.5q8 0 46 5z" />
    <glyph glyph-name="uogonek" unicode="&#x173;" horiz-adv-x="458" 
d="M427 -120l-6 -41q-27 -7 -48 -7q-43 0 -69.5 23.5t-26.5 54.5q0 46 41 96l11 75q-32 -30 -46 -41q-19 -16 -56 -32q-39 -17 -76 -17q-41 0 -75 28t-34 82q0 24 7 65l42 283h44l-44 -288q-5 -28 -5 -58q0 -34 21.5 -54.5t57.5 -20.5q41 0 81 26t91 85l45 310h44l-64 -449
q-33 -45 -33 -77q0 -19 16 -33t41 -14q20 0 41 4z" />
    <glyph glyph-name="Wcircumflex" unicode="&#x174;" horiz-adv-x="902" 
d="M906 682h51l-332 -691h-20l-106 569h-2l-260 -569h-21l-148 691h47l121 -575h2l265 575h19l107 -575h2zM518 860h80l90 -132h-52l-76 87l-150 -87h-51z" />
    <glyph glyph-name="wcircumflex" unicode="&#x175;" horiz-adv-x="615" 
d="M407 89h2l184 360h44l-237 -458h-16l-60 354h-2l-176 -354h-16l-105 458h42l83 -360h2l178 360h18zM396 703h56l9 -197h-36l-21 135l-149 -135h-39z" />
    <glyph glyph-name="Ycircumflex" unicode="&#x176;" horiz-adv-x="461" 
d="M472 682h57l-255 -329l-49 -353h-47l49 353l-171 329h51l149 -282zM293 860h80l90 -132h-52l-76 87l-150 -87h-51z" />
    <glyph glyph-name="ycircumflex" unicode="&#x177;" horiz-adv-x="375" 
d="M349 449h47l-355 -679h-49l125 236l-85 443h44l71 -383h2zM280 703h56l9 -197h-36l-21 135l-149 -135h-39z" />
    <glyph glyph-name="Ydieresis" unicode="&#x178;" horiz-adv-x="461" 
d="M472 682h57l-255 -329l-49 -353h-47l49 353l-171 329h51l149 -282zM469 771q0 -17 -13 -31t-32 -14q-18 0 -31 13t-13 31t12.5 31t30.5 13q20 0 33 -12.5t13 -30.5zM179 727q-18 0 -30.5 12.5t-12.5 31.5t12.5 31.5t29.5 12.5q28 1 39.5 -21.5t0 -45t-38.5 -21.5z" />
    <glyph glyph-name="Zacute" unicode="&#x179;" horiz-adv-x="622" 
d="M652 666l-570 -620h483l-6 -46h-566v16l570 620h-461l6 46h544v-16zM436 855h126l-202 -127h-46z" />
    <glyph glyph-name="zacute" unicode="&#x17a;" horiz-adv-x="427" 
d="M70 449h366v-19l-371 -391h314l-6 -39h-391v18l376 392h-294zM313 660h80l-152 -154h-33z" />
    <glyph glyph-name="Zdotaccent" unicode="&#x17b;" horiz-adv-x="622" 
d="M652 666l-570 -620h483l-6 -46h-566v16l570 620h-461l6 46h544v-16zM397 815q27 1 38.5 -21.5t0.5 -45t-38 -21.5q-19 0 -31.5 12.5t-12.5 31.5t12.5 31.5t30.5 12.5z" />
    <glyph glyph-name="zdotaccent" unicode="&#x17c;" horiz-adv-x="427" 
d="M70 449h366v-19l-371 -391h314l-6 -39h-391v18l376 392h-294zM231 624q13 13 31 13t31 -13t13 -31t-13 -31t-31 -13t-31 13t-13 31t13 31z" />
    <glyph glyph-name="Zcaron" unicode="&#x17d;" horiz-adv-x="622" 
d="M652 666l-570 -620h483l-6 -46h-566v16l570 620h-461l6 46h544v-16zM408 728h-80l-90 132h52l76 -87l150 87h51z" />
    <glyph glyph-name="zcaron" unicode="&#x17e;" horiz-adv-x="427" 
d="M70 449h366v-19l-371 -391h314l-6 -39h-391v18l376 392h-294zM275 506h-56l-9 197h36l21 -135l149 135h39z" />
    <glyph glyph-name="florin" unicode="&#x192;" horiz-adv-x="552" 
d="M375 589l-16 -68h109l-11 -47h-107l-121 -557q-15 -70 -45.5 -98.5t-89.5 -28.5q-38 0 -87 15l11 49q46 -11 71 -11q34 0 52 16t27 57l120 558h-82l9 47h82l24 104q25 105 129 105q32 0 89 -16l-10 -48q-39 10 -75 10q-35 0 -51 -18.5t-28 -68.5z" />
    <glyph glyph-name="AEacute" unicode="&#x1fc;" horiz-adv-x="800" 
d="M373 682h389l-6 -46h-292l-38 -267h272l-6 -46h-272l-40 -277h395l-6 -46h-442l46 323h-173l-204 -323h-53zM379 369l38 267h-19l-169 -267h150zM659 855h126l-202 -127h-46z" />
    <glyph glyph-name="aeacute" unicode="&#x1fd;" horiz-adv-x="658" 
d="M591 94l-7 -51q-27 -20 -74 -37q-45 -15 -79 -15q-47 0 -88 24q-41 26 -54 61q-36 -37 -85 -61t-89 -24q-44 0 -72 26.5t-28 66.5q0 68 77 116q78 49 200 57l7 61q5 44 -16 71.5t-66 27.5q-75 0 -158 -78l-9 42q86 77 173 77q73 0 109 -71q57 71 132 71q81 0 123 -65
q43 -64 30 -158h-287q-14 -86 -14 -107q0 -43 31 -69.5t80 -26.5q79 0 164 62zM334 274h243q7 61 -24.5 102t-85.5 41q-52 0 -87 -36.5t-46 -106.5zM270 105l16 116q-98 -11 -163 -46q-66 -35 -66 -90q0 -22 18 -37.5t44 -15.5q65 0 151 73zM428 660h80l-152 -154h-33z" />
    <glyph glyph-name="Oslashacute" unicode="&#x1fe;" horiz-adv-x="628" 
d="M148 28l-40 -62l-29 18l43 66q-35 31 -56 89t-21 135q0 51 10.5 106t36 111t61.5 100t92.5 72t124.5 28q42 0 81 -12.5t58 -30.5l33 51l26 -17l-34 -53q74 -77 74 -214q0 -176 -91 -300t-231 -124q-74 0 -138 37zM149 93l334 515q-46 37 -113 37q-58 0 -107.5 -26.5
t-80.5 -70.5q-42 -60 -64.5 -141t-20.5 -148q0 -105 52 -166zM506 585l-330 -514q41 -34 111 -34q124 0 196 113q73 113 73 276q0 100 -50 159zM435 855h126l-202 -127h-46z" />
    <glyph glyph-name="oslashacute" unicode="&#x1ff;" horiz-adv-x="421" 
d="M317 434l41 64l31 -21l-44 -69q44 -50 44 -138q0 -127 -65 -204q-64 -75 -149 -75q-37 0 -83 24l-42 -65l-32 19l46 71q-44 56 -44 140q0 121 59 200q59 78 152 78q49 0 86 -24zM318 367l-203 -317q31 -18 58 -18q69 0 119 69q50 71 50 169q0 60 -24 97zM90 81l203 316
q-32 20 -64 20q-50 0 -88 -34t-57 -90q-17 -54 -17 -114q0 -61 23 -98zM308 660h80l-152 -154h-33z" />
    <glyph glyph-name="Scommaaccent" unicode="&#x218;" horiz-adv-x="407" 
d="M389 653l-12 -43q-70 35 -113 35q-51 0 -89 -38q-37 -37 -37 -91q0 -14 3 -27.5t6 -23.5t12 -22l13.5 -18t18 -18t18 -15.5t21 -16t19.5 -15.5q52 -37 82 -79t30 -106q0 -79 -54 -132q-52 -52 -133 -52q-34 0 -76.5 13.5t-67.5 32.5l12 46q71 -46 127 -46
q61 0 100.5 37.5t39.5 101.5q0 78 -79 137q-1 1 -18.5 14t-20.5 15.5t-19 15.5t-20.5 18t-17 17.5t-17 20t-12.5 21t-11 24t-5.5 24t-2.5 27.5q0 76 51 129q51 52 127 52q33 0 68.5 -11t56.5 -27zM50 -189l13 35q126 -9 126 53q0 42 -102 36l7 37q22 2 30 2q113 0 113 -70
q0 -25 -13 -45t-32 -30q-16 -10 -43 -15q-28 -6 -63 -6q-3 0 -36 3z" />
    <glyph glyph-name="scommaaccent" unicode="&#x219;" horiz-adv-x="354" 
d="M331 416v-49q-80 50 -146 50q-38 0 -65 -18.5t-27 -45.5q0 -28 34 -56q33 -27 74 -50q41 -21 75 -58t34 -80q0 -50 -43 -84q-41 -34 -104 -34q-81 0 -151 59l14 47q60 -65 139 -65q42 -1 70.5 20.5t28 51.5t-33.5 61q-32 29 -73 52t-73 56q-33 35 -33 73q0 48 41 80
t102 32q71 0 137 -42zM46 -172l11 38q40 -6 64 8.5t24 39.5q0 28 -39 24l10 35q75 7 75 -61q0 -39 -34 -67q-35 -29 -111 -17z" />
    <glyph glyph-name="uni021A" unicode="&#x21a;" horiz-adv-x="458" 
d="M66 682h451l-6 -46h-202l-90 -636h-47l90 636h-202zM91 -189l13 35q126 -9 126 53q0 42 -102 36l7 37q22 2 30 2q113 0 113 -70q0 -25 -13 -45t-32 -30q-16 -10 -43 -15q-28 -6 -63 -6q-3 0 -36 3z" />
    <glyph glyph-name="uni021B" unicode="&#x21b;" horiz-adv-x="291" 
d="M36 -172l11 38q40 -6 64 8.5t24 39.5q0 28 -39 24l10 35q75 7 75 -61q0 -39 -34 -67q-35 -29 -111 -17zM154 449h127l-5 -33h-126l-43 -290q-3 -20 -3 -36q0 -64 63 -64q46 0 83 37v-41q-40 -32 -90 -32q-99 0 -99 100q0 21 3 43l43 283h-82l5 33h82l15 103h42z" />
    <glyph glyph-name="circumflex" unicode="&#x2c6;" horiz-adv-x="333" 
d="M255 703h56l9 -197h-36l-21 135l-149 -135h-39z" />
    <glyph glyph-name="caron" unicode="&#x2c7;" horiz-adv-x="333" 
d="M228 506h-56l-9 197h36l21 -135l149 135h39z" />
    <glyph glyph-name="uni02C9" unicode="&#x2c9;" horiz-adv-x="333" 
d="M84 623h267l-7 -51h-267z" />
    <glyph glyph-name="breve" unicode="&#x2d8;" horiz-adv-x="333" 
d="M306 633h36q-18 -58 -55.5 -92.5t-82.5 -34.5q-48 0 -77.5 35t-30.5 92h41q5 -83 65 -83q28 0 57 23.5t47 59.5z" />
    <glyph glyph-name="dotaccent" unicode="&#x2d9;" horiz-adv-x="333" 
d="M184 624q13 13 31 13t31 -13t13 -31t-13 -31t-31 -13t-31 13t-13 31t13 31z" />
    <glyph glyph-name="ring" unicode="&#x2da;" horiz-adv-x="333" 
d="M170 633q-17 -17 -17 -41t17 -41t41 -17t41 17t17 41t-17 41t-41 17t-41 -17zM150 531q-25 26 -25 61t25 60q26 26 61 26t60 -26q26 -25 26 -60t-26 -61q-25 -25 -60 -25t-61 25z" />
    <glyph glyph-name="ogonek" unicode="&#x2db;" horiz-adv-x="333" 
d="M201 -120l-6 -41q-27 -7 -48 -7q-41 0 -68.5 22.5t-27.5 56.5q0 46 44 99h48q-44 -56 -44 -89q0 -20 17.5 -34t42.5 -14q15 0 42 7z" />
    <glyph glyph-name="tilde" unicode="&#x2dc;" horiz-adv-x="333" 
d="M348 649h31q-9 -95 -80 -95q-31 0 -91 25q-58 24 -85 24q-20 0 -29.5 -10t-10.5 -38h-31q-6 43 19 70.5t64 27.5q26 0 86 -24q63 -25 85 -25q20 0 29.5 10t12.5 35z" />
    <glyph glyph-name="hungarumlaut" unicode="&#x2dd;" horiz-adv-x="333" 
d="M345 660h80l-152 -154h-33zM211 660h80l-152 -154h-33z" />
    <glyph glyph-name="uni03A9" unicode="&#x3a9;" horiz-adv-x="670" 
d="M449 43h126l-8 -43h-203l9 44q219 142 219 367q0 111 -62 173t-157 62q-121 0 -194 -90q-73 -88 -73 -236q0 -168 116 -276l-10 -44h-215l8 43h157q-107 113 -107 285q0 156 87 260q87 103 233 103q121 0 195 -74t74 -200q0 -225 -195 -374z" />
    <glyph glyph-name="uni03BC" unicode="&#x3bc;" horiz-adv-x="475" 
d="M344 194l39 255h44l-52 -350q0 -6 -0.5 -12t-1 -9t-0.5 -4q0 -18 11.5 -29.5t29.5 -11.5q16 0 55 12l-6 -40q-31 -14 -56 -14q-61 0 -76 63q-53 -63 -125 -63q-86 0 -128 92l-46 -304h-42l99 670h44l-36 -239q-5 -32 -5 -56q0 -52 35 -87q34 -34 84 -34q59 0 89.5 40
t43.5 121z" />
    <glyph glyph-name="pi" unicode="&#x3c0;" horiz-adv-x="522" 
d="M144 449h376l-6 -40h-71l-60 -409h-44l59 409h-220l-61 -409h-43l60 409q-59 -2 -113 -24l5 42q37 22 118 22z" />
    <glyph glyph-name="uni0400" unicode="&#x400;" 
d="M136 682h348l-6 -46h-301l-38 -264h285l-7 -46h-284l-40 -280h403l-6 -46h-450zM373 728l-202 127h126l122 -127h-46z" />
    <glyph glyph-name="afii10023" unicode="&#x401;" horiz-adv-x="531" 
d="M45 0l96 682h348l-6 -46h-301l-38 -264h285l-7 -46h-284l-40 -280h403l-6 -46h-450zM233 840q13 13 31 13t31 -13t13 -31t-13 -31t-31 -13t-31 13t-13 31t13 31zM391 840q13 13 31 13t31 -13t13 -31t-13 -31t-31 -13t-31 13t-13 31t13 31z" />
    <glyph glyph-name="afii10051" unicode="&#x402;" horiz-adv-x="578" 
d="M46 682h431l-6 -44h-202l-29 -210q46 30 120 30q78 0 128 -56t50 -141q0 -103 -67.5 -182.5t-198.5 -85.5l4 44q90 0 151 63q61 64 61 163q0 67 -38 109t-102 42q-79 0 -115 -36l-54 -378h-47l90 638h-182z" />
    <glyph glyph-name="afii10052" unicode="&#x403;" horiz-adv-x="417" 
d="M45 0l96 682h313l-6 -44h-266l-90 -638h-47zM239 737l105 154h80l-152 -154h-33z" />
    <glyph glyph-name="afii10053" unicode="&#x404;" horiz-adv-x="552" 
d="M566 682l-6 -44q-45 7 -81 7q-136 0 -237 -77q-100 -77 -134 -189h371l-9 -46h-373q-5 -35 -5 -56q0 -105 57 -173q58 -67 160 -67q104 0 216 73l-8 -56q-109 -63 -207 -63q-118 0 -194 75t-76 209q0 105 54 199q56 95 157 156q103 61 229 61q47 0 86 -9z" />
    <glyph glyph-name="afii10054" unicode="&#x405;" horiz-adv-x="417" 
d="M30 37l12 46q71 -46 127 -46q61 0 100.5 37.5t39.5 101.5q0 78 -79 137q-1 1 -18.5 14t-20.5 15.5t-19 15.5t-20.5 18t-17 17.5t-17 20t-12.5 21t-11 24t-5.5 24t-2.5 27.5q0 76 51 129q51 52 127 52q33 0 68.5 -11t56.5 -27l-12 -43q-70 35 -113 35q-51 0 -89 -38
q-37 -37 -37 -91q0 -14 3 -27.5t6 -23.5t12 -22l13.5 -18t18 -18t18 -15.5t21 -16t19.5 -15.5q52 -37 82 -79t30 -106q0 -79 -54 -132q-52 -52 -133 -52q-34 0 -76.5 13.5t-67.5 32.5z" />
    <glyph glyph-name="afii10055" unicode="&#x406;" horiz-adv-x="198" 
d="M40 0l96 682h47l-96 -682h-47z" />
    <glyph glyph-name="afii10056" unicode="&#x407;" horiz-adv-x="198" 
d="M40 0l96 682h47l-96 -682h-47zM67 840q13 13 31 13t31 -13t13 -31t-13 -31t-31 -13t-31 13t-13 31t13 31zM225 840q13 13 31 13t31 -13t13 -31t-13 -31t-31 -13t-31 13t-13 31t13 31z" />
    <glyph glyph-name="afii10057" unicode="&#x408;" horiz-adv-x="198" 
d="M41 -22l99 704h46l-106 -748q-23 -164 -164 -164q-27 0 -57 8l-9 49q27 -10 65 -10q56 0 84.5 36.5t41.5 124.5z" />
    <glyph glyph-name="afii10058" unicode="&#x409;" horiz-adv-x="821" 
d="M293 686h42l62 -303q19 9 66 17q42 7 81 7q112 0 174.5 -53t62.5 -142q0 -95 -71 -154q-70 -58 -184 -58h-102l-117 602h-6l-270 -602h-48zM525 363q-31 0 -66 -7q-36 -6 -54 -14l59 -298h62q93 0 148 46.5t55 120.5q0 152 -204 152z" />
    <glyph glyph-name="afii10059" unicode="&#x40a;" horiz-adv-x="971" 
d="M676 0h-191l45 326h-398l-45 -326h-47l95 682h47l-44 -312h398l45 312h49l-44 -296q50 21 118 21q111 0 169 -52t58 -143q0 -95 -73 -153q-73 -59 -182 -59zM685 363q-57 0 -104 -21l-43 -298h138q90 0 146 47q57 48 57 120q0 152 -194 152z" />
    <glyph glyph-name="afii10060" unicode="&#x40b;" horiz-adv-x="637" 
d="M232 381l-53 -381h-47l90 638h-182l6 44h431l-6 -44h-202l-30 -213q83 33 153 33q104 0 158.5 -49.5t54.5 -134.5q0 -44 -10 -108l-24 -166h-47l24 162q10 67 10 108q0 144 -172 144q-76 0 -154 -33z" />
    <glyph glyph-name="afii10061" unicode="&#x40c;" horiz-adv-x="552" 
d="M40 0l96 682h48l-45 -311h57q50 0 79 20t58 74l74 139q25 46 54 62t77 16h24l-6 -44h-25q-33 0 -48.5 -10.5t-35.5 -46.5l-80 -146q-44 -79 -97 -92q36 -13 63 -42.5t54 -85.5l104 -215h-60l-90 199q-35 74 -72 101t-100 27h-36l-45 -327h-48zM297 730l105 154h80
l-152 -154h-33z" />
    <glyph glyph-name="uni040D" unicode="&#x40d;" horiz-adv-x="698" 
d="M582 0h-47l82 587l-551 -599h-28l97 694h47l-89 -610l558 610h27zM435 728l-202 127h126l122 -127h-46z" />
    <glyph glyph-name="afii10062" unicode="&#x40e;" horiz-adv-x="554" 
d="M220 2l-161 680h53l144 -623l298 623h53l-311 -634q-44 -90 -81 -123q-36 -33 -85 -33q-53 0 -85 29l11 60q26 -42 85 -42q24 0 45 17.5t34 45.5zM229 874h41q4 -82 65 -82q28 0 57 23t47 59h36q-18 -58 -55.5 -93t-82.5 -35q-48 0 -77.5 35.5t-30.5 92.5z" />
    <glyph glyph-name="afii10145" unicode="&#x40f;" horiz-adv-x="698" 
d="M543 46l88 636h47l-96 -682h-227l-24 -112h-47l21 112h-265l95 682h47l-88 -636h449z" />
    <glyph glyph-name="afii10017" unicode="&#x410;" horiz-adv-x="542" 
d="M304 691h42l157 -691h-48l-56 246h-253l-116 -246h-48zM316 607h-2l-146 -315h221z" />
    <glyph glyph-name="afii10018" unicode="&#x411;" horiz-adv-x="526" 
d="M40 0l96 682h320l-7 -44h-271l-37 -252q49 21 118 21q111 0 169 -52t58 -143q0 -95 -73 -153q-73 -59 -182 -59h-191zM240 363q-58 0 -104 -21l-43 -298h138q90 0 146 47q57 48 57 120q0 152 -194 152z" />
    <glyph glyph-name="afii10019" unicode="&#x412;" horiz-adv-x="531" 
d="M233 0h-191l96 682h66q112 0 170 -50q58 -49 58 -120q0 -89 -91 -135q70 -19 108.5 -66.5t38.5 -112.5q0 -87 -71 -143q-70 -55 -184 -55zM221 638h-43l-34 -247h70q80 0 123 31.5t43 90.5q0 58 -42.5 91.5t-116.5 33.5zM259 347h-121l-43 -303h132q109 0 159 45t50 107
q0 67 -50 109t-127 42z" />
    <glyph glyph-name="afii10020" unicode="&#x413;" horiz-adv-x="417" 
d="M45 0l96 682h313l-6 -44h-266l-90 -638h-47z" />
    <glyph glyph-name="afii10021" unicode="&#x414;" horiz-adv-x="589" 
d="M33 44l291 647h42l137 -647h56l-22 -162h-53l16 118h-476l-16 -118h-53l22 162h56zM81 44h374l-120 566z" />
    <glyph glyph-name="afii10022" unicode="&#x415;" horiz-adv-x="531" 
d="M45 0l96 682h348l-6 -46h-301l-38 -264h285l-7 -46h-284l-40 -280h403l-6 -46h-450z" />
    <glyph glyph-name="afii10024" unicode="&#x416;" horiz-adv-x="833" 
d="M447 682h47l-44 -311h37q51 0 80.5 20t56.5 74l69 139q23 47 50.5 62.5t75.5 15.5h24l-6 -44h-25q-33 0 -47 -10.5t-32 -46.5l-75 -146q-39 -77 -97 -92q36 -13 60 -40.5t52 -87.5l99 -215h-60l-85 199q-32 74 -68 100q-35 28 -99 28h-16l-46 -327h-47l46 327h-20
q-59 0 -102 -28q-43 -27 -93 -99l-141 -200h-61l157 215q49 66 80 92q36 30 76 40q-49 25 -78 116l-36 116q-12 37 -23 48t-38 11h-25l7 44h24q42 0 62 -15.5t35 -62.5l43 -135q20 -58 40 -78q23 -20 72 -20h27z" />
    <glyph glyph-name="afii10025" unicode="&#x417;" horiz-adv-x="500" 
d="M224 335h-98l7 48h98q88 0 141 47t53 106q0 49 -41.5 78t-116.5 29q-107 0 -192 -45l7 49q79 44 198 44q92 0 148 -41t56 -105q0 -58 -45 -108.5t-126 -76.5q60 -16 96 -57.5t36 -92.5q0 -59 -27 -104.5t-73 -69.5q-83 -45 -167 -45q-106 0 -189 39l7 53q86 -44 185 -44
q84 0 145 43q62 44 62 129q0 56 -44.5 90t-119.5 34z" />
    <glyph glyph-name="afii10026" unicode="&#x418;" horiz-adv-x="698" 
d="M582 0h-47l82 587l-551 -599h-28l97 694h47l-89 -610l558 610h27z" />
    <glyph glyph-name="afii10027" unicode="&#x419;" horiz-adv-x="698" 
d="M582 0h-47l82 587l-551 -599h-28l97 694h47l-89 -610l558 610h27zM309 874h41q4 -82 65 -82q28 0 57 23t47 59h36q-18 -58 -55.5 -93t-82.5 -35q-48 0 -77.5 35.5t-30.5 92.5z" />
    <glyph glyph-name="afii10028" unicode="&#x41a;" horiz-adv-x="552" 
d="M40 0l96 682h48l-45 -311h57q50 0 79 20t58 74l74 139q25 46 54 62t77 16h24l-6 -44h-25q-33 0 -48.5 -10.5t-35.5 -46.5l-80 -146q-44 -79 -97 -92q36 -13 63 -42.5t54 -85.5l104 -215h-60l-90 199q-35 74 -72 101t-100 27h-36l-45 -327h-48z" />
    <glyph glyph-name="afii10029" unicode="&#x41b;" horiz-adv-x="522" 
d="M-17 0l311 691h42l147 -691h-48l-128 607h-4l-272 -607h-48z" />
    <glyph glyph-name="afii10030" unicode="&#x41c;" horiz-adv-x="802" 
d="M352 0l-122 579h-4l-190 -579h-49l226 682h40l120 -574h4l303 574h43v-682h-47v579h-4l-303 -579h-17z" />
    <glyph glyph-name="afii10031" unicode="&#x41d;" horiz-adv-x="698" 
d="M587 369l44 313h47l-96 -682h-47l45 325h-448l-45 -325h-47l95 682h47l-44 -313h449z" />
    <glyph glyph-name="afii10032" unicode="&#x41e;" horiz-adv-x="656" 
d="M620 415q0 -176 -91 -300t-231 -124q-116 0 -178.5 74t-62.5 209q0 51 10.5 106t36 111t61.5 100t92.5 72t124.5 28q109 0 174 -74q64 -73 64 -202zM568 426q0 101 -50 160t-136 59q-58 0 -107.5 -26.5t-80.5 -70.5q-42 -60 -64.5 -141t-20.5 -148q0 -106 50 -164
t140 -58q124 0 196 113q73 113 73 276z" />
    <glyph glyph-name="afii10033" unicode="&#x41f;" horiz-adv-x="698" 
d="M40 0l95 682h543l-96 -682h-47l90 636h-451l-87 -636h-47z" />
    <glyph glyph-name="afii10034" unicode="&#x420;" horiz-adv-x="469" 
d="M84 0h-47l96 682h136q87 0 139 -51q53 -50 53 -130t-55 -138q-54 -57 -171 -57h-108zM264 638h-90l-41 -288h98q96 0 137 44q41 46 41 105q0 62 -39.5 100.5t-105.5 38.5z" />
    <glyph glyph-name="afii10035" unicode="&#x421;" horiz-adv-x="552" 
d="M566 682l-6 -44q-45 7 -81 7q-113 0 -204 -55q-88 -54 -135.5 -137t-47.5 -176q0 -105 57 -173q58 -67 160 -67q104 0 216 73l-8 -56q-109 -63 -207 -63q-118 0 -194 75t-76 209q0 105 54 199q56 95 157 156q103 61 229 61q47 0 86 -9z" />
    <glyph glyph-name="afii10036" unicode="&#x422;" horiz-adv-x="438" 
d="M40 638l6 44h451l-6 -44h-202l-90 -638h-47l90 638h-202z" />
    <glyph glyph-name="afii10037" unicode="&#x423;" horiz-adv-x="554" 
d="M220 2l-161 680h53l144 -623l298 623h53l-311 -634q-44 -90 -81 -123q-36 -33 -85 -33q-53 0 -85 29l11 60q26 -42 85 -42q24 0 45 17.5t34 45.5z" />
    <glyph glyph-name="afii10038" unicode="&#x424;" horiz-adv-x="739" 
d="M356 -9h-47l10 75q-79 0 -143 25q-126 50 -126 207q0 133 92 227q92 93 255 93l10 73h47l-10 -73q81 0 142 -25q128 -50 128 -207q0 -133 -92 -227q-92 -93 -255 -93zM437 574l-64 -464q130 0 210 77q79 78 79 206q0 181 -225 181zM327 110l64 464q-131 0 -210 -78
q-79 -76 -79 -205q0 -181 225 -181z" />
    <glyph glyph-name="afii10039" unicode="&#x425;" horiz-adv-x="646" 
d="M347 393l275 289h62l-313 -326l239 -356h-56l-217 319l-304 -319h-63l342 356l-220 326h56z" />
    <glyph glyph-name="afii10040" unicode="&#x426;" horiz-adv-x="679" 
d="M562 -118l16 118h-538l95 682h47l-90 -636h427l91 636h47l-90 -636h70l-22 -164h-53z" />
    <glyph glyph-name="afii10041" unicode="&#x427;" horiz-adv-x="545" 
d="M429 0h-47l43 300q-83 -33 -153 -33q-104 0 -158.5 49.5t-54.5 134.5q0 44 10 108l17 123h47l-17 -119q-10 -67 -10 -108q0 -144 172 -144q76 0 154 33l46 338h47z" />
    <glyph glyph-name="afii10042" unicode="&#x428;" horiz-adv-x="850" 
d="M783 682h47l-96 -682h-694l95 682h47l-90 -636h277l89 636h47l-90 -636h277z" />
    <glyph glyph-name="afii10043" unicode="&#x429;" horiz-adv-x="852" 
d="M740 46h70l-22 -164h-53l16 118h-711l95 682h47l-90 -636h277l89 636h47l-90 -636h277l91 636h47z" />
    <glyph glyph-name="afii10044" unicode="&#x42a;" horiz-adv-x="602" 
d="M46 682h214l-43 -296q49 21 118 21q111 0 169 -52t58 -143q0 -95 -73 -153q-73 -59 -182 -59h-192l90 637h-165zM316 363q-58 0 -105 -21l-42 -298h138q90 0 146 47q57 48 57 120q0 152 -194 152z" />
    <glyph glyph-name="afii10045" unicode="&#x42b;" horiz-adv-x="729" 
d="M231 0h-191l96 682h49l-44 -296q49 21 118 21q111 0 169 -52t58 -143q0 -95 -73 -153q-73 -59 -182 -59zM240 363q-58 0 -104 -21l-43 -298h138q90 0 146 47q57 48 57 120q0 152 -194 152zM566 0l96 682h47l-96 -682h-47z" />
    <glyph glyph-name="afii10046" unicode="&#x42c;" horiz-adv-x="526" 
d="M231 0h-191l96 682h49l-44 -296q49 21 118 21q111 0 169 -52t58 -143q0 -95 -73 -153q-73 -59 -182 -59zM240 363q-58 0 -104 -21l-43 -298h138q90 0 146 47q57 48 57 120q0 152 -194 152z" />
    <glyph glyph-name="afii10047" unicode="&#x42d;" horiz-adv-x="552" 
d="M31 572l8 56q101 63 207 63q117 0 194 -71q76 -70 76 -213q0 -105 -55 -199q-54 -95 -157 -156q-101 -61 -228 -61q-47 0 -86 9l6 44q45 -7 81 -7q145 0 248 87q105 89 132 212h-324l10 46h321q0 129 -56 196q-55 67 -161 67t-216 -73z" />
    <glyph glyph-name="afii10048" unicode="&#x42e;" horiz-adv-x="836" 
d="M136 682h47l-44 -314h107q23 126 94 218q84 105 222 105q109 0 174 -74q64 -73 64 -202q0 -176 -91 -300t-231 -124q-116 0 -178.5 74t-62.5 209q0 24 3 50h-107l-46 -324h-47zM748 426q0 101 -50 160t-136 59q-58 0 -107.5 -26.5t-80.5 -70.5q-42 -60 -64.5 -141
t-20.5 -148q0 -106 50 -164t140 -58q124 0 196 113q73 113 73 276z" />
    <glyph glyph-name="afii10049" unicode="&#x42f;" horiz-adv-x="570" 
d="M394 682h156l-96 -682h-47l42 301h-90q-69 0 -121 -29q-51 -29 -107 -103l-128 -169h-59l130 167q52 68 87 100.5t71 43.5q-54 18 -87 61t-33 97q0 96 73 154q74 59 209 59zM302 345h154l41 293h-130q-89 0 -146 -48t-57 -117q0 -55 38.5 -91.5t99.5 -36.5z" />
    <glyph glyph-name="afii10065" unicode="&#x430;" horiz-adv-x="479" 
d="M380 0h-44l7 53q-70 -62 -154 -62q-68 0 -113 51q-44 52 -44 129q0 110 80 196q40 42 102.5 66.5t136.5 24.5q55 0 92 -9zM350 104l45 315q-24 6 -55 6q-107 0 -184 -73q-77 -74 -77 -187q0 -62 32 -99.5t85 -37.5q75 0 154 76z" />
    <glyph glyph-name="afii10066" unicode="&#x431;" horiz-adv-x="448" 
d="M358 270q0 67 -30.5 107t-82.5 40t-89.5 -35.5t-55 -88t-17.5 -114.5q0 -68 28.5 -107.5t77.5 -39.5q69 0 119 69q50 71 50 169zM94 358q54 100 153 100q73 0 115.5 -51t42.5 -137q0 -127 -65 -204q-64 -75 -149 -75q-65 0 -110 49q-45 50 -45 140q0 140 35 248
q36 110 115.5 178t193.5 78l79 7l-10 -44l-80 -8q-214 -22 -275 -281z" />
    <glyph glyph-name="afii10067" unicode="&#x432;" horiz-adv-x="447" 
d="M208 0h-181l58 415q70 39 157 39q71 0 111 -31t40 -75q0 -47 -27.5 -78t-69.5 -37q47 -6 75 -33.5t28 -69.5q0 -49 -31 -79.5t-71 -40.5t-89 -10zM126 391l-20 -145l112 3q62 2 93.5 26t31.5 64q0 35 -29 55.5t-80 20.5q-62 0 -108 -24zM101 209l-25 -170h121
q152 0 152 93q0 80 -134 80q-57 0 -114 -3z" />
    <glyph glyph-name="afii10068" unicode="&#x433;" horiz-adv-x="331" 
d="M31 0l63 449h261l-9 -39h-213l-58 -410h-44z" />
    <glyph glyph-name="afii10069" unicode="&#x434;" horiz-adv-x="458" 
d="M-1 -189v59q14 -22 54.5 -35.5t84.5 -13.5q71 0 119 53.5t64 144.5q-53 -28 -124 -28q-74 0 -119.5 52t-45.5 138q0 52 18 100t53 88.5t94.5 64.5t135.5 24h94l-58 -411q-37 -268 -252 -268q-31 0 -66 9t-52 23zM330 72l49 353h-39q-71 0 -125 -22.5t-82 -61.5
q-54 -72 -54 -160q0 -73 36.5 -115t99.5 -42q28 0 60.5 13.5t54.5 34.5z" />
    <glyph glyph-name="afii10070" unicode="&#x435;" horiz-adv-x="448" 
d="M380 88l-6 -50q-62 -47 -137 -47q-89 0 -145 59q-54 58 -54 157q0 106 60 178q60 73 148 73q73 0 116.5 -51.5t43.5 -138.5q0 -8 -2 -34h-317q-2 -24 -2 -29q0 -68 40 -120q41 -53 113 -53q74 0 142 56zM94 273h268q0 68 -31 106t-86 38q-54 0 -98 -43q-44 -42 -53 -101z
" />
    <glyph glyph-name="afii10072" unicode="&#x436;" horiz-adv-x="560" 
d="M287 449h44l-28 -195h6q36 0 58 14t41 48l36 64q39 69 107 69h4l-6 -44h-4q-23 0 -36 -9t-28 -34l-36 -62q-27 -48 -72 -69q27 -10 45 -32t42 -74l56 -125h-51l-49 115q-26 61 -48 80q-23 20 -64 20h-6l-30 -215h-44l30 215h-5q-44 0 -77.5 -21.5t-70.5 -79.5l-72 -114
h-54l82 123q36 53 64.5 77.5t61.5 31.5q-38 13 -55 67l-14 65q-7 24 -18.5 32.5t-35.5 8.5h-9l7 44h9q69 0 87 -69l12 -65q9 -34 29.5 -47.5t57.5 -13.5h6z" />
    <glyph glyph-name="afii10073" unicode="&#x437;" horiz-adv-x="396" 
d="M167 216h-62l5 39h62q70 0 111 29t41 72q0 63 -114 63q-67 0 -148 -38l6 41q76 36 159 36q63 0 106 -24q44 -24 44 -69q0 -41 -32 -76.5t-88 -50.5q95 -32 95 -102q0 -39 -20.5 -69t-52.5 -45.5t-64.5 -23t-62.5 -7.5q-97 0 -149 28l6 41q59 -30 143 -30q60 0 104 24
q44 26 44 78q0 37 -36.5 60.5t-96.5 23.5z" />
    <glyph glyph-name="afii10074" unicode="&#x438;" horiz-adv-x="466" 
d="M364 0h-44l49 356l-323 -365h-20l64 458h44l-54 -373l326 373h21z" />
    <glyph glyph-name="afii10075" unicode="&#x439;" horiz-adv-x="466" 
d="M364 0h-44l49 356l-323 -365h-20l64 458h44l-54 -373l326 373h21zM169 658h41q4 -82 65 -82q28 0 57 23t47 59h36q-18 -58 -55.5 -93t-82.5 -35q-48 0 -77.5 35.5t-30.5 92.5z" />
    <glyph glyph-name="afii10076" unicode="&#x43a;" horiz-adv-x="386" 
d="M31 0l63 449h44l-27 -195h14q37 0 55 12q19 12 42 50l38 64q40 69 107 69h14l-6 -44h-14q-23 0 -36 -9t-28 -34l-36 -62q-27 -48 -72 -69q41 -20 87 -106l66 -125h-51l-59 115q-31 60 -52 80q-20 20 -60 20h-15l-30 -215h-44z" />
    <glyph glyph-name="afii10077" unicode="&#x43b;" horiz-adv-x="427" 
d="M-32 0l268 458h30l129 -458h-47l-109 378l-222 -378h-49z" />
    <glyph glyph-name="afii10078" unicode="&#x43c;" horiz-adv-x="604" 
d="M116 449h28l137 -364l241 364h28l-33 -449h-46l24 336l-225 -336l-135 336l-66 -336h-46z" />
    <glyph glyph-name="afii10079" unicode="&#x43d;" horiz-adv-x="466" 
d="M355 248l28 201h44l-63 -449h-44l29 209h-249l-29 -209h-44l63 449h44l-28 -201h249z" />
    <glyph glyph-name="afii10080" unicode="&#x43e;" horiz-adv-x="448" 
d="M405 270q0 -127 -65 -204q-64 -75 -149 -75q-65 0 -110 49q-45 50 -45 140q0 121 59 200q59 78 152 78q73 0 115.5 -51t42.5 -137zM358 270q0 67 -30.5 107t-82.5 40t-89.5 -35.5t-55 -88t-17.5 -114.5q0 -68 28.5 -107.5t77.5 -39.5q69 0 119 69q50 71 50 169z" />
    <glyph glyph-name="afii10081" unicode="&#x43f;" horiz-adv-x="458" 
d="M71 0h-44l63 449h44l-10 -74l2 -2q85 85 171 85q50 0 81 -36t31 -91q0 -18 -1 -23l-43 -308h-44l42 302q2 24 2 26q0 43 -21.5 66t-58.5 23q-74 0 -169 -98z" />
    <glyph glyph-name="afii10082" unicode="&#x440;" horiz-adv-x="500" 
d="M113 396l20 144h44l-16 -115q59 33 111 33q82 0 131 -57q50 -56 50 -146q0 -96 -62 -175q-32 -41 -91.5 -65t-135.5 -24q-33 0 -63 3l-31 -215h-44l82 579q-14 -12 -27.5 -27t-23 -27.5t-17 -23.5t-12.5 -16.5t-6 -4.5q-6 0 -6 9q0 20 30 61q34 44 67 67zM156 389
l-51 -362q17 -3 58 -3q47 0 88 12t77 37t57 71.5t21 109.5q0 75 -39.5 119t-105.5 44q-50 0 -105 -28z" />
    <glyph glyph-name="afii10083" unicode="&#x441;" horiz-adv-x="385" 
d="M352 69l-7 -47q-62 -31 -132 -31q-84 0 -136 55q-51 56 -51 145q0 97 64 178q72 89 202 89q43 0 88 -9l-7 -48q-48 13 -85 13q-70 0 -121 -36q-94 -66 -94 -192q0 -70 41.5 -112t109.5 -42q45 0 128 37z" />
    <glyph glyph-name="afii10084" unicode="&#x442;" horiz-adv-x="740" 
d="M72 0h-44l63 449h44l-11 -78q54 48 91.5 67.5t80.5 19.5q42 0 71.5 -27.5t34.5 -68.5q87 96 172 96q51 0 83.5 -31.5t32.5 -77.5q0 -13 -1 -16l-47 -333h-44l46 325q1 4 1 16q0 35 -21.5 55.5t-52.5 20.5q-39 0 -86 -27t-83 -71l-45 -319h-44l44 313q2 24 2 26
q0 39 -19.5 58.5t-54.5 19.5q-82 0 -168 -98z" />
    <glyph glyph-name="afii10085" unicode="&#x443;" horiz-adv-x="375" 
d="M149 66l200 383h47l-355 -679h-49l125 236l-85 443h44l71 -383h2z" />
    <glyph glyph-name="afii10086" unicode="&#x444;" horiz-adv-x="679" 
d="M380 377l-43 -305q34 -40 88 -40q63 -3 118.5 85t52.5 169q0 72 -27 101.5t-83 29.5q-66 0 -106 -40zM291 72l43 305q-34 40 -88 40q-42 2 -83.5 -40.5t-65.5 -102.5t-22 -111q0 -72 27 -101.5t83 -29.5q66 0 106 40zM340 422l38 260h44l-36 -260q42 36 111 36
t107.5 -45.5t38.5 -129.5q0 -59 -26 -126t-79 -116q-53 -50 -120 -50q-54 0 -87 36l-36 -248h-44l34 248q-42 -36 -111 -36t-107.5 45.5t-38.5 129.5q0 61 25 126t79 116q55 50 121 50q54 0 87 -36z" />
    <glyph glyph-name="afii10087" unicode="&#x445;" horiz-adv-x="458" 
d="M230 269l168 180h52l-199 -219l136 -230h-52l-115 200l-185 -200h-54l219 236l-123 213h47z" />
    <glyph glyph-name="afii10088" unicode="&#x446;" horiz-adv-x="466" 
d="M325 39l58 410h44l-57 -410h53l-14 -119h-46l11 80h-347l63 449h44l-58 -410h249z" />
    <glyph glyph-name="afii10089" unicode="&#x447;" horiz-adv-x="427" 
d="M315 239l29 210h44l-63 -449h-44l28 198q-64 -43 -136 -43q-51 0 -95 27q-43 27 -43 83q0 11 2 35l21 149h44l-19 -134q-3 -21 -3 -38q0 -46 28 -67q12 -9 28 -13q21 -6 54 -6q32 0 67.5 13t57.5 35z" />
    <glyph glyph-name="afii10090" unicode="&#x448;" horiz-adv-x="620" 
d="M479 39l58 410h44l-64 -449h-490l63 449h44l-58 -410h179l58 410h44l-58 -410h180z" />
    <glyph glyph-name="afii10091" unicode="&#x449;" horiz-adv-x="620" 
d="M479 39l58 410h44l-57 -410h53l-14 -119h-46l11 80h-501l63 449h44l-58 -410h179l58 410h44l-58 -410h180z" />
    <glyph glyph-name="afii10092" unicode="&#x44a;" horiz-adv-x="482" 
d="M213 0h-135l57 410h-120l8 39h162l-25 -175q60 25 132 25q69 0 108.5 -34t39.5 -94q0 -80 -55.5 -125.5t-171.5 -45.5zM155 237l-28 -198h91q86 0 130.5 34t44.5 95q0 92 -109 92q-75 0 -129 -23z" />
    <glyph glyph-name="afii10093" unicode="&#x44b;" horiz-adv-x="590" 
d="M449 0l63 449h44l-63 -449h-44zM89 449h44l-24 -175q60 25 132 25q69 0 108.5 -34t39.5 -94q0 -80 -55.5 -125.5t-171.5 -45.5h-135zM104 237l-28 -198h91q86 0 130.5 34t44.5 95q0 92 -109 92q-75 0 -129 -23z" />
    <glyph glyph-name="afii10094" unicode="&#x44c;" horiz-adv-x="431" 
d="M89 449h44l-24 -175q60 25 132 25q69 0 108.5 -34t39.5 -94q0 -80 -55.5 -125.5t-171.5 -45.5h-135zM104 237l-28 -198h91q86 0 130.5 34t44.5 95q0 92 -109 92q-75 0 -129 -23z" />
    <glyph glyph-name="afii10095" unicode="&#x44d;" horiz-adv-x="385" 
d="M23 380l7 47q62 31 132 31q84 0 135 -56q52 -55 52 -144q0 -99 -65 -179q-32 -40 -84.5 -64t-116.5 -24q-43 0 -88 9l7 48q48 -13 85 -13q89 0 142 52q56 53 69 128h-225l22 39h207v9q0 70 -41.5 112t-109.5 42q-45 0 -128 -37z" />
    <glyph glyph-name="afii10096" unicode="&#x44e;" horiz-adv-x="594" 
d="M94 449h44l-29 -205h78q15 97 70 155q56 59 136 59q73 0 115.5 -51t42.5 -137q0 -127 -65 -204q-64 -75 -149 -75q-65 0 -110 49q-45 50 -45 140q0 2 0.5 12t0.5 13h-79l-29 -205h-44zM504 270q0 67 -30.5 107t-82.5 40t-89.5 -35.5t-55 -88t-17.5 -114.5
q0 -68 28.5 -107.5t77.5 -39.5q69 0 119 69q50 71 50 169z" />
    <glyph glyph-name="afii10097" unicode="&#x44f;" horiz-adv-x="429" 
d="M254 449h145l-63 -449h-48l26 190h-72q-45 0 -73 -16q-27 -15 -67 -64l-91 -110h-61l106 126q44 54 82 74q-38 14 -60 44t-22 68q0 62 54.5 99.5t143.5 37.5zM201 229h119l25 181h-81q-158 0 -158 -102q0 -34 25.5 -56.5t69.5 -22.5z" />
    <glyph glyph-name="uni0450" unicode="&#x450;" horiz-adv-x="436" 
d="M370 88v-47q-65 -50 -141 -50q-89 0 -145 59q-54 58 -54 157q0 106 60 178q60 73 148 73q73 0 116.5 -51.5t43.5 -138.5q0 -8 -2 -34h-317q-2 -24 -2 -29q0 -68 40 -120q41 -53 113 -53t140 56zM86 273h268q3 67 -29 105.5t-88 38.5q-54 0 -98 -43q-44 -42 -53 -101z
M280 506l-152 154h80l105 -154h-33z" />
    <glyph glyph-name="afii10071" unicode="&#x451;" horiz-adv-x="448" 
d="M157 624q13 13 31 13t31 -13t13 -31t-13 -31t-31 -13t-31 13t-13 31t13 31zM315 624q13 13 31 13t31 -13t13 -31t-13 -31t-31 -13t-31 13t-13 31t13 31zM380 88l-6 -50q-62 -47 -137 -47q-89 0 -145 59q-54 58 -54 157q0 106 60 178q60 73 148 73q73 0 116.5 -51.5
t43.5 -138.5q0 -8 -2 -34h-317q-2 -24 -2 -29q0 -68 40 -120q41 -53 113 -53q74 0 142 56zM94 273h268q0 68 -31 106t-86 38q-54 0 -98 -43q-44 -42 -53 -101z" />
    <glyph glyph-name="afii10099" unicode="&#x452;" horiz-adv-x="458" 
d="M23 0l83 588h-71l7 39h69l8 55h44l-8 -55h214l-5 -39h-214l-32 -230l2 -2q50 53 90 77.5t87 24.5q52 0 83.5 -28t31.5 -72q0 -16 -2 -40l-57 -400q-19 -139 -147 -139q-44 0 -79 13v41q29 -18 100 -18q27 0 52 29.5t31 72.5l54 396q2 24 2 26q0 38 -22 58t-54 20
q-42 0 -79 -25q-35 -22 -101 -90l-43 -302h-44z" />
    <glyph glyph-name="afii10100" unicode="&#x453;" horiz-adv-x="331" 
d="M31 0l63 449h259l-7 -39h-213l-58 -410h-44zM172 510l105 154h80l-152 -154h-33z" />
    <glyph glyph-name="afii10101" unicode="&#x454;" horiz-adv-x="385" 
d="M80 246h254l-20 -39h-240q-1 -5 -1 -21q0 -70 41.5 -112t109.5 -42q45 0 128 37l-7 -47q-62 -31 -132 -31q-84 0 -136 55q-51 56 -51 145q0 97 64 178q72 89 202 89q43 0 88 -9l-7 -48q-48 13 -85 13q-82 0 -136 -46.5t-72 -121.5z" />
    <glyph glyph-name="afii10102" unicode="&#x455;" horiz-adv-x="354" 
d="M335 416l-7 -47q-77 48 -137 48q-46 0 -69.5 -17.5t-23.5 -46.5q0 -24 22 -46.5t53 -41.5t62 -39.5t53 -50.5t22 -66q0 -57 -41.5 -87.5t-105.5 -30.5q-84 0 -151 61l14 43q63 -63 139 -63q46 0 72 18.5t26 53.5q0 29 -22 54t-53 44.5l-62 39t-53 46.5t-22 58
q0 50 37.5 81t105.5 31q75 0 141 -42z" />
    <glyph glyph-name="afii10103" unicode="&#x456;" horiz-adv-x="177" 
d="M31 0l63 449h44l-63 -449h-44zM109 569l11 74h44l-11 -74h-44z" />
    <glyph glyph-name="afii10104" unicode="&#x457;" horiz-adv-x="177" 
d="M31 0l63 449h44l-63 -449h-44zM21 624q13 13 31 13t31 -13t13 -31t-13 -31t-31 -13t-31 13t-13 31t13 31zM179 624q13 13 31 13t31 -13t13 -31t-13 -31t-31 -13t-31 13t-13 31t13 31z" />
    <glyph glyph-name="afii10105" unicode="&#x458;" horiz-adv-x="177" 
d="M27 -16l66 465h44l-73 -508q-13 -89 -45 -130t-99 -41q-25 0 -55 8l6 40q24 -7 44 -7q46 0 72 33q11 14 18 39q12 32 22 101zM109 569l11 74h44l-11 -74h-44z" />
    <glyph glyph-name="afii10106" unicode="&#x459;" horiz-adv-x="655" 
d="M-32 0l268 458h30l49 -198q87 39 166 39q73 0 115.5 -34t42.5 -94q0 -80 -55.5 -125.5t-171.5 -45.5h-79l-94 378l-222 -378h-49zM323 228l47 -189h47q86 0 130.5 34t44.5 95q0 92 -119 92q-75 0 -150 -32z" />
    <glyph glyph-name="afii10107" unicode="&#x45a;" horiz-adv-x="725" 
d="M383 449h44l-24 -175q60 25 132 25q69 0 108.5 -34t39.5 -94q0 -80 -55.5 -125.5t-171.5 -45.5h-136l30 209h-250l-29 -209h-44l63 449h44l-28 -201h250zM398 237l-28 -198h91q86 0 130.5 34t44.5 95q0 92 -109 92q-75 0 -129 -23z" />
    <glyph glyph-name="afii10108" unicode="&#x45b;" horiz-adv-x="458" 
d="M104 577h-81l7 39h80l9 66h44l-9 -66h196l-8 -39h-194l-30 -219l2 -2q50 53 90 77.5t87 24.5q57 0 89 -40t24 -100l-45 -318h-44l43 313q6 52 -15 78t-59 26q-42 0 -79 -25q-35 -22 -101 -90l-43 -302h-44z" />
    <glyph glyph-name="afii10109" unicode="&#x45c;" horiz-adv-x="386" 
d="M31 0l63 449h44l-27 -195h14q37 0 55 12q19 12 42 50l38 64q40 69 107 69h14l-6 -44h-14q-23 0 -36 -9t-28 -34l-36 -62q-27 -48 -72 -69q41 -20 87 -106l66 -125h-51l-59 115q-31 60 -52 80q-20 20 -60 20h-15l-30 -215h-44zM193 490l105 154h80l-152 -154h-33z" />
    <glyph glyph-name="uni045D" unicode="&#x45d;" horiz-adv-x="466" 
d="M364 0h-44l49 356l-323 -365h-20l64 458h44l-54 -373l326 373h21zM289 506l-152 154h80l105 -154h-33z" />
    <glyph glyph-name="afii10110" unicode="&#x45e;" horiz-adv-x="375" 
d="M151 66l198 383h47l-355 -679h-49l125 236l-85 443h44l71 -383h4zM114 658h41q4 -82 65 -82q28 0 57 23t47 59h36q-18 -58 -55.5 -93t-82.5 -35q-48 0 -77.5 35.5t-30.5 92.5z" />
    <glyph glyph-name="afii10193" unicode="&#x45f;" horiz-adv-x="466" 
d="M326 39l57 410h44l-63 -449h-138l-17 -94h-40l16 94h-158l63 449h44l-58 -410h250z" />
    <glyph glyph-name="afii10146" unicode="&#x462;" horiz-adv-x="556" 
d="M261 0h-191l73 522h-148l10 44h144l17 116h49l-18 -116h159l-6 -44h-159l-20 -136q50 21 118 21q111 0 169 -52t58 -143q0 -95 -73 -153q-73 -59 -182 -59zM270 363q-58 0 -104 -21l-43 -298h138q90 0 146 47q57 48 57 120q0 152 -194 152z" />
    <glyph glyph-name="afii10194" unicode="&#x463;" horiz-adv-x="657" 
d="M422 30q68 0 107 37.5t39 95.5q0 47 -28.5 72t-80.5 25q-75 0 -129 -23l-9 -66q-3 -15 -3 -35q0 -106 104 -106zM413 -9q-69 0 -104 39t-35 105q0 12 4 44l31 230h-38q-35 0 -73 -35.5t-86 -106.5l-38 -267h-44l63 449h44l-17 -118l3 -2q49 69 82 95q32 25 76 25h78
l-24 -175q60 25 132 25q68 0 108 -36t40 -97q0 -72 -50 -124q-49 -51 -152 -51z" />
    <glyph glyph-name="afii10147" unicode="&#x472;" horiz-adv-x="656" 
d="M620 415q0 -176 -91 -300t-231 -124q-116 0 -178.5 74t-62.5 209q0 51 10.5 106t36 111t61.5 100t92.5 72t124.5 28q109 0 174 -74q64 -73 64 -202zM122 379h445q1 10 1 47q0 101 -50 160t-136 59q-112 0 -179 -86q-58 -77 -81 -180zM561 332h-447q-5 -48 -5 -73
q0 -106 50 -164t140 -58q106 0 173 82q70 83 89 213z" />
    <glyph glyph-name="afii10195" unicode="&#x473;" horiz-adv-x="448" 
d="M405 270q0 -127 -65 -204q-64 -75 -149 -75q-65 0 -110 49q-45 50 -45 140q0 121 59 200q59 78 152 78q73 0 115.5 -51t42.5 -137zM352 207h-268q-1 -6 -1 -28q0 -68 28.5 -107.5t77.5 -39.5q58 0 103 49q46 49 60 126zM89 246h268q1 17 1 24q0 67 -30.5 107t-82.5 40
q-61 0 -102 -47t-54 -124z" />
    <glyph glyph-name="afii10148" unicode="&#x474;" horiz-adv-x="484" 
d="M220 110h4l183 476q24 58 47.5 83t56.5 25q32 0 52 -14v-51q-16 16 -43 16q-23 0 -37.5 -15.5t-31.5 -58.5l-230 -580h-24l-138 691h51z" />
    <glyph glyph-name="afii10196" unicode="&#x475;" horiz-adv-x="351" 
d="M70 449l67 -359l110 251q30 69 53.5 94.5t53.5 25.5q17 0 43 -8v-39q-21 8 -36 8q-21 0 -36 -18.5t-40 -73.5l-154 -339h-14l-89 458h42z" />
    <glyph glyph-name="afii10050" unicode="&#x490;" horiz-adv-x="417" 
d="M414 682l15 61h45l-26 -107h-266l-90 -636h-47l96 682h273z" />
    <glyph glyph-name="afii10098" unicode="&#x491;" horiz-adv-x="331" 
d="M314 449l11 39h38l-17 -78h-213l-58 -410h-44l63 449h220z" />
    <glyph glyph-name="uni0492" unicode="&#x492;" horiz-adv-x="417" 
d="M144 371h184l-7 -46h-183l-46 -325h-47l45 325h-66l6 46h67l44 311h313l-6 -46h-266z" />
    <glyph glyph-name="uni0493" unicode="&#x493;" horiz-adv-x="331" 
d="M60 209h-60l6 39h60l28 201h261l-9 -39h-213l-23 -162h145l-6 -39h-145l-29 -209h-44z" />
    <glyph glyph-name="uni0496" unicode="&#x496;" horiz-adv-x="833" 
d="M673 215l78 -169h46l-22 -164h-53l16 118h-26l-85 199q-32 74 -68 100q-35 28 -99 28h-16l-46 -327h-47l46 327h-20q-59 0 -102 -28q-43 -27 -93 -99l-141 -200h-61l157 215q49 66 80 92q36 30 76 40q-49 25 -78 116l-36 116q-12 37 -23 48t-38 11h-25l7 44h24
q42 0 62 -15.5t35 -62.5l43 -135q20 -58 40 -78q23 -20 72 -20h27l44 311h47l-44 -311h37q51 0 80.5 20t56.5 74l69 139q23 47 50.5 62.5t75.5 15.5h24l-6 -44h-25q-33 0 -47 -10.5t-32 -46.5l-75 -146q-39 -77 -97 -92q36 -13 60 -40.5t52 -87.5z" />
    <glyph glyph-name="uni0497" unicode="&#x497;" horiz-adv-x="560" 
d="M489 0h-24l-49 115q-26 61 -48 80q-23 20 -64 20h-6l-30 -215h-44l30 215h-5q-44 0 -77.5 -21.5t-70.5 -79.5l-72 -114h-54l82 123q36 53 64.5 77.5t61.5 31.5q-38 13 -55 67l-14 65q-7 24 -18.5 32.5t-35.5 8.5h-9l7 44h9q69 0 87 -69l12 -65q9 -34 29.5 -47.5
t57.5 -13.5h6l28 195h44l-28 -195h6q36 0 58 14t41 48l36 64q39 69 107 69h4l-6 -44h-4q-23 0 -36 -9t-28 -34l-36 -62q-27 -48 -72 -69q27 -10 45 -32t42 -74l39 -86h39l-14 -119h-46z" />
    <glyph glyph-name="uni049A" unicode="&#x49a;" horiz-adv-x="557" 
d="M458 0h-27l-90 199q-35 74 -72 101t-100 27h-36l-45 -327h-48l96 682h48l-45 -311h57q50 0 79 20t58 74l74 139q25 46 54 62t77 16h24l-6 -44h-25q-33 0 -48.5 -10.5t-35.5 -46.5l-80 -146q-44 -79 -97 -92q36 -13 63 -42.5t54 -85.5l82 -169h48l-22 -164h-53z" />
    <glyph glyph-name="uni049B" unicode="&#x49b;" horiz-adv-x="386" 
d="M276 125l45 -86h43l-14 -119h-46l11 80h-24l-59 115q-31 60 -52 80q-20 20 -60 20h-15l-30 -215h-44l63 449h44l-27 -195h14q37 0 55 12q19 12 42 50l38 64q40 69 107 69h14l-6 -44h-14q-23 0 -36 -9t-28 -34l-36 -62q-27 -48 -72 -69q41 -20 87 -106z" />
    <glyph glyph-name="uni04A2" unicode="&#x4a2;" horiz-adv-x="700" 
d="M599 0h-64l45 327h-448l-45 -327h-47l95 682h47l-44 -311h449l44 311h47l-90 -636h70l-22 -164h-53z" />
    <glyph glyph-name="uni04A3" unicode="&#x4a3;" horiz-adv-x="466" 
d="M362 -80l11 80h-53l29 209h-249l-29 -209h-44l63 449h44l-28 -201h249l28 201h44l-58 -410h53l-14 -119h-46z" />
    <glyph glyph-name="uni04AE" unicode="&#x4ae;" horiz-adv-x="479" 
d="M490 682h57l-255 -329l-49 -353h-47l49 353l-171 329h51l149 -282z" />
    <glyph glyph-name="uni04AF" unicode="&#x4af;" horiz-adv-x="365" 
d="M345 449h43l-224 -419l-37 -251h-44l36 254l-94 416h43l82 -365z" />
    <glyph glyph-name="uni04B0" unicode="&#x4b0;" horiz-adv-x="479" 
d="M490 682h57l-255 -329l-5 -34h218l-6 -47h-218l-38 -272h-47l38 272h-218l6 47h218l5 34l-171 329h51l149 -282z" />
    <glyph glyph-name="uni04B1" unicode="&#x4b1;" horiz-adv-x="365" 
d="M345 449h43l-219 -388l-3 -17h130l-6 -44h-130l-33 -221h-44l32 221h-130l6 44h130l3 20l-99 385h43l86 -338z" />
    <glyph glyph-name="uni04B2" unicode="&#x4b2;" horiz-adv-x="646" 
d="M568 0h-14l-217 319l-304 -319h-63l342 356l-220 326h56l199 -289l275 289h62l-313 -326l208 -310h48l-22 -164h-53z" />
    <glyph glyph-name="uni04B3" unicode="&#x4b3;" horiz-adv-x="458" 
d="M358 0h-23l-115 200l-185 -200h-54l219 236l-123 213h47l106 -180l168 180h52l-199 -219l113 -191h43l-14 -119h-46z" />
    <glyph glyph-name="uni04B6" unicode="&#x4b6;" horiz-adv-x="547" 
d="M447 0h-65l43 300q-83 -33 -153 -33q-104 0 -158.5 49.5t-54.5 134.5q0 44 10 108l17 123h47l-17 -119q-10 -67 -10 -108q0 -144 172 -144q76 0 154 33l46 338h47l-89 -636h70l-22 -164h-53z" />
    <glyph glyph-name="uni04B7" unicode="&#x4b7;" horiz-adv-x="422" 
d="M330 0h-54l28 198q-64 -43 -136 -43q-52 0 -95 27t-43 83q0 11 2 35l21 149h44l-19 -134q-3 -21 -3 -38q0 -46 28 -67q12 -9 28 -13q21 -6 54 -6q32 0 67.5 13t57.5 35l29 210h44l-57 -410h53l-14 -119h-46z" />
    <glyph glyph-name="uni04BA" unicode="&#x4ba;" horiz-adv-x="545" 
d="M136 682h47l-36 -257q83 33 153 33q104 0 158.5 -49.5t54.5 -134.5q0 -44 -10 -108l-24 -166h-47l24 162q10 67 10 108q0 144 -172 144q-76 0 -154 -33l-53 -381h-47z" />
    <glyph glyph-name="uni04BB" unicode="&#x4bb;" horiz-adv-x="458" 
d="M119 682h44l-45 -324l2 -2q50 53 90 77.5t87 24.5q57 0 89 -40t24 -100l-45 -318h-44l43 313q6 52 -15 78t-59 26q-42 0 -79 -25q-35 -22 -101 -90l-43 -302h-44z" />
    <glyph glyph-name="uni04C0" unicode="&#x4c0;" horiz-adv-x="198" 
d="M136 682h47l-96 -682h-47z" />
    <glyph glyph-name="uni04CF" unicode="&#x4cf;" horiz-adv-x="169" 
d="M119 682h44l-96 -682h-44z" />
    <glyph glyph-name="uni04D8" unicode="&#x4d8;" horiz-adv-x="636" 
d="M52 274q0 22 2 42h484q10 56 10 110q0 101 -50 160t-136 59q-117 0 -247 -91v53q109 84 247 84q109 0 174 -74q64 -73 64 -202q0 -176 -91 -300t-231 -124q-113 0 -169.5 72.5t-56.5 210.5zM528 272h-424v-13q0 -222 175 -222q92 0 156 64q65 65 93 171z" />
    <glyph glyph-name="uni04D9" unicode="&#x4d9;" horiz-adv-x="448" 
d="M40 215h317q2 24 2 29q0 68 -40 120q-41 53 -113 53t-140 -56v47q65 50 141 50q90 0 144 -59q55 -58 55 -157q0 -106 -60 -179q-60 -72 -148 -72q-73 0 -116.5 51.5t-43.5 138.5q0 8 2 34zM350 176h-268q0 -68 31 -106t86 -38q53 0 97 42q45 44 54 102z" />
    <glyph glyph-name="uni04E2" unicode="&#x4e2;" horiz-adv-x="698" 
d="M582 0h-47l82 587l-551 -599h-28l97 694h47l-89 -610l558 610h27zM290 833h267l-7 -51h-267z" />
    <glyph glyph-name="uni04E3" unicode="&#x4e3;" horiz-adv-x="466" 
d="M364 0h-44l49 356l-323 -365h-20l64 458h44l-54 -373l326 373h21zM423 623l-7 -51h-267l7 51h267z" />
    <glyph glyph-name="uni04E8" unicode="&#x4e8;" horiz-adv-x="656" 
d="M620 415q0 -176 -91 -300t-231 -124q-116 0 -178.5 74t-62.5 209q0 51 10.5 106t36 111t61.5 100t92.5 72t124.5 28q109 0 174 -74q64 -73 64 -202zM122 379h445q1 10 1 47q0 101 -50 160t-136 59q-112 0 -179 -86q-58 -77 -81 -180zM561 332h-447q-5 -48 -5 -73
q0 -106 50 -164t140 -58q106 0 173 82q70 83 89 213z" />
    <glyph glyph-name="uni04E9" unicode="&#x4e9;" horiz-adv-x="448" 
d="M405 270q0 -127 -65 -204q-64 -75 -149 -75q-65 0 -110 49q-45 50 -45 140q0 121 59 200q59 78 152 78q73 0 115.5 -51t42.5 -137zM352 207h-268q-1 -6 -1 -28q0 -68 28.5 -107.5t77.5 -39.5q58 0 103 49q46 49 60 126zM89 246h268q1 17 1 24q0 67 -30.5 107t-82.5 40
q-61 0 -102 -47t-54 -124z" />
    <glyph glyph-name="uni04EE" unicode="&#x4ee;" horiz-adv-x="554" 
d="M220 2l-161 680h53l144 -623l298 623h53l-311 -634q-44 -90 -81 -123q-36 -33 -85 -33q-53 0 -85 29l11 60q26 -42 85 -42q24 0 45 17.5t34 45.5zM216 833h267l-7 -51h-267z" />
    <glyph glyph-name="uni04EF" unicode="&#x4ef;" horiz-adv-x="375" 
d="M149 66l200 383h47l-355 -679h-49l125 236l-85 443h44l71 -383h2zM101 623h267l-7 -51h-267z" />
    <glyph glyph-name="Wgrave" unicode="&#x1e80;" horiz-adv-x="902" 
d="M906 682h51l-332 -691h-20l-106 569h-2l-260 -569h-21l-148 691h47l121 -575h2l265 575h19l107 -575h2zM556 728l-202 127h126l122 -127h-46z" />
    <glyph glyph-name="wgrave" unicode="&#x1e81;" horiz-adv-x="615" 
d="M407 89h2l184 360h44l-237 -458h-16l-60 354h-2l-176 -354h-16l-105 458h42l83 -360h2l178 360h18zM371 506l-152 154h80l105 -154h-33z" />
    <glyph glyph-name="Wacute" unicode="&#x1e82;" horiz-adv-x="902" 
d="M906 682h51l-332 -691h-20l-106 569h-2l-260 -569h-21l-148 691h47l121 -575h2l265 575h19l107 -575h2zM567 855h126l-202 -127h-46z" />
    <glyph glyph-name="wacute" unicode="&#x1e83;" horiz-adv-x="615" 
d="M407 89h2l184 360h44l-237 -458h-16l-60 354h-2l-176 -354h-16l-105 458h42l83 -360h2l178 360h18zM407 660h80l-152 -154h-33z" />
    <glyph glyph-name="Wdieresis" unicode="&#x1e84;" horiz-adv-x="902" 
d="M906 682h51l-332 -691h-20l-106 569h-2l-260 -569h-21l-148 691h47l121 -575h2l265 575h19l107 -575h2zM696 771q0 -17 -13 -31t-32 -14q-18 0 -31 13t-13 31t12.5 31t30.5 13q20 0 33 -12.5t13 -30.5zM406 727q-18 0 -30.5 12.5t-12.5 31.5t12.5 31.5t29.5 12.5
q28 1 39.5 -21.5t0 -45t-38.5 -21.5z" />
    <glyph glyph-name="wdieresis" unicode="&#x1e85;" horiz-adv-x="615" 
d="M407 89h2l184 360h44l-237 -458h-16l-60 354h-2l-176 -354h-16l-105 458h42l83 -360h2l178 360h18zM240 624q13 13 31 13t31 -13t13 -31t-13 -31t-31 -13t-31 13t-13 31t13 31zM398 624q13 13 31 13t31 -13t13 -31t-13 -31t-31 -13t-31 13t-13 31t13 31z" />
    <glyph glyph-name="Ygrave" unicode="&#x1ef2;" horiz-adv-x="461" 
d="M472 682h57l-255 -329l-49 -353h-47l49 353l-171 329h51l149 -282zM299 728l-202 127h126l122 -127h-46z" />
    <glyph glyph-name="ygrave" unicode="&#x1ef3;" horiz-adv-x="375" 
d="M349 449h47l-355 -679h-49l125 236l-85 443h44l71 -383h2zM251 506l-152 154h80l105 -154h-33z" />
    <glyph glyph-name="endash" unicode="&#x2013;" horiz-adv-x="500" 
d="M-6 269h512v-33h-512v33z" />
    <glyph glyph-name="emdash" unicode="&#x2014;" horiz-adv-x="1000" 
d="M-6 269h1012v-33h-1012v33z" />
    <glyph glyph-name="quoteleft" unicode="&#x2018;" horiz-adv-x="167" 
d="M140 569h20l-12 -89h-59l11 79q6 39 30 77q26 39 57 46l-4 -29q-37 -30 -43 -84z" />
    <glyph glyph-name="quoteright" unicode="&#x2019;" horiz-adv-x="167" 
d="M127 593h-20l12 89h59l-11 -79q-6 -41 -31 -78q-24 -37 -56 -45l4 29q37 30 43 84z" />
    <glyph glyph-name="quotesinglbase" unicode="&#x201a;" horiz-adv-x="167" 
d="M44 0h-20l12 89h59l-11 -79q-6 -40 -31 -77q-25 -39 -56 -46l4 29q37 30 43 84z" />
    <glyph glyph-name="quotedblleft" unicode="&#x201c;" horiz-adv-x="375" 
d="M354 569h20l-12 -89h-59l11 79q6 39 30 77q26 39 57 46l-4 -29q-37 -30 -43 -84zM177 569h20l-12 -89h-59l11 79q6 39 30 77q26 39 57 46l-4 -29q-37 -30 -43 -84z" />
    <glyph glyph-name="quotedblright" unicode="&#x201d;" horiz-adv-x="375" 
d="M310 593h-20l12 89h59l-11 -79q-6 -41 -31 -78q-24 -37 -56 -45l4 29q37 30 43 84zM132 593h-20l12 89h59l-11 -79q-6 -41 -31 -78q-24 -37 -56 -45l4 29q37 30 43 84z" />
    <glyph glyph-name="quotedblbase" unicode="&#x201e;" horiz-adv-x="375" 
d="M234 0h-20l12 89h59l-11 -79q-6 -40 -31 -77q-25 -39 -56 -46l4 29q37 30 43 84zM56 0h-20l12 89h59l-11 -79q-6 -40 -31 -77q-25 -39 -56 -46l4 29q37 30 43 84z" />
    <glyph glyph-name="dagger" unicode="&#x2020;" horiz-adv-x="479" 
d="M280 407l196 10l-7 -50l-193 8l-75 -605h-64l107 605l-201 -8l7 50l198 -10l30 284h61z" />
    <glyph glyph-name="daggerdbl" unicode="&#x2021;" horiz-adv-x="448" 
d="M259 435l185 14l-7 -55l-182 8l-12 -186l-37 -161l184 8l-7 -51l-182 11l-21 -253h-60l49 253l-182 -11l8 51l179 -8l12 184l37 163l-182 -8l8 55l178 -14l22 256h66z" />
    <glyph glyph-name="bullet" unicode="&#x2022;" horiz-adv-x="501" 
d="M179 427q36 36 86 36t86 -36t36 -86t-36 -86t-86 -36t-86 36t-36 86t36 86z" />
    <glyph glyph-name="ellipsis" unicode="&#x2026;" horiz-adv-x="1000" 
d="M764 97h65v-97h-65v97zM431 97h65v-97h-65v97zM98 97h65v-97h-65v97z" />
    <glyph glyph-name="perthousand" unicode="&#x2030;" horiz-adv-x="1051" 
d="M890 -12q-67 0 -114 47t-47 114t47 114t114 47q66 0 113 -47q48 -47 48 -114t-48 -114q-47 -47 -113 -47zM772 149q0 -50 34 -84t84 -34q49 0 83 34q35 35 35 84q0 48 -35 83t-83 35q-49 0 -84 -35q-34 -34 -34 -83zM519 -12q-67 0 -114 47t-47 114t47 114t114 47
q66 0 113 -47q48 -47 48 -114t-48 -114q-47 -47 -113 -47zM401 149q0 -50 34 -84t84 -34q49 0 83 34q35 35 35 84q0 48 -35 83t-83 35q-49 0 -84 -35q-34 -34 -34 -83zM192 369q-67 0 -114 47t-47 114t47 114t114 47q66 0 113 -47q48 -46 48 -114t-48 -114q-47 -47 -113 -47
zM74 530q0 -50 34 -84t84 -34q49 0 83 34q35 35 35 84q0 48 -35 83t-83 35q-49 0 -84 -35q-34 -34 -34 -83zM597 688h49l-549 -699h-50z" />
    <glyph glyph-name="guilsinglleft" unicode="&#x2039;" horiz-adv-x="229" 
d="M170 456h47l-164 -228l88 -221h-47l-88 223z" />
    <glyph glyph-name="guilsinglright" unicode="&#x203a;" horiz-adv-x="229" 
d="M36 7h-47l164 228l-88 221h47l88 -223z" />
    <glyph glyph-name="fraction" unicode="&#x2044;" horiz-adv-x="167" 
d="M332 691h39l-537 -718h-39z" />
    <glyph glyph-name="Euro" unicode="&#x20ac;" horiz-adv-x="503" 
d="M151 420h306l-9 -45h-311q-7 -25 -10 -66h306l-9 -45h-299q5 -110 50 -169q47 -59 112 -59q77 0 174 62l-7 -56q-90 -51 -170 -51q-83 0 -145 71q-61 71 -64 202h-57l9 45h50q3 38 10 66h-69l9 45h73q43 132 134 202q90 69 191 69q34 0 92 -14l-11 -44q-45 14 -81 14
q-90 0 -164 -64t-110 -163z" />
    <glyph glyph-name="uni20B4" unicode="&#x20b4;" 
d="M83 375l9 45h247q76 58 76 138q0 40 -26 63.5t-69 23.5q-52 0 -123 -41v49q58 38 130 38q62 0 101 -37.5t39 -94.5q0 -80 -59 -139h69l-9 -45h-115q-10 -7 -51 -34l-49 -32h206l-9 -45h-255q-63 -62 -63 -140q0 -43 29 -65t79 -22q55 0 140 46v-46q-31 -19 -75 -32.5
t-77 -13.5q-66 0 -107 37.5t-41 95.5q0 78 50 140h-65l9 45h102q21 17 96 66h-189z" />
    <glyph glyph-name="afii61289" unicode="&#x2113;" horiz-adv-x="464" 
d="M380 56q-56 -68 -121 -68q-45 0 -70 27q-34 35 -34 111v135l-60 -69q-17 15 -30 28l90 107v243q0 77 27.5 117.5t76.5 40.5q40 0 62.5 -28.5t22.5 -67.5q0 -115 -109 -269q-15 -23 -30 -41v-203q0 -44 16.5 -66t44.5 -22q41 0 89 54q3 -4 13 -14.5t12 -14.5zM296 628
q0 57 -38 57q-53 0 -53 -119v-173q9 11 18 26q73 115 73 209z" />
    <glyph glyph-name="afii61352" unicode="&#x2116;" horiz-adv-x="1112" 
d="M151 682l399 -595l72 511q14 96 113 96h58l-7 -46h-55q-28 0 -40 -11.5t-16 -42.5l-88 -603h-24l-399 587l-81 -578h-53l96 682h25zM938 506q63 0 105 -42q42 -40 42 -102q0 -84 -58 -138q-58 -53 -136 -53q-63 0 -104 41t-41 103q0 75 56 133q55 58 136 58zM932 459
q-64 0 -99 -42q-35 -43 -35 -96q0 -45 28 -74t72 -29q57 0 95 37q40 37 40 100q0 45 -28.5 74.5t-72.5 29.5zM692 60l8 53h366l-8 -53h-366z" />
    <glyph glyph-name="trademark" unicode="&#x2122;" horiz-adv-x="938" 
d="M100 673v41h310v-41h-129v-356h-51v356h-130zM456 317v397h75l99 -317h2l104 317h75v-397h-45v356h-2l-117 -356h-34l-110 356h-2v-356h-45z" />
    <glyph glyph-name="Omega" unicode="&#x2126;" horiz-adv-x="670" 
d="M449 43h126l-8 -43h-203l9 44q219 142 219 367q0 111 -62 173t-157 62q-121 0 -194 -90q-73 -88 -73 -236q0 -168 116 -276l-10 -44h-215l8 43h157q-107 113 -107 285q0 156 87 260q87 103 233 103q121 0 195 -74t74 -200q0 -225 -195 -374z" />
    <glyph glyph-name="estimated" unicode="&#x212e;" horiz-adv-x="637" 
d="M601 285h-439v-196q64 -64 155 -64q134 0 210 130q28 -17 36 -22q-50 -75 -107 -110t-139 -35q-125 0 -201 85t-76 212t75 212q76 85 203 85q128 0 203 -84q76 -85 80 -213zM162 322h313v158q-68 65 -158 65q-94 0 -155 -64v-159z" />
    <glyph glyph-name="onethird" unicode="&#x2153;" horiz-adv-x="812" 
d="M210 687h37l-60 -355h-39zM655 691h39l-537 -718h-39zM492 24l5 29q49 -31 99 -31q49 0 75.5 25.5t26.5 60.5q0 44 -37 55q-30 10 -55 11l4 22q47 0 71 11q43 19 43 60q0 27 -21 46.5t-65 19.5q-34 0 -84 -26l5 32q47 21 84 21q52 0 85 -27.5t33 -64.5q0 -60 -77 -86
q54 -27 54 -75q0 -47 -38.5 -79.5t-100.5 -32.5q-60 0 -107 29z" />
    <glyph glyph-name="twothirds" unicode="&#x2154;" horiz-adv-x="812" 
d="M667 691h39l-537 -718h-39zM122 361h170l-5 -29h-246q87 76 163 163q63 72 63 113q-1 31 -21 44t-40 11q-24 0 -46 -8q-17 -7 -61 -31l7 37q62 30 105 30q40 0 67.5 -21t27.5 -60q0 -45 -60 -117q-31 -39 -124 -132zM492 24l5 29q49 -31 99 -31q49 0 75.5 25.5t26.5 60.5
q0 44 -37 55q-30 10 -55 11l4 22q47 0 72 11q42 21 42 60q0 27 -21 46.5t-64 19.5q-35 0 -85 -26l5 32q47 21 85 21q52 0 84.5 -27.5t32.5 -64.5q0 -60 -77 -86q54 -27 54 -75q0 -47 -38.5 -79.5t-100.5 -32.5q-60 0 -107 29z" />
    <glyph glyph-name="oneeighth" unicode="&#x215b;" horiz-adv-x="812" 
d="M717 186q55 -19 55 -73q0 -46 -40 -82t-100 -36q-51 0 -85 28.5t-34 70.5q0 75 89 98q-46 22 -46 66q0 43 36.5 72.5t88.5 29.5q49 0 77.5 -25.5t28.5 -62.5q0 -61 -70 -86zM746 271q0 26 -16.5 43t-49.5 17q-35 0 -58.5 -22t-23.5 -52q0 -24 19.5 -39.5t50.5 -15.5
q37 0 57.5 20t20.5 49zM731 111q0 26 -19.5 45t-60.5 19q-46 0 -72 -24.5t-26 -58.5q0 -31 21 -51t58 -20q42 0 70.5 25.5t28.5 64.5zM655 691h39l-537 -718h-39zM211 687h38l-62 -355h-39z" />
    <glyph glyph-name="threeeighths" unicode="&#x215c;" horiz-adv-x="812" 
d="M717 186q55 -19 55 -73q0 -49 -42 -84q-41 -34 -98 -34q-51 0 -85 28.5t-34 70.5q0 15 6 31q19 52 83 67q-45 22 -45 66t36 72q37 30 88 30q50 0 78.5 -25.5t28.5 -62.5q0 -60 -71 -86zM746 271q0 26 -16.5 43t-49.5 17q-35 0 -58.5 -22t-23.5 -52q0 -24 19.5 -39.5
t50.5 -15.5q37 0 57.5 21t20.5 48zM731 111q0 26 -19.5 45t-60.5 19q-45 0 -71.5 -25t-26.5 -58q0 -30 21.5 -50.5t58.5 -20.5q40 0 69 26t29 64zM667 691h39l-537 -718h-39zM49 355l5 29q56 -30 99 -30q49 0 75.5 25.5t26.5 60.5q0 62 -91 65l3 23q47 0 72 11q42 19 42 60
q0 27 -20.5 46t-64.5 19q-38 0 -85 -26l5 32q46 21 85 21q52 0 85 -27t33 -64q0 -62 -78 -87q54 -27 54 -75q0 -47 -38 -79t-101 -32q-61 0 -107 28z" />
    <glyph glyph-name="fiveeighths" unicode="&#x215d;" horiz-adv-x="812" 
d="M717 186q55 -19 55 -73q0 -49 -42 -84q-41 -34 -98 -34q-51 0 -85 28.5t-34 70.5q0 15 6 31q19 52 83 67q-46 22 -46 66q0 43 36.5 72.5t88.5 29.5q49 0 77.5 -25.5t28.5 -62.5q0 -61 -70 -86zM746 271q0 26 -16.5 43t-49.5 17q-35 0 -58.5 -22t-23.5 -52
q0 -24 19.5 -39.5t50.5 -15.5q37 0 57.5 21t20.5 48zM731 111q0 26 -19.5 45t-60.5 19q-46 0 -72 -24.5t-26 -58.5q0 -31 21 -51t58 -20q42 0 70.5 25.5t28.5 64.5zM142 687h182l-5 -28h-144l-18 -102q78 5 110 -30q33 -35 33 -74q0 -52 -43 -89t-106 -37q-60 0 -107 32
l15 25q50 -29 91 -29q45 0 77 28q33 29 33 71q0 37 -25 57t-66 20q-20 0 -56 -9zM655 691h39l-537 -718h-39z" />
    <glyph glyph-name="seveneighths" unicode="&#x215e;" horiz-adv-x="812" 
d="M717 186q55 -19 55 -73q0 -49 -42 -84q-41 -34 -98 -34q-51 0 -85 28.5t-34 70.5q0 15 6 31q19 52 83 67q-46 22 -46 66q0 43 36.5 72.5t88.5 29.5q49 0 77.5 -25.5t28.5 -62.5q0 -61 -70 -86zM746 271q0 26 -16.5 43t-49.5 17q-35 0 -58.5 -22t-23.5 -52
q0 -24 19.5 -39.5t50.5 -15.5q37 0 57.5 21t20.5 48zM731 111q0 26 -19.5 45t-60.5 19q-46 0 -72 -24.5t-26 -58.5q0 -31 21 -51t58 -20q42 0 70.5 25.5t28.5 64.5zM95 687h248l-211 -355h-40l194 328h-194zM649 691h39l-537 -718h-39z" />
    <glyph glyph-name="partialdiff" unicode="&#x2202;" horiz-adv-x="537" 
d="M487 505q0 -90 -26 -199q-30 -121 -89 -210q-32 -49 -77.5 -77.5t-97.5 -28.5q-69 0 -110.5 48t-41.5 128q0 136 77 236q76 99 179 99q91 0 128 -75h2q6 44 6 79q0 177 -135 177q-46 0 -87 -25l-16 39q47 29 108 29q86 0 133 -56.5t47 -163.5zM422 365q-12 43 -43.5 68
t-79.5 25q-82 0 -143 -88t-61 -205q0 -62 28.5 -97t76.5 -35q74 0 132.5 87.5t89.5 244.5z" />
    <glyph glyph-name="increment" unicode="&#x2206;" horiz-adv-x="537" 
d="M489 0h-518l321 691h43zM42 43h391l-127 567z" />
    <glyph glyph-name="product" unicode="&#x220f;" horiz-adv-x="667" 
d="M582 700v-930h-50v886h-396v-886h-50v930h496z" />
    <glyph glyph-name="summation" unicode="&#x2211;" horiz-adv-x="589" 
d="M561 -187v-43h-538v19l328 450l-303 436v25h487v-43h-418l289 -417l-310 -427h465z" />
    <glyph glyph-name="minus" unicode="&#x2212;" horiz-adv-x="660" 
d="M81 329v44h524v-44h-524z" />
    <glyph glyph-name="uni2215" unicode="&#x2215;" horiz-adv-x="167" 
d="M332 691h39l-537 -718h-39z" />
    <glyph glyph-name="uni2219" unicode="&#x2219;" horiz-adv-x="281" 
d="M118 384q16 16 38 16t38 -16t16 -38t-16 -38t-38 -16t-38 16t-16 38t16 38z" />
    <glyph glyph-name="radical" unicode="&#x221a;" horiz-adv-x="461" 
d="M427 728h46l-187 -740h-42l-136 359l-52 -28q-2 8 -18 37l98 51l127 -336z" />
    <glyph glyph-name="infinity" unicode="&#x221e;" horiz-adv-x="723" 
d="M669 294q0 -63 -40 -106q-39 -43 -101 -43q-104 0 -167 107h-2q-68 -107 -159 -107q-67 0 -107 40.5t-40 103.5q0 66 39 107.5t104 41.5q100 0 164 -106h2q69 106 161 106q64 0 105 -39.5t41 -104.5zM620 293q0 46 -25.5 74t-71.5 28q-76 0 -140 -103q59 -104 139 -104
q47 0 72.5 29t25.5 76zM339 292q-25 46 -63.5 74.5t-76.5 28.5q-47 0 -72 -28.5t-25 -77.5q0 -45 27.5 -73t69.5 -28q75 0 140 104z" />
    <glyph glyph-name="integral" unicode="&#x222b;" horiz-adv-x="462" 
d="M394 737l-12 -41q-18 9 -43 9q-83 0 -83 -102v-677q0 -68 -35.5 -106.5t-96.5 -38.5q-38 0 -57 10l12 41q26 -8 43 -8q84 0 84 101v679q0 67 35.5 105.5t97.5 38.5q38 0 55 -11z" />
    <glyph glyph-name="approxequal" unicode="&#x2248;" horiz-adv-x="660" 
d="M528 451l32 -31q-56 -81 -131 -81q-53 0 -106 34q-55 34 -93 34q-55 0 -97 -66l-32 32q56 80 130 80q55 0 106 -33q56 -35 93 -35q54 0 98 66zM528 244l32 -32q-57 -80 -131 -80q-53 0 -106 34q-55 34 -93 34q-55 0 -97 -67l-32 33q56 80 130 80q54 0 106 -34
q53 -34 93 -34q54 0 98 66z" />
    <glyph glyph-name="notequal" unicode="&#x2260;" horiz-adv-x="660" 
d="M548 211v-46h-259l-68 -142h-48l69 142h-129v46h152l78 162h-230v46h252l68 142h48l-69 -142h136v-46h-158l-78 -162h236z" />
    <glyph glyph-name="lessequal" unicode="&#x2264;" horiz-adv-x="660" 
d="M548 46v-46h-435v46h435zM548 181v-52l-435 207v22l435 206v-52l-353 -164v-2z" />
    <glyph glyph-name="greaterequal" unicode="&#x2265;" horiz-adv-x="660" 
d="M548 46v-46h-435v46h435zM548 358v-22l-435 -207v52l353 164v2l-353 165v52z" />
    <glyph glyph-name="lozenge" unicode="&#x25ca;" horiz-adv-x="516" 
d="M272 700l187 -350l-187 -350h-30l-187 349l187 351h30zM256 65l154 285l-153 285l-153 -285z" />
    <glyph glyph-name="NULL" horiz-adv-x="0" 
 />
    <glyph glyph-name="CR" horiz-adv-x="333" 
 />
    <glyph glyph-name="ampersand.sc" horiz-adv-x="442" 
d="M426 39l-23 -44q-66 -7 -127 48q-59 -49 -124 -49q-61 0 -101 37t-40 94q0 89 111 145q-29 63 -29 104q0 50 30.5 82.5t76.5 32.5q40 0 69 -29t29 -70q0 -77 -116 -139q55 -95 94 -146q55 56 91 135h47q-27 -76 -106 -167q55 -48 118 -34zM252 393q0 22 -15 37.5
t-38 15.5q-27 0 -44.5 -19.5t-17.5 -47.5q0 -40 25 -89q90 48 90 103zM245 74q-40 48 -102 158q-85 -48 -85 -107q0 -38 26.5 -62.5t67.5 -24.5q50 0 93 36z" />
    <glyph glyph-name="zero.oldstyle" horiz-adv-x="487" 
d="M24 176q0 70 24 132q26 63 81 106q58 44 137 44q85 0 135 -47t50 -140q0 -68 -28 -135q-22 -63 -76 -103.5t-139 -41.5q-97 0 -141 53q-43 52 -43 132zM78 180q0 -74 36 -110.5t97 -36.5q50 0 89.5 24t58.5 63q38 73 38 146q0 69 -33 109.5t-104 40.5q-86 0 -134 -71
t-48 -165z" />
    <glyph glyph-name="one.oldstyle" horiz-adv-x="292" 
d="M210 458l-67 -458h-46l56 378l-129 -97l12 63l152 114h22z" />
    <glyph glyph-name="two.oldstyle" horiz-adv-x="439" 
d="M145 40h223l-6 -40h-331q143 114 173 141q40 34 69 68q56 62 56 118q0 42 -27 67t-70 25q-82 0 -162 -83v48l37 32q19 15 55 28.5t72 13.5q73 0 107 -40q35 -40 35 -85q0 -68 -57 -134t-174 -159z" />
    <glyph glyph-name="three.oldstyle" horiz-adv-x="408" 
d="M72 106l240 303h-260l4 40h342l-241 -301q60 -9 95 -32q74 -48 74 -146q0 -89 -62 -145t-142 -56q-85 0 -175 54l13 41q89 -54 158 -54t112 43q45 42 45 110q0 70 -43.5 110.5t-110.5 40.5q-19 0 -49 -8z" />
    <glyph glyph-name="four.oldstyle" horiz-adv-x="456" 
d="M353 458h10l-61 -422h112l-5 -36h-112l-34 -230h-46l33 230h-285v13zM35 36h221l46 308z" />
    <glyph glyph-name="five.oldstyle" horiz-adv-x="464" 
d="M181 449h241l-7 -40h-201l-79 -260q39 7 61 7q92 0 141 -51q51 -51 51 -124q0 -85 -64 -148q-63 -63 -164 -63q-85 0 -172 57l16 39q83 -56 158 -56q69 0 122 47t53 119q0 61 -37.5 100.5t-108.5 39.5q-28 0 -120 -14z" />
    <glyph glyph-name="six.oldstyle" horiz-adv-x="460" 
d="M298 682l36 -20l-206 -300q74 56 143 56q47 0 95 -29q59 -35 59 -131q0 -104 -69 -186q-68 -81 -163 -81q-77 0 -123 54q-46 55 -46 131q0 50 24 112q27 65 48 100q28 43 66 98zM378 261q0 55 -31 85.5t-78 30.5q-76 0 -138 -56q-61 -55 -61 -148q0 -63 34.5 -100
t87.5 -37q78 0 132 68q54 69 54 157z" />
    <glyph glyph-name="seven.oldstyle" horiz-adv-x="414" 
d="M39 449h375l-351 -679l-39 19l326 620h-316z" />
    <glyph glyph-name="eight.oldstyle" horiz-adv-x="499" 
d="M332 360q54 -12 83.5 -52t29.5 -95q0 -90 -67 -156q-68 -66 -160 -66q-82 0 -137 53q-54 54 -54 131q0 46 22.5 89t61.5 69q38 24 85 33q-36 17 -61 39q-35 32 -35 95q0 80 58 135q59 56 142 56q47 0 82.5 -16.5t54 -43t27 -52.5t8.5 -51q0 -40 -19.5 -77.5t-54.5 -61.5
q-21 -15 -66 -29zM422 524q0 49 -31 86q-30 38 -90 38q-67 0 -109 -47t-42 -103q0 -51 36.5 -83t92.5 -32q71 0 107 45q36 46 36 96zM396 208q0 52 -36 93q-35 41 -109 41q-84 0 -130 -52q-46 -50 -46 -117q0 -62 39 -103t104 -41q75 0 126 53q52 52 52 126z" />
    <glyph glyph-name="nine.oldstyle" horiz-adv-x="461" 
d="M149 -230l-39 26l210 293q-68 -56 -139 -56q-44 0 -76.5 16t-49 42t-24 51.5t-7.5 49.5q0 61 27 121q27 61 82 102q55 43 124 43q77 0 123 -52t46 -134q0 -58 -27 -121q-28 -65 -100 -168zM380 277q0 66 -35 102.5t-87 36.5q-81 0 -135 -72q-53 -73 -53 -155
q0 -49 28 -82t81 -33q82 0 141 59q60 59 60 144z" />
    <glyph glyph-name="a.sc" horiz-adv-x="398" 
d="M242 489l109 -489h-45l-38 170h-161l-78 -170h-45l221 489h37zM126 212h133l-44 196z" />
    <glyph glyph-name="b.sc" horiz-adv-x="367" 
d="M327 143q0 -64 -49.5 -103.5t-128.5 -39.5h-135l66 484h50q75 0 117 -35t42 -88q0 -58 -53 -93q91 -34 91 -125zM141 442h-24l-21 -161h40q51 0 78.5 21.5t27.5 58.5t-27 59t-74 22zM280 141q0 43 -31.5 70.5t-81.5 27.5h-76l-28 -197h82q68 0 101.5 28t33.5 71z" />
    <glyph glyph-name="c.sc" horiz-adv-x="403" 
d="M391 481l-5 -40q-44 6 -60 6q-107 0 -181 -77q-73 -76 -73 -173q0 -69 40 -115t100 -46q70 0 153 56l-8 -52q-76 -46 -145 -46q-72 0 -130 55q-57 55 -57 147q0 114 86 203q85 90 216 90q27 0 64 -8z" />
    <glyph glyph-name="d.sc" horiz-adv-x="433" 
d="M409 237q0 -105 -69 -171t-173 -66h-153l66 484h87q96 0 169 -67t73 -180zM362 237q0 94 -61 149q-61 56 -148 56h-33l-56 -400h91q57 0 99.5 18.5t64.5 48.5t32.5 62t10.5 66z" />
    <glyph glyph-name="e.sc" horiz-adv-x="376" 
d="M63 42h271l-5 -42h-315l66 484h246l-6 -42h-202l-24 -174h192l-7 -42h-190z" />
    <glyph glyph-name="f.sc" horiz-adv-x="301" 
d="M81 484h222l-6 -42h-178l-24 -176h166l-5 -42h-167l-31 -224h-44z" />
    <glyph glyph-name="g.sc" horiz-adv-x="450" 
d="M447 476l-6 -41q-55 12 -89 12q-126 0 -199 -72q-74 -71 -74 -174q0 -72 43 -118q43 -45 112 -45q46 0 106 29l13 95h-103l6 42h147l-23 -160q-71 -50 -150 -50q-77 0 -138 56q-60 57 -60 154q0 114 87 200q88 85 236 85q46 0 92 -13z" />
    <glyph glyph-name="h.sc" horiz-adv-x="470" 
d="M413 483h43l-66 -483h-43l30 225h-289l-30 -225h-44l65 483h44l-29 -216h289z" />
    <glyph glyph-name="i.sc" horiz-adv-x="138" 
d="M80 483h44l-66 -483h-44z" />
    <glyph glyph-name="j.sc" horiz-adv-x="158" 
d="M101 483h43l-72 -523q-9 -61 -40 -90t-76 -29q-23 0 -44 7l-9 48q27 -10 52 -10q36 0 53.5 23.5t25.5 82.5z" />
    <glyph glyph-name="k.sc" horiz-adv-x="409" 
d="M335 484h65l-262 -223l247 -261h-57l-236 249l-34 -249h-44l66 484h44l-27 -202z" />
    <glyph glyph-name="l.sc" horiz-adv-x="327" 
d="M79 44h206l-6 -44h-249l66 483h44z" />
    <glyph glyph-name="m.sc" horiz-adv-x="553" 
d="M504 483v-483h-45v380l-195 -380h-20l-79 385l-124 -385h-46l156 483h36l79 -386l199 386h39z" />
    <glyph glyph-name="n.sc" horiz-adv-x="459" 
d="M402 483h43l-66 -487h-23l-244 394l-54 -390h-44l67 483h26l241 -392z" />
    <glyph glyph-name="o.sc" horiz-adv-x="441" 
d="M416 292q0 -122 -63 -211q-63 -87 -160 -87q-80 0 -124 53t-44 148q0 97 50 189q26 47 72 76t103 29q77 0 121.5 -53.5t44.5 -143.5zM369 300q0 68 -32.5 106.5t-86.5 38.5q-47 0 -83.5 -26t-57.5 -69q-37 -83 -37 -165q0 -71 32 -109t90 -38q80 0 127 75q48 77 48 187z
" />
    <glyph glyph-name="p.sc" horiz-adv-x="342" 
d="M170 212h-67l-29 -212h-44l66 484h97q60 0 97.5 -37t37.5 -95q0 -61 -40.5 -100.5t-117.5 -39.5zM281 350q0 41 -25 66.5t-67 25.5h-55l-26 -188h59q59 0 86.5 26.5t27.5 69.5z" />
    <glyph glyph-name="q.sc" horiz-adv-x="441" 
d="M408 12h21q5 -63 -25.5 -104.5t-88.5 -41.5q-50 0 -93.5 36t-61.5 92q-71 11 -103 68q-32 59 -32 131q0 69 23 135q24 66 77 113q54 48 127 48q78 0 121 -52.5t43 -145.5q0 -69 -21 -134q-22 -66 -71 -111.5t-113 -51.5q39 -81 110 -81q39 0 62.5 26.5t24.5 72.5z
M369 299q0 70 -31.5 108t-87.5 38q-80 0 -129 -76t-49 -186q0 -69 33 -107t92 -38q79 0 125 79q47 80 47 182z" />
    <glyph glyph-name="r.sc" horiz-adv-x="388" 
d="M277 162l88 -162h-49l-79 144q-34 62 -37 64q-10 13 -36 13h-58l-30 -221h-44l65 484h111q60 0 94.5 -36.5t34.5 -93.5q0 -48 -27 -82.5t-73 -47.5q14 -14 40 -62zM290 354q0 37 -21.5 62.5t-63.5 25.5h-69l-24 -179h76q48 0 75 24.5t27 66.5z" />
    <glyph glyph-name="s.sc" horiz-adv-x="298" 
d="M272 459l-11 -40q-53 27 -80 27q-32 0 -56 -25t-24 -59q0 -28 15.5 -50t38 -38.5t45 -34.5t38 -46.5t15.5 -65.5q0 -57 -38 -95t-94 -38q-25 0 -55 10t-49 25l11 43q56 -35 90 -35q39 0 64.5 24t25.5 66q0 34 -24 63t-52 47.5t-52 50t-24 70.5q0 56 36 93q36 38 89 38
q57 0 91 -30z" />
    <glyph glyph-name="t.sc" horiz-adv-x="337" 
d="M47 483h315l-5 -41h-136l-61 -442h-43l60 442h-135z" />
    <glyph glyph-name="u.sc" horiz-adv-x="442" 
d="M396 483h43l-43 -312q-12 -86 -66 -131.5t-127 -45.5q-71 0 -118 51t-36 131l42 307h44l-42 -304q-9 -67 23.5 -105t91.5 -38q61 0 98 39.5t46 100.5z" />
    <glyph glyph-name="v.sc" horiz-adv-x="370" 
d="M339 483h46l-213 -489h-22l-99 489h44l74 -383z" />
    <glyph glyph-name="w.sc" horiz-adv-x="651" 
d="M618 483h48l-229 -489h-22l-69 380l-170 -380h-23l-102 489h44l79 -386l173 386h22l70 -386z" />
    <glyph glyph-name="x.sc" horiz-adv-x="495" 
d="M438 483h58l-216 -232l164 -251h-52l-143 216l-201 -216h-59l236 252l-151 231h52l131 -196z" />
    <glyph glyph-name="y.sc" horiz-adv-x="365" 
d="M330 483h54l-178 -236l-33 -247h-44l33 249l-118 234h48l97 -190z" />
    <glyph glyph-name="z.sc" horiz-adv-x="455" 
d="M456 483v-20l-375 -421h317l-5 -42h-392v19l376 423h-303l5 41h377z" />
    <glyph glyph-name="lslash.sc" horiz-adv-x="327" 
d="M79 44h206l-6 -44h-249l28 207l-67 -47l6 39l67 47l32 237h44l-28 -203l124 87l-5 -39l-125 -87z" />
    <glyph glyph-name="scaron.sc" horiz-adv-x="298" 
d="M272 459l-11 -40q-53 27 -80 27q-32 0 -56 -25t-24 -59q0 -28 15.5 -50t38 -38.5t45 -34.5t38 -46.5t15.5 -65.5q0 -57 -38 -95t-94 -38q-25 0 -55 10t-49 25l11 43q56 -35 90 -35q39 0 64.5 24t25.5 66q0 34 -24 63t-52 47.5t-52 50t-24 70.5q0 56 36 93q36 38 89 38
q57 0 91 -30zM230 537h-80l-90 132h52l76 -87l150 87h51z" />
    <glyph glyph-name="zcaron.sc" horiz-adv-x="455" 
d="M456 483v-20l-375 -421h317l-5 -42h-392v19l376 423h-303l5 41h377zM308 537h-80l-90 132h52l76 -87l150 87h51z" />
    <glyph glyph-name="agrave.sc" horiz-adv-x="398" 
d="M242 489l109 -489h-45l-38 170h-161l-78 -170h-45l221 489h37zM126 212h133l-44 196zM261 537l-202 127h126l122 -127h-46z" />
    <glyph glyph-name="aacute.sc" horiz-adv-x="398" 
d="M242 489l109 -489h-45l-38 170h-161l-78 -170h-45l221 489h37zM126 212h133l-44 196zM288 664h126l-202 -127h-46z" />
    <glyph glyph-name="acircumflex.sc" horiz-adv-x="398" 
d="M242 489l109 -489h-45l-38 170h-161l-78 -170h-45l221 489h37zM126 212h133l-44 196zM203 669h80l90 -132h-52l-76 87l-150 -87h-51z" />
    <glyph glyph-name="atilde.sc" horiz-adv-x="398" 
d="M242 489l109 -489h-45l-38 170h-161l-78 -170h-45l221 489h37zM126 212h133l-44 196zM99 545h-41q3 50 12 68q29 51 79 51q23 0 41 -7t53 -28q49 -27 68 -27q15 2 23.5 11t11.5 20t5 30h38q2 -57 -24 -88.5t-66 -31.5q-32 0 -87 31q-57 33 -73 33q-37 0 -40 -62z" />
    <glyph glyph-name="adieresis.sc" horiz-adv-x="398" 
d="M242 489l109 -489h-45l-38 170h-161l-78 -170h-45l221 489h37zM126 212h133l-44 196zM406 605q0 -17 -13 -31t-32 -14q-18 0 -31 13.5t-13 31.5t12.5 30.5t30.5 12.5q20 0 33 -12.5t13 -30.5zM160 605q0 -18 -13 -31t-31 -13t-30.5 13t-12.5 32t12.5 31.5t29.5 12.5
q20 0 32.5 -13t12.5 -32z" />
    <glyph glyph-name="aring.sc" horiz-adv-x="398" 
d="M242 489l109 -489h-45l-38 170h-161l-78 -170h-45l221 489h37zM126 212h133l-44 196zM330 641q0 -43 -30.5 -73.5t-73.5 -30.5t-73.5 30.5t-30.5 73.5q0 44 30.5 74.5t73.5 30.5t73.5 -30.5t30.5 -74.5zM225 714q-29 0 -50.5 -21t-21.5 -51t21 -51.5t51 -21.5t51.5 21.5
t21.5 51.5t-21.5 51t-51.5 21z" />
    <glyph glyph-name="ae.sc" horiz-adv-x="594" 
d="M287 42h266l-6 -42h-309l31 224h-106l-137 -224h-50l296 484h272l-6 -42h-196l-24 -176h183l-6 -42h-183zM274 266l24 176h-2l-106 -176h84z" />
    <glyph glyph-name="ccedilla.sc" horiz-adv-x="403" 
d="M391 481l-5 -42q-44 6 -60 6q-109 0 -182 -76q-72 -77 -72 -172q0 -68 40 -114q40 -45 100 -45q70 0 153 56l-8 -54q-66 -40 -131 -45l-12 -29q16 -5 26 -19.5t10 -32.5q0 -48 -38 -70.5t-101 -13.5l10 32q47 -5 69 10q24 15 24 42t-41 29l22 52q-67 7 -119 61
q-51 54 -51 140q0 114 86 203q85 90 216 90q27 0 64 -8z" />
    <glyph glyph-name="egrave.sc" horiz-adv-x="376" 
d="M63 42h271l-5 -42h-315l66 484h246l-6 -42h-202l-24 -174h192l-7 -42h-190zM260 537l-202 127h126l122 -127h-46z" />
    <glyph glyph-name="eacute.sc" horiz-adv-x="376" 
d="M63 42h271l-5 -42h-315l66 484h246l-6 -42h-202l-24 -174h192l-7 -42h-190zM287 664h126l-202 -127h-46z" />
    <glyph glyph-name="ecircumflex.sc" horiz-adv-x="376" 
d="M63 42h271l-5 -42h-315l66 484h246l-6 -42h-202l-24 -174h192l-7 -42h-190zM200 669h80l90 -132h-52l-76 87l-150 -87h-51z" />
    <glyph glyph-name="edieresis.sc" horiz-adv-x="376" 
d="M63 42h271l-5 -42h-315l66 484h246l-6 -42h-202l-24 -174h192l-7 -42h-190zM405 605q0 -17 -13 -31t-32 -14q-18 0 -31 13.5t-13 31.5t12.5 30.5t30.5 12.5q20 0 33 -12.5t13 -30.5zM159 605q0 -18 -13 -31t-31 -13t-30.5 13t-12.5 32t12.5 31.5t29.5 12.5q20 0 32.5 -13
t12.5 -32z" />
    <glyph glyph-name="igrave.sc" horiz-adv-x="138" 
d="M80 483h44l-66 -483h-44zM141 537l-202 127h126l122 -127h-46z" />
    <glyph glyph-name="iacute.sc" horiz-adv-x="138" 
d="M80 483h44l-66 -483h-44zM188 664h126l-202 -127h-46z" />
    <glyph glyph-name="icircumflex.sc" horiz-adv-x="138" 
d="M80 483h44l-66 -483h-44zM81 669h80l90 -132h-52l-76 87l-150 -87h-51z" />
    <glyph glyph-name="idieresis.sc" horiz-adv-x="138" 
d="M80 483h44l-66 -483h-44zM301 605q0 -17 -13 -31t-32 -14q-18 0 -31 13.5t-13 31.5t12.5 30.5t30.5 12.5q20 0 33 -12.5t13 -30.5zM55 605q0 -18 -13 -31t-31 -13t-30.5 13t-12.5 32t12.5 31.5t29.5 12.5q20 0 32.5 -13t12.5 -32z" />
    <glyph glyph-name="eth.sc" horiz-adv-x="433" 
d="M0 219l6 43h44l30 222h87q96 0 169 -67t73 -180q0 -105 -69 -171t-173 -66h-153l30 219h-44zM120 442l-25 -180h150l-6 -43h-150l-25 -177h91q57 0 99.5 18.5t64.5 48.5t32.5 62t10.5 66q0 94 -61 149q-61 56 -148 56h-33z" />
    <glyph glyph-name="ntilde.sc" horiz-adv-x="459" 
d="M402 483h43l-66 -487h-23l-244 394l-54 -390h-44l67 483h26l241 -392zM160 545h-41q3 50 12 68q29 51 79 51q23 0 41 -7t53 -28q49 -27 68 -27q15 2 23.5 11t11.5 20t5 30h38q2 -57 -24 -88.5t-66 -31.5q-32 0 -87 31q-57 33 -73 33q-37 0 -40 -62z" />
    <glyph glyph-name="ograve.sc" horiz-adv-x="441" 
d="M416 292q0 -122 -63 -211q-63 -87 -160 -87q-80 0 -124 53t-44 148q0 97 50 189q26 47 72 76t103 29q77 0 121.5 -53.5t44.5 -143.5zM369 300q0 68 -32.5 106.5t-86.5 38.5q-47 0 -83.5 -26t-57.5 -69q-37 -83 -37 -165q0 -71 32 -109t90 -38q80 0 127 75q48 77 48 187z
M298 537l-202 127h126l122 -127h-46z" />
    <glyph glyph-name="oacute.sc" horiz-adv-x="441" 
d="M416 292q0 -122 -63 -211q-63 -87 -160 -87q-80 0 -124 53t-44 148q0 97 50 189q26 47 72 76t103 29q77 0 121.5 -53.5t44.5 -143.5zM369 300q0 68 -32.5 106.5t-86.5 38.5q-47 0 -83.5 -26t-57.5 -69q-37 -83 -37 -165q0 -71 32 -109t90 -38q80 0 127 75q48 77 48 187z
M339 664h126l-202 -127h-46z" />
    <glyph glyph-name="ocircumflex.sc" horiz-adv-x="441" 
d="M416 292q0 -122 -63 -211q-63 -87 -160 -87q-80 0 -124 53t-44 148q0 97 50 189q26 47 72 76t103 29q77 0 121.5 -53.5t44.5 -143.5zM369 300q0 68 -32.5 106.5t-86.5 38.5q-47 0 -83.5 -26t-57.5 -69q-37 -83 -37 -165q0 -71 32 -109t90 -38q80 0 127 75q48 77 48 187z
M248 669h80l90 -132h-52l-76 87l-150 -87h-51z" />
    <glyph glyph-name="otilde.sc" horiz-adv-x="441" 
d="M416 292q0 -122 -63 -211q-63 -87 -160 -87q-80 0 -124 53t-44 148q0 97 50 189q26 47 72 76t103 29q77 0 121.5 -53.5t44.5 -143.5zM369 300q0 68 -32.5 106.5t-86.5 38.5q-47 0 -83.5 -26t-57.5 -69q-37 -83 -37 -165q0 -71 32 -109t90 -38q80 0 127 75q48 77 48 187z
M151 545h-41q3 50 12 68q28 51 79 51q23 0 41 -7t53 -28q49 -27 68 -27q15 2 23.5 11t11.5 20t5 30h38q2 -57 -24 -88.5t-66 -31.5q-32 0 -87 31q-57 33 -73 33q-37 0 -40 -62z" />
    <glyph glyph-name="odieresis.sc" horiz-adv-x="441" 
d="M416 292q0 -122 -63 -211q-63 -87 -160 -87q-80 0 -124 53t-44 148q0 97 50 189q26 47 72 76t103 29q77 0 121.5 -53.5t44.5 -143.5zM369 300q0 68 -32.5 106.5t-86.5 38.5q-47 0 -83.5 -26t-57.5 -69q-37 -83 -37 -165q0 -71 32 -109t90 -38q80 0 127 75q48 77 48 187z
M453 605q0 -17 -13 -31t-32 -14q-18 0 -31 13.5t-13 31.5t12.5 30.5t30.5 12.5q20 0 33 -12.5t13 -30.5zM207 605q0 -18 -13 -31t-31 -13t-30.5 13t-12.5 32t12.5 31.5t29.5 12.5q20 0 32.5 -13t12.5 -32z" />
    <glyph glyph-name="oe.sc" horiz-adv-x="690" 
d="M375 42h274l-6 -42h-388q-128 0 -183 73q-47 65 -47 139q0 57 22.5 112t52.5 85q44 44 104 59q60 16 177 16h258l-6 -42h-203l-24 -176h192l-6 -42h-192zM332 42l54 400q-77 2 -86 1q-114 -5 -167 -65q-61 -68 -61 -166q0 -79 47 -124.5t132 -45.5h81z" />
    <glyph glyph-name="oslash.sc" horiz-adv-x="441" 
d="M387 530l31 -21l-47 -73q45 -52 45 -144q0 -122 -63 -211q-63 -87 -160 -87q-55 0 -93 25l-44 -68l-32 19l48 74q-47 53 -47 151q0 97 50 189q26 47 72 76t103 29q56 0 93 -27zM369 300q0 60 -24 96l-220 -339q28 -19 69 -19q80 0 127 75q48 77 48 187zM98 84l220 340
q-29 21 -68 21q-47 0 -83.5 -26t-57.5 -69q-37 -83 -37 -165q0 -63 26 -101z" />
    <glyph glyph-name="ugrave.sc" horiz-adv-x="442" 
d="M396 483h43l-43 -312q-12 -86 -66 -131.5t-127 -45.5q-71 0 -118 51t-36 131l42 307h44l-42 -304q-9 -67 23.5 -105t91.5 -38q61 0 98 39.5t46 100.5zM315 537l-202 127h126l122 -127h-46z" />
    <glyph glyph-name="uacute.sc" horiz-adv-x="442" 
d="M396 483h43l-43 -312q-12 -86 -66 -131.5t-127 -45.5q-71 0 -118 51t-36 131l42 307h44l-42 -304q-9 -67 23.5 -105t91.5 -38q61 0 98 39.5t46 100.5zM351 664h126l-202 -127h-46z" />
    <glyph glyph-name="ucircumflex.sc" horiz-adv-x="442" 
d="M396 483h43l-43 -312q-12 -86 -66 -131.5t-127 -45.5q-71 0 -118 51t-36 131l42 307h44l-42 -304q-9 -67 23.5 -105t91.5 -38q61 0 98 39.5t46 100.5zM260 669h80l90 -132h-52l-76 87l-150 -87h-51z" />
    <glyph glyph-name="udieresis.sc" horiz-adv-x="442" 
d="M396 483h43l-43 -312q-12 -86 -66 -131.5t-127 -45.5q-71 0 -118 51t-36 131l42 307h44l-42 -304q-9 -67 23.5 -105t91.5 -38q61 0 98 39.5t46 100.5zM455 605q0 -17 -13 -31t-32 -14q-18 0 -31 13.5t-13 31.5t12.5 30.5t30.5 12.5q20 0 33 -12.5t13 -30.5zM209 605
q0 -18 -13 -31t-31 -13t-30.5 13t-12.5 32t12.5 31.5t29.5 12.5q20 0 32.5 -13t12.5 -32z" />
    <glyph glyph-name="yacute.sc" horiz-adv-x="365" 
d="M330 483h54l-178 -236l-33 -247h-44l33 249l-118 234h48l97 -190zM301 664h126l-202 -127h-46z" />
    <glyph glyph-name="thorn.sc" horiz-adv-x="342" 
d="M157 106h-68l-15 -106h-44l66 484h45l-13 -106h52q60 0 97.5 -37t37.5 -95q0 -61 -40.5 -100.5t-117.5 -39.5zM268 244q0 41 -25 66.5t-67 25.5h-55l-26 -188h59q59 0 86.5 26.5t27.5 69.5z" />
    <glyph glyph-name="ydieresis.sc" horiz-adv-x="365" 
d="M330 483h54l-178 -236l-33 -247h-44l33 249l-118 234h48l97 -190zM405 605q0 -17 -13 -31t-32 -14q-18 0 -31 13.5t-13 31.5t12.5 30.5t30.5 12.5q20 0 33 -12.5t13 -30.5zM159 605q0 -18 -13 -31t-31 -13t-30.5 13t-12.5 32t12.5 31.5t29.5 12.5q20 0 32.5 -13t12.5 -32
z" />
    <glyph glyph-name="zero.fitted" 
d="M494 455q0 -115 -32 -222q-32 -105 -94 -173q-63 -69 -144 -69q-82 0 -126 64.5t-44 174.5q0 50 9 108t30 121.5t51 114.5t77.5 84t104.5 33q60 0 100 -38q68 -63 68 -198zM447 450q0 94 -32.5 146.5t-91.5 52.5q-53 0 -98.5 -44t-72.5 -116q-51 -142 -51 -265
q0 -90 33 -140.5t91 -50.5q46 0 86 31.5t65 82.5q25 52 41 108q30 103 30 195z" />
    <glyph glyph-name="one.fitted" horiz-adv-x="229" 
d="M157 682h44l-101 -682h-46z" />
    <glyph glyph-name="two.fitted" horiz-adv-x="452" 
d="M102 42h294l-6 -42h-390q45 42 100 105q46 53 74 88q45 58 79 102q66 86 93.5 139.5t27.5 99.5q0 52 -31 83.5t-82 31.5q-70 0 -167 -67l8 53q95 56 167 56q68 0 110.5 -42.5t42.5 -111.5q0 -67 -54 -158q-21 -38 -70 -100q-51 -65 -85 -106z" />
    <glyph glyph-name="three.fitted" horiz-adv-x="468" 
d="M107 610l6 44q67 37 136 37q78 0 133 -50q54 -49 54 -123q0 -71 -44 -112q-34 -31 -86 -56q91 -52 91 -149q0 -91 -65 -151q-65 -59 -162 -59q-96 0 -170 51l6 41q82 -50 160 -50q81 0 132 48q51 49 51 125q0 62 -41.5 97t-113.5 36l5 32q98 -2 145 42q48 43 48 102
q0 58 -44 96t-108 38t-133 -39z" />
    <glyph glyph-name="four.fitted" horiz-adv-x="470" 
d="M337 266h111l-4 -33h-112l-33 -233h-45l33 233h-279l3 19l370 439h15zM335 579l-2 2l-264 -315h223z" />
    <glyph glyph-name="five.fitted" horiz-adv-x="477" 
d="M167 682h290l-6 -42h-245l-30 -214q24 4 46 4q84 0 140 -56q55 -55 55 -143q0 -99 -71 -170q-70 -70 -172 -70q-98 0 -169 57l19 37q68 -52 149 -52t138 57q58 58 58 140q0 72 -45 115t-119 43q-43 0 -81 -12z" />
    <glyph glyph-name="six.fitted" horiz-adv-x="484" 
d="M316 682h50l-212 -305l2 -2q64 43 132 43q71 0 113.5 -43.5t42.5 -117.5q0 -106 -71 -186t-162 -80q-72 0 -122 53q-48 52 -48 132q0 107 103 256zM396 261q0 52 -30 83.5t-79 31.5q-81 0 -140 -59q-58 -58 -58 -143q0 -65 33 -103t88 -38q74 0 130 68t56 160z" />
    <glyph glyph-name="seven.fitted" horiz-adv-x="444" 
d="M79 682h398l-350 -682h-48l328 640h-334z" />
    <glyph glyph-name="eight.fitted" 
d="M362 358v1v-2q49 -11 76.5 -49.5t27.5 -94.5q0 -91 -67 -157q-68 -65 -160 -65q-81 0 -136 52t-55 133q0 65 40 120q41 56 120 71v2q-86 36 -86 129q0 82 58 137q59 56 142 56q76 0 123 -46q48 -47 48 -118q0 -58 -35 -104.5t-96 -64.5zM445 524q0 55 -34.5 90t-88.5 35
q-62 0 -108 -44q-44 -44 -44 -106q0 -51 36.5 -83t93.5 -32q69 0 106 43q39 43 39 97zM418 208q0 60 -40.5 97t-105.5 37q-78 0 -127 -48t-49 -121q0 -64 42 -103q43 -38 101 -37q73 1 126 51q53 51 53 124z" />
    <glyph glyph-name="nine.fitted" horiz-adv-x="484" 
d="M201 0h-52l222 318l-2 2q-65 -54 -136 -54q-70 0 -113.5 44.5t-43.5 115.5q0 56 24 114q26 60 80 105q55 46 130 46q76 0 122 -51q47 -52 47 -134q0 -107 -94 -241zM431 510q0 63 -32.5 101t-87.5 38q-75 0 -131 -68t-56 -157q0 -53 29.5 -84.5t79.5 -31.5q81 0 140 59
q58 59 58 143z" />
    <glyph glyph-name="zero.taboldstyle" horiz-adv-x="499" 
d="M30 176q0 70 24 132q26 63 81 106q58 44 137 44q85 0 135 -47t50 -140q0 -68 -28 -135q-22 -63 -76 -103.5t-139 -41.5q-97 0 -141 53q-43 52 -43 132zM84 180q0 -74 36 -110.5t97 -36.5q50 0 89.5 24t58.5 63q38 73 38 146q0 69 -33 109.5t-104 40.5q-86 0 -134 -71
t-48 -165z" />
    <glyph glyph-name="one.taboldstyle" horiz-adv-x="499" 
d="M321 458l-67 -458h-46l56 378l-129 -97l12 63l152 114h22z" />
    <glyph glyph-name="two.taboldstyle" horiz-adv-x="499" 
d="M175 41h223l-6 -41h-331l48 37l56 45l55 45q52 45 96 100q43 53 43 100q0 36 -25 63t-72 27q-81 0 -162 -81v48l37 32q19 15 55 28.5t72 13.5q73 0 107 -40q35 -40 35 -85q0 -68 -57 -134t-174 -158z" />
    <glyph glyph-name="three.taboldstyle" horiz-adv-x="499" 
d="M117 106l240 302h-260l4 41h342l-241 -301q66 2 117 -45q52 -46 52 -133q0 -89 -61 -144q-62 -56 -143 -56q-63 0 -114 23q-16 5 -38 18q-3 1 -8.5 4.5t-10.5 6.5l-4 2l13 41q89 -54 158 -54q68 0 111 43q45 42 45 109q0 73 -40.5 110.5t-109.5 37.5q-24 0 -52 -5z" />
    <glyph glyph-name="four.taboldstyle" horiz-adv-x="499" 
d="M374 458h10l-61 -422h112l-5 -36h-112l-34 -230h-46l33 230h-285v13zM56 36h221l46 308z" />
    <glyph glyph-name="five.taboldstyle" horiz-adv-x="499" 
d="M199 449h241l-7 -41h-201l-79 -259q40 8 61 8q87 0 139.5 -47.5t52.5 -128.5q0 -96 -69 -153q-68 -58 -159 -58q-85 0 -172 57l16 39q80 -55 158 -55t126 50q49 49 49 115q0 21 -7.5 43t-24 45.5t-48.5 38t-75 14.5q-56 0 -117 -26z" />
    <glyph glyph-name="six.taboldstyle" horiz-adv-x="499" 
d="M318 682l36 -20l-206 -300q74 56 143 56q47 0 95 -29q59 -35 59 -131q0 -104 -69 -186q-68 -81 -163 -81q-77 0 -123 54q-46 55 -46 131q0 50 24 112q27 65 48 100q28 43 66 98zM398 261q0 51 -30.5 83.5t-78.5 32.5q-92 0 -145 -65t-53 -138q0 -71 39 -104t82 -33
q86 0 136 71q50 73 50 153z" />
    <glyph glyph-name="seven.taboldstyle" horiz-adv-x="499" 
d="M81 449h375l-351 -679l-39 19l326 619h-316z" />
    <glyph glyph-name="eight.taboldstyle" horiz-adv-x="499" 
d="M332 360q54 -12 83.5 -52t29.5 -95q0 -90 -67 -156q-68 -66 -160 -66q-82 0 -137 53q-54 54 -54 131q0 74 47 127q49 54 122 64q-96 39 -96 134q0 80 58 135q59 56 142 56q47 0 82.5 -16.5t54 -43t27 -52.5t8.5 -51q0 -62 -38.5 -107t-101.5 -61zM422 526q0 54 -34 89
t-87 35q-71 0 -111 -48q-40 -47 -40 -102q0 -51 36.5 -83t92.5 -32q57 0 100 41q43 40 43 100zM395 210q0 38 -25 79q-33 55 -119 55q-81 0 -128 -50q-46 -49 -46 -119q0 -24 7 -47t21.5 -46t44 -37t68.5 -14q85 0 131 55t46 124z" />
    <glyph glyph-name="nine.taboldstyle" horiz-adv-x="499" 
d="M167 -230l-37 27l211 292q-74 -58 -143 -58q-47 0 -95 29q-59 35 -59 131q0 103 68 185q69 82 164 82q68 0 118 -49q51 -48 51 -136q0 -61 -26.5 -122t-85.5 -147zM91 188q0 -51 30.5 -83.5t78.5 -32.5q52 0 92.5 22t62 55.5t32.5 66t11 59.5q0 71 -39 104t-82 33
q-81 0 -133 -69q-53 -70 -53 -155z" />
    <glyph glyph-name="zero.denominator" horiz-adv-x="323" 
d="M305 236q0 -88 -44 -165q-43 -76 -121 -76q-31 0 -63 19q-43 28 -43 107q0 34 9 72.5t27 77t52 64t78 25.5q49 0 77 -32.5t28 -91.5zM265 235q0 46 -17 71.5t-49 25.5q-57 0 -91 -70q-34 -69 -34 -145q0 -48 19 -70.5t48 -22.5q42 0 70 40q54 72 54 171z" />
    <glyph glyph-name="one.denominator" horiz-adv-x="323" 
d="M181 355h38l-62 -355h-39z" />
    <glyph glyph-name="two.denominator" horiz-adv-x="323" 
d="M81 29h170l-5 -29h-246q87 76 163 163q63 73 63 113q-1 31 -21 44t-40 11q-24 0 -46 -8q-17 -6 -61 -31l7 37q63 31 105 31q39 0 67 -21.5t28 -60.5q0 -44 -60 -117q-36 -44 -124 -132z" />
    <glyph glyph-name="three.denominator" horiz-adv-x="323" 
d="M2 24l5 29q52 -31 99 -31q49 0 75.5 25.5t26.5 60.5q0 44 -37 55q-30 10 -54 11l3 22q47 0 72 11q42 19 42 60q0 27 -21 46.5t-64 19.5q-35 0 -85 -26l5 32q47 21 85 21q52 0 85 -27.5t33 -64.5q0 -60 -78 -86q54 -27 54 -75q0 -47 -38 -79.5t-101 -32.5q-60 0 -107 29z
" />
    <glyph glyph-name="four.denominator" horiz-adv-x="323" 
d="M236 360h19l-36 -217h66l-4 -24h-66l-20 -119h-39l20 119h-161v14zM65 142h115l24 144z" />
    <glyph glyph-name="five.denominator" horiz-adv-x="323" 
d="M113 355h181l-5 -28h-143l-18 -102q78 5 110 -30q33 -35 33 -74q0 -52 -43 -89t-106 -37q-61 0 -107 32l15 26q51 -30 91 -30q44 0 77 28.5t33 70.5q0 37 -25.5 57t-66.5 20q-19 0 -55 -9z" />
    <glyph glyph-name="six.denominator" horiz-adv-x="323" 
d="M193 355h42l-120 -151q35 16 65 16q34 0 66 -20t32 -65q0 -55 -42 -98q-42 -42 -101 -42q-47 0 -76.5 28.5t-29.5 68.5q0 58 69 144zM238 136q0 28 -17 42.5t-42 14.5q-43 0 -77 -28t-34 -73q0 -31 19 -49t47 -18q46 0 74 34q30 34 30 77z" />
    <glyph glyph-name="seven.denominator" horiz-adv-x="323" 
d="M48 355h248l-210 -355h-41l194 328h-194z" />
    <glyph glyph-name="eight.denominator" horiz-adv-x="323" 
d="M227 186q55 -19 55 -73q0 -49 -42 -84q-40 -34 -98 -34q-51 0 -84.5 28.5t-33.5 70.5q0 14 11 42q15 39 77 56q-45 22 -45 66t36 72q37 30 88 30q50 0 78.5 -25.5t28.5 -62.5q0 -60 -71 -86zM257 271q0 24 -16.5 42t-49.5 18q-36 0 -59.5 -22t-23.5 -52q0 -24 19.5 -39.5
t50.5 -15.5q38 0 58.5 21t20.5 48zM241 111q0 26 -19.5 45t-60.5 19q-45 0 -71 -25t-26 -58q0 -31 21 -51t58 -20q40 0 69 26t29 64z" />
    <glyph glyph-name="nine.denominator" horiz-adv-x="323" 
d="M124 0h-43l120 151q-31 -15 -62 -15q-48 0 -73.5 24.5t-25.5 59.5q0 52 40 95q40 45 104 45q47 0 76 -27.5t29 -71.5q0 -56 -57 -125zM250 264q0 32 -18.5 49.5t-46.5 17.5q-46 0 -76 -36q-29 -35 -29 -76q0 -11 3 -22t17 -22.5t38 -11.5q46 0 79 29.5t33 71.5z" />
    <glyph glyph-name="zero.numerator" horiz-adv-x="323" 
d="M335 568q0 -89 -44 -166q-43 -75 -122 -75q-31 0 -63 19q-43 28 -43 106q0 72 36 149q19 40 53.5 65t76.5 25q49 0 77.5 -32t28.5 -91zM295 567q0 45 -17.5 71t-49.5 26q-56 0 -90 -70q-34 -69 -34 -145q0 -48 19 -71t47 -23q41 0 71 40.5t42 86.5t12 85z" />
    <glyph glyph-name="one.numerator" horiz-adv-x="323" 
d="M211 687h38l-62 -355h-39z" />
    <glyph glyph-name="two.numerator" horiz-adv-x="323" 
d="M122 361h170l-4 -29h-247q226 202 226 276q0 25 -16 40t-44 15q-37 0 -107 -39l6 37q88 41 144 24t56 -76q0 -39 -39 -91q-39 -51 -145 -157z" />
    <glyph glyph-name="three.numerator" horiz-adv-x="323" 
d="M112 638l4 32q46 21 85 21q50 0 84 -26.5t34 -65.5q0 -29 -20.5 -51.5t-57.5 -34.5q53 -26 53 -77q0 -48 -38.5 -78.5t-97.5 -30.5q-60 0 -107 32l3 29q50 -29 100 -29q48 0 74.5 21t26.5 58q0 67 -91 67l3 23q54 -3 83 17.5t30 53.5q1 29 -22.5 46.5t-61.5 17.5
q-40 0 -84 -25z" />
    <glyph glyph-name="four.numerator" horiz-adv-x="323" 
d="M265 691h20l-36 -217h66l-4 -23h-67l-19 -119h-39l19 119h-161v13zM94 474h116l24 143z" />
    <glyph glyph-name="five.numerator" horiz-adv-x="323" 
d="M142 687h182l-5 -28h-144l-17 -102q77 5 109 -30q33 -35 33 -74q0 -52 -43 -89t-106 -37q-60 0 -107 32l15 25q53 -29 91 -29q45 0 77 28q33 29 33 71q0 37 -25 57t-66 20q-19 0 -56 -9z" />
    <glyph glyph-name="six.numerator" horiz-adv-x="323" 
d="M229 687h42l-120 -151q35 16 65 16q34 0 66 -20q31 -19 31 -65q0 -55 -42 -98q-42 -42 -101 -42q-47 0 -76.5 28t-29.5 68q0 34 16.5 66t53.5 79zM273 468q0 28 -16.5 42t-41.5 14q-43 0 -77 -28q-34 -27 -34 -72q0 -32 18.5 -49.5t47.5 -17.5q45 0 73 34q30 35 30 77z
" />
    <glyph glyph-name="seven.numerator" horiz-adv-x="323" 
d="M95 687h248l-210 -355h-41l194 328h-194z" />
    <glyph glyph-name="eight.numerator" horiz-adv-x="323" 
d="M257 518q54 -20 54 -73q0 -49 -42 -84q-40 -34 -98 -34q-50 0 -84 28.5t-34 69.5q0 15 6 31q17 52 83 68q-46 19 -46 65q0 45 36 73q38 29 89 29q49 0 77.5 -25.5t28.5 -61.5q0 -61 -70 -86zM220 663q-36 0 -59.5 -22.5t-23.5 -51.5q0 -25 20 -40t51 -15q37 0 57.5 21.5
t20.5 46.5t-16.5 43t-49.5 18zM271 442q0 26 -19.5 45t-60.5 19q-46 0 -72 -24.5t-26 -58.5q0 -30 21 -50t58 -20q42 0 70.5 25.5t28.5 63.5z" />
    <glyph glyph-name="nine.numerator" horiz-adv-x="323" 
d="M159 332h-43l121 151q-35 -16 -63 -16q-47 0 -72.5 25t-25.5 60q0 51 40 94q41 45 104 45q47 0 76 -27t29 -71q0 -54 -57 -126zM286 595q0 33 -19 50.5t-47 17.5q-45 0 -75 -36q-30 -35 -30 -76q0 -11 3 -22t17 -22.5t38 -11.5q46 0 79.5 29t33.5 71z" />
    <glyph glyph-name="abreve.sc" horiz-adv-x="398" 
d="M242 489l109 -489h-45l-38 170h-161l-78 -170h-45l221 489h37zM126 212h133l-44 196zM80 655h55q9 -30 36 -48t56 -18q65 0 127 66h56q-33 -54 -84 -86t-104 -32t-93 32t-49 86z" />
    <glyph glyph-name="amacron.sc" horiz-adv-x="398" 
d="M242 489l109 -489h-45l-38 170h-161l-78 -170h-45l221 489h37zM126 212h133l-44 196zM78 606h319l-9 -50h-319z" />
    <glyph glyph-name="aogonek.sc" horiz-adv-x="398" 
d="M419 -120l-6 -41q-27 -7 -48 -7q-41 0 -68.5 22.5t-27.5 56.5q0 41 37 90l-38 169h-161l-78 -170h-45l221 489h37l109 -489q-34 -49 -34 -79q0 -20 17.5 -34t42.5 -14q15 0 42 7zM126 212h133l-44 196z" />
    <glyph glyph-name="aeacute.sc" horiz-adv-x="594" 
d="M287 42h266l-6 -42h-309l31 224h-106l-137 -224h-50l296 484h272l-6 -42h-196l-24 -176h183l-6 -42h-183zM274 266l24 176h-2l-106 -176h84zM496 664h126l-202 -127h-46z" />
    <glyph glyph-name="cacute.sc" horiz-adv-x="403" 
d="M391 481l-5 -40q-44 6 -60 6q-107 0 -181 -77q-73 -76 -73 -173q0 -69 40 -115t100 -46q70 0 153 56l-8 -52q-76 -46 -145 -46q-72 0 -130 55q-57 55 -57 147q0 114 86 203q85 90 216 90q27 0 64 -8zM350 664h126l-202 -127h-46z" />
    <glyph glyph-name="ccaron.sc" horiz-adv-x="403" 
d="M391 481l-5 -40q-44 6 -60 6q-107 0 -181 -77q-73 -76 -73 -173q0 -69 40 -115t100 -46q70 0 153 56l-8 -52q-76 -46 -145 -46q-72 0 -130 55q-57 55 -57 147q0 114 86 203q85 90 216 90q27 0 64 -8zM332 537h-80l-90 132h52l76 -87l150 87h51z" />
    <glyph glyph-name="ccircumflex.sc" horiz-adv-x="403" 
d="M391 481l-5 -40q-44 6 -60 6q-107 0 -181 -77q-73 -76 -73 -173q0 -69 40 -115t100 -46q70 0 153 56l-8 -52q-76 -46 -145 -46q-72 0 -130 55q-57 55 -57 147q0 114 86 203q85 90 216 90q27 0 64 -8zM274 669h80l90 -132h-52l-76 87l-150 -87h-51z" />
    <glyph glyph-name="cdotaccent.sc" horiz-adv-x="403" 
d="M391 481l-5 -40q-44 6 -60 6q-107 0 -181 -77q-73 -76 -73 -173q0 -69 40 -115t100 -46q70 0 153 56l-8 -52q-76 -46 -145 -46q-72 0 -130 55q-57 55 -57 147q0 114 86 203q85 90 216 90q27 0 64 -8zM356 605q0 -28 -27 -40t-49 9q-19 22 -8 49t39 27q19 0 32 -13.5
t13 -31.5z" />
    <glyph glyph-name="dcaron.sc" horiz-adv-x="433" 
d="M409 237q0 -105 -69 -171t-173 -66h-153l66 484h87q96 0 169 -67t73 -180zM362 237q0 94 -61 149q-61 56 -148 56h-33l-56 -400h91q57 0 99.5 18.5t64.5 48.5t32.5 62t10.5 66zM262 537h-80l-90 132h52l76 -87l150 87h51z" />
    <glyph glyph-name="dcroat.sc" horiz-adv-x="433" 
d="M0 219l6 43h44l30 222h87q96 0 169 -67t73 -180q0 -105 -69 -171t-173 -66h-153l30 219h-44zM120 442l-25 -180h150l-6 -43h-150l-25 -177h91q57 0 99.5 18.5t64.5 48.5t32.5 62t10.5 66q0 94 -61 149q-61 56 -148 56h-33z" />
    <glyph glyph-name="ebreve.sc" horiz-adv-x="376" 
d="M63 42h271l-5 -42h-315l66 484h246l-6 -42h-202l-24 -174h192l-7 -42h-190zM90 655h55q9 -30 36 -48t56 -18q65 0 127 66h56q-33 -54 -84 -86t-104 -32t-93 32t-49 86z" />
    <glyph glyph-name="ecaron.sc" horiz-adv-x="376" 
d="M63 42h271l-5 -42h-315l66 484h246l-6 -42h-202l-24 -174h192l-7 -42h-190zM259 537h-80l-90 132h52l76 -87l150 87h51z" />
    <glyph glyph-name="edotaccent.sc" horiz-adv-x="376" 
d="M63 42h271l-5 -42h-315l66 484h246l-6 -42h-202l-24 -174h192l-7 -42h-190zM293 605q0 -28 -27 -40t-49 9q-19 22 -8 49t39 27q19 0 32 -13.5t13 -31.5z" />
    <glyph glyph-name="emacron.sc" horiz-adv-x="376" 
d="M63 42h271l-5 -42h-315l66 484h246l-6 -42h-202l-24 -174h192l-7 -42h-190zM97 606h319l-9 -50h-319z" />
    <glyph glyph-name="eng.sc" horiz-adv-x="453" 
d="M239 -4l-7 44q21 -7 47 -7q38 0 56.5 24.5t26.5 85.5l19 132q11 78 -20 125t-94 47q-46 0 -85.5 -27.5t-66.5 -74.5l-51 -345h-45l72 483h44l-9 -57q63 63 144 63q76 0 124 -55q48 -56 32 -160l-22 -145q-11 -75 -40 -106.5t-81 -31.5q-22 0 -44 5z" />
    <glyph glyph-name="eogonek.sc" horiz-adv-x="376" 
d="M63 42h271l-5 -42h-84q-36 -48 -36 -79q0 -20 17.5 -34t42.5 -14q15 0 42 7l-6 -41q-27 -7 -48 -7q-41 0 -68.5 22.5t-27.5 56.5q0 43 36 89h-183l66 484h246l-6 -42h-202l-24 -174h192l-7 -42h-190z" />
    <glyph glyph-name="gbreve.sc" horiz-adv-x="450" 
d="M447 476l-6 -41q-55 12 -89 12q-126 0 -199 -72q-74 -71 -74 -174q0 -72 43 -118q43 -45 112 -45q46 0 106 29l13 95h-103l6 42h147l-23 -160q-71 -50 -150 -50q-77 0 -138 56q-60 57 -60 154q0 114 87 200q88 85 236 85q46 0 92 -13zM157 655h55q9 -30 36 -48t56 -18
q66 0 127 66h56q-33 -54 -84 -86t-104 -32t-93 32t-49 86z" />
    <glyph glyph-name="gcircumflex.sc" horiz-adv-x="450" 
d="M447 476l-6 -41q-55 12 -89 12q-126 0 -199 -72q-74 -71 -74 -174q0 -72 43 -118q43 -45 112 -45q46 0 106 29l13 95h-103l6 42h147l-23 -160q-71 -50 -150 -50q-77 0 -138 56q-60 57 -60 154q0 114 87 200q88 85 236 85q46 0 92 -13zM286 669h80l90 -132h-52l-76 87
l-150 -87h-51z" />
    <glyph glyph-name="gcommaaccent.sc" horiz-adv-x="450" 
d="M447 476l-6 -41q-55 12 -89 12q-126 0 -199 -72q-74 -71 -74 -174q0 -72 43 -118q43 -45 112 -45q46 0 106 29l13 95h-103l6 42h147l-23 -160q-71 -50 -150 -50q-77 0 -138 56q-60 57 -60 154q0 114 87 200q88 85 236 85q46 0 92 -13zM87 -189l13 35q126 -9 126 53
q0 42 -102 36l7 37q22 2 30 2q113 0 113 -70q0 -25 -13 -45t-32 -30q-16 -10 -43 -15q-28 -6 -63 -6q-3 0 -36 3z" />
    <glyph glyph-name="gdotaccent.sc" horiz-adv-x="450" 
d="M447 476l-6 -41q-55 12 -89 12q-126 0 -199 -72q-74 -71 -74 -174q0 -72 43 -118q43 -45 112 -45q46 0 106 29l13 95h-103l6 42h147l-23 -160q-71 -50 -150 -50q-77 0 -138 56q-60 57 -60 154q0 114 87 200q88 85 236 85q46 0 92 -13zM375 605q0 -28 -27 -40t-49 9
q-19 22 -8 49t39 27q19 0 32 -13.5t13 -31.5z" />
    <glyph glyph-name="hbar.sc" horiz-adv-x="470" 
d="M444 394h49l-5 -37h-49l-49 -357h-43l30 225h-289l-30 -225h-44l48 357h-49l5 37h49l12 89h44l-12 -89h290l12 89h43zM383 267l12 90h-289l-12 -90h289z" />
    <glyph glyph-name="hcircumflex.sc" horiz-adv-x="470" 
d="M413 483h43l-66 -483h-43l30 225h-289l-30 -225h-44l65 483h44l-29 -216h289zM258 669h80l90 -132h-52l-76 87l-150 -87h-51z" />
    <glyph glyph-name="ibreve.sc" horiz-adv-x="138" 
d="M80 483h44l-66 -483h-44zM-30 655h55q9 -30 36 -48t56 -18q65 0 127 66h56q-33 -54 -84 -86t-104 -32t-93 32t-49 86z" />
    <glyph glyph-name="ij.sc" horiz-adv-x="296" 
d="M80 483h44l-66 -483h-44zM239 483h43l-72 -523q-9 -61 -40 -90t-76 -29q-23 0 -44 7l-9 48q27 -10 52 -10q36 0 53.5 23.5t25.5 82.5z" />
    <glyph glyph-name="imacron.sc" horiz-adv-x="138" 
d="M80 483h44l-66 -483h-44zM-22 606h319l-9 -50h-319z" />
    <glyph glyph-name="iogonek.sc" horiz-adv-x="138" 
d="M124 483l-66 -483q-33 -46 -33 -80q0 -20 17.5 -34t42.5 -14q15 0 42 7l-6 -41q-27 -7 -48 -7q-41 0 -68.5 22.5t-27.5 56.5q0 41 37 90l66 483h44z" />
    <glyph glyph-name="itilde.sc" horiz-adv-x="138" 
d="M80 483h44l-66 -483h-44zM-1 545h-41q3 50 12 68q28 51 79 51q23 0 41 -7t53 -28q50 -27 68 -27q15 2 23.5 11t11.5 20t5 30h38q2 -57 -24 -88.5t-66 -31.5q-32 0 -87 31q-57 33 -73 33q-37 0 -40 -62z" />
    <glyph glyph-name="jcircumflex.sc" horiz-adv-x="158" 
d="M101 483h43l-72 -523q-9 -61 -40 -90t-76 -29q-23 0 -44 7l-9 48q27 -10 52 -10q36 0 53.5 23.5t25.5 82.5zM122 669h80l90 -132h-52l-76 87l-150 -87h-51z" />
    <glyph glyph-name="kcommaaccent.sc" horiz-adv-x="409" 
d="M335 484h65l-262 -223l247 -261h-57l-236 249l-34 -249h-44l66 484h44l-27 -202zM66 -189l13 35q126 -9 126 53q0 42 -102 36l7 37q22 2 30 2q113 0 113 -70q0 -25 -13 -45t-32 -30q-16 -10 -43 -15q-28 -6 -63 -6q-3 0 -36 3z" />
    <glyph glyph-name="lacute.sc" horiz-adv-x="327" 
d="M79 44h206l-6 -44h-249l66 483h44zM262 664h126l-202 -127h-46z" />
    <glyph glyph-name="lcaron.sc" horiz-adv-x="327" 
d="M79 44h206l-6 -44h-249l66 483h44zM217 483h58l-8 -60q-6 -47 -26 -83q-30 -50 -65 -62l5 29q38 35 42 85h-20z" />
    <glyph glyph-name="lcommaaccent.sc" horiz-adv-x="327" 
d="M79 44h206l-6 -44h-249l66 483h44zM25 -189l13 35q126 -9 126 53q0 42 -102 36l7 37q22 2 30 2q113 0 113 -70q0 -25 -13 -45t-32 -30q-16 -10 -43 -15q-28 -6 -63 -6q-3 0 -36 3z" />
    <glyph glyph-name="ldot.sc" horiz-adv-x="327" 
d="M79 44h206l-6 -44h-249l66 483h44zM215 303q18 0 31 -12.5t13 -30.5t-13 -30.5t-31 -12.5t-30.5 12.5t-12.5 30.5t13 30.5t30 12.5z" />
    <glyph glyph-name="nacute.sc" horiz-adv-x="459" 
d="M402 483h43l-66 -487h-23l-244 394l-54 -390h-44l67 483h26l241 -392zM348 664h126l-202 -127h-46z" />
    <glyph glyph-name="ncaron.sc" horiz-adv-x="459" 
d="M402 483h43l-66 -487h-23l-244 394l-54 -390h-44l67 483h26l241 -392zM310 537h-80l-90 132h52l76 -87l150 87h51z" />
    <glyph glyph-name="ncommaaccent.sc" horiz-adv-x="459" 
d="M402 483h43l-66 -487h-23l-244 394l-54 -390h-44l67 483h26l241 -392zM91 -189l13 35q126 -9 126 53q0 42 -102 36l7 37q22 2 30 2q113 0 113 -70q0 -25 -13 -45t-32 -30q-16 -10 -43 -15q-28 -6 -63 -6q-3 0 -36 3z" />
    <glyph glyph-name="obreve.sc" horiz-adv-x="441" 
d="M416 292q0 -122 -63 -211q-63 -87 -160 -87q-80 0 -124 53t-44 148q0 97 50 189q26 47 72 76t103 29q77 0 121.5 -53.5t44.5 -143.5zM369 300q0 68 -32.5 106.5t-86.5 38.5q-47 0 -83.5 -26t-57.5 -69q-37 -83 -37 -165q0 -71 32 -109t90 -38q80 0 127 75q48 77 48 187z
M137 655h55q9 -30 36 -48t56 -18q66 0 127 66h56q-33 -54 -84 -86t-104 -32t-93 32t-49 86z" />
    <glyph glyph-name="ohungarumlaut.sc" horiz-adv-x="441" 
d="M416 292q0 -122 -63 -211q-63 -87 -160 -87q-80 0 -124 53t-44 148q0 97 50 189q26 47 72 76t103 29q77 0 121.5 -53.5t44.5 -143.5zM369 300q0 68 -32.5 106.5t-86.5 38.5q-47 0 -83.5 -26t-57.5 -69q-37 -83 -37 -165q0 -71 32 -109t90 -38q80 0 127 75q48 77 48 187z
M229 666h105l-145 -129h-37zM377 666h104l-145 -129h-37z" />
    <glyph glyph-name="omacron.sc" horiz-adv-x="441" 
d="M416 292q0 -122 -63 -211q-63 -87 -160 -87q-80 0 -124 53t-44 148q0 97 50 189q26 47 72 76t103 29q77 0 121.5 -53.5t44.5 -143.5zM369 300q0 68 -32.5 106.5t-86.5 38.5q-47 0 -83.5 -26t-57.5 -69q-37 -83 -37 -165q0 -71 32 -109t90 -38q80 0 127 75q48 77 48 187z
M119 606h319l-9 -50h-319z" />
    <glyph glyph-name="oslashacute.sc" horiz-adv-x="441" 
d="M387 530l31 -21l-47 -73q45 -52 45 -144q0 -122 -63 -211q-63 -87 -160 -87q-55 0 -93 25l-44 -68l-32 19l48 74q-47 53 -47 151q0 97 50 189q26 47 72 76t103 29q56 0 93 -27zM369 300q0 60 -24 96l-220 -339q28 -19 69 -19q80 0 127 75q48 77 48 187zM98 84l220 340
q-29 21 -68 21q-47 0 -83.5 -26t-57.5 -69q-37 -83 -37 -165q0 -63 26 -101zM339 664h126l-202 -127h-46z" />
    <glyph glyph-name="racute.sc" horiz-adv-x="388" 
d="M277 162l88 -162h-49l-79 144q-34 62 -37 64q-10 13 -36 13h-58l-30 -221h-44l65 484h111q60 0 94.5 -36.5t34.5 -93.5q0 -48 -27 -82.5t-73 -47.5q14 -14 40 -62zM290 354q0 37 -21.5 62.5t-63.5 25.5h-69l-24 -179h76q48 0 75 24.5t27 66.5zM282 664h126l-202 -127h-46
z" />
    <glyph glyph-name="rcaron.sc" horiz-adv-x="388" 
d="M277 162l88 -162h-49l-79 144q-34 62 -37 64q-10 13 -36 13h-58l-30 -221h-44l65 484h111q60 0 94.5 -36.5t34.5 -93.5q0 -48 -27 -82.5t-73 -47.5q14 -14 40 -62zM290 354q0 37 -21.5 62.5t-63.5 25.5h-69l-24 -179h76q48 0 75 24.5t27 66.5zM265 537h-80l-90 132h52
l76 -87l150 87h51z" />
    <glyph glyph-name="rcommaaccent.sc" horiz-adv-x="388" 
d="M277 162l88 -162h-49l-79 144q-34 62 -37 64q-10 13 -36 13h-58l-30 -221h-44l65 484h111q60 0 94.5 -36.5t34.5 -93.5q0 -48 -27 -82.5t-73 -47.5q14 -14 40 -62zM290 354q0 37 -21.5 62.5t-63.5 25.5h-69l-24 -179h76q48 0 75 24.5t27 66.5zM56 -189l13 35
q126 -9 126 53q0 42 -102 36l7 37q22 2 30 2q113 0 113 -70q0 -25 -13 -45t-32 -30q-16 -10 -43 -15q-28 -6 -63 -6q-3 0 -36 3z" />
    <glyph glyph-name="sacute.sc" horiz-adv-x="298" 
d="M272 459l-11 -40q-53 27 -80 27q-32 0 -56 -25t-24 -59q0 -28 15.5 -50t38 -38.5t45 -34.5t38 -46.5t15.5 -65.5q0 -57 -38 -95t-94 -38q-25 0 -55 10t-49 25l11 43q56 -35 90 -35q39 0 64.5 24t25.5 66q0 34 -24 63t-52 47.5t-52 50t-24 70.5q0 56 36 93q36 38 89 38
q57 0 91 -30zM252 664h126l-202 -127h-46z" />
    <glyph glyph-name="scedilla.sc" horiz-adv-x="298" 
d="M272 459l-11 -40q-53 27 -80 27q-32 0 -56 -25t-24 -59q0 -28 15.5 -50t38 -38.5t45 -34.5t38 -46.5t15.5 -65.5q0 -54 -34.5 -91.5t-87.5 -41.5l-12 -28q16 -5 26 -19.5t10 -32.5q0 -41 -28.5 -64t-76.5 -23q-16 0 -34 3l10 32q5 -1 21 -1q72 0 72 53q0 27 -41 29l22 53
q-49 8 -83 33l11 43q56 -35 90 -35q39 0 64.5 24t25.5 66q0 34 -24 63t-52 47.5t-52 50t-24 70.5q0 56 36 93q36 38 89 38q57 0 91 -30z" />
    <glyph glyph-name="scircumflex.sc" horiz-adv-x="298" 
d="M272 459l-11 -40q-53 27 -80 27q-32 0 -56 -25t-24 -59q0 -28 15.5 -50t38 -38.5t45 -34.5t38 -46.5t15.5 -65.5q0 -57 -38 -95t-94 -38q-25 0 -55 10t-49 25l11 43q56 -35 90 -35q39 0 64.5 24t25.5 66q0 34 -24 63t-52 47.5t-52 50t-24 70.5q0 56 36 93q36 38 89 38
q57 0 91 -30zM192 669h80l90 -132h-52l-76 87l-150 -87h-51z" />
    <glyph glyph-name="scommaaccent.sc" horiz-adv-x="298" 
d="M272 459l-11 -40q-53 27 -80 27q-32 0 -56 -25t-24 -59q0 -28 15.5 -50t38 -38.5t45 -34.5t38 -46.5t15.5 -65.5q0 -57 -38 -95t-94 -38q-25 0 -55 10t-49 25l11 43q56 -35 90 -35q39 0 64.5 24t25.5 66q0 34 -24 63t-52 47.5t-52 50t-24 70.5q0 56 36 93q36 38 89 38
q57 0 91 -30zM11 -189l13 35q126 -9 126 53q0 42 -102 36l7 37q22 2 30 2q113 0 113 -70q0 -25 -13 -45t-32 -30q-16 -10 -43 -15q-28 -6 -63 -6q-3 0 -36 3z" />
    <glyph glyph-name="tbar.sc" horiz-adv-x="337" 
d="M47 483h315l-5 -41h-136l-22 -156h107l-5 -37h-107l-34 -249h-43l34 249h-106l5 37h106l21 156h-135z" />
    <glyph glyph-name="tcaron.sc" horiz-adv-x="337" 
d="M47 483h315l-5 -41h-136l-61 -442h-43l60 442h-135zM249 537h-80l-90 132h52l76 -87l150 87h51z" />
    <glyph glyph-name="tcommaaccent.sc" horiz-adv-x="337" 
d="M47 483h315l-5 -41h-136l-61 -442h-43l60 442h-135zM30 -189l13 35q126 -9 126 53q0 42 -102 36l7 37q22 2 30 2q113 0 113 -70q0 -25 -13 -45t-32 -30q-16 -10 -43 -15q-28 -6 -63 -6q-3 0 -36 3z" />
    <glyph glyph-name="ubreve.sc" horiz-adv-x="442" 
d="M396 483h43l-43 -312q-12 -86 -66 -131.5t-127 -45.5q-71 0 -118 51t-36 131l42 307h44l-42 -304q-9 -67 23.5 -105t91.5 -38q61 0 98 39.5t46 100.5zM139 655h55q9 -30 36 -48t56 -18q66 0 127 66h56q-33 -54 -84 -86t-104 -32t-93 32t-49 86z" />
    <glyph glyph-name="uhungarumlaut.sc" horiz-adv-x="442" 
d="M396 483h43l-43 -312q-12 -86 -66 -131.5t-127 -45.5q-71 0 -118 51t-36 131l42 307h44l-42 -304q-9 -67 23.5 -105t91.5 -38q61 0 98 39.5t46 100.5zM241 666h105l-145 -129h-37zM389 666h104l-145 -129h-37z" />
    <glyph glyph-name="umacron.sc" horiz-adv-x="442" 
d="M396 483h43l-43 -312q-12 -86 -66 -131.5t-127 -45.5q-71 0 -118 51t-36 131l42 307h44l-42 -304q-9 -67 23.5 -105t91.5 -38q61 0 98 39.5t46 100.5zM141 606h319l-9 -50h-319z" />
    <glyph glyph-name="uogonek.sc" horiz-adv-x="442" 
d="M394 483h43l-43 -312q-12 -89 -66 -132t-123 -45q-32 -44 -32 -73q0 -20 17.5 -34t42.5 -14q15 0 42 7l-6 -41q-27 -7 -48 -7q-41 0 -68.5 22.5t-27.5 56.5q0 41 35 88q-58 15 -90 62.5t-23 114.5l42 307h44l-42 -304q-9 -67 23.5 -105t91.5 -38q61 0 98 39.5t46 100.5z
" />
    <glyph glyph-name="uring.sc" horiz-adv-x="442" 
d="M396 483h43l-43 -312q-12 -86 -66 -131.5t-127 -45.5q-71 0 -118 51t-36 131l42 307h44l-42 -304q-9 -67 23.5 -105t91.5 -38q61 0 98 39.5t46 100.5zM397 641q0 -43 -30.5 -73.5t-73.5 -30.5t-73.5 30.5t-30.5 73.5q0 44 30.5 74.5t73.5 30.5t73.5 -30.5t30.5 -74.5z
M292 714q-29 0 -50.5 -21t-21.5 -51t21 -51.5t51 -21.5t51.5 21.5t21.5 51.5t-21.5 51t-51.5 21z" />
    <glyph glyph-name="utilde.sc" horiz-adv-x="442" 
d="M396 483h43l-43 -312q-12 -86 -66 -131.5t-127 -45.5q-71 0 -118 51t-36 131l42 307h44l-42 -304q-9 -67 23.5 -105t91.5 -38q61 0 98 39.5t46 100.5zM178 545h-41q3 50 12 68q29 51 79 51q23 0 41 -7t53 -28q50 -27 68 -27q15 2 23.5 11t11.5 20t5 30h38
q2 -57 -24 -88.5t-66 -31.5q-32 0 -87 31q-57 33 -73 33q-37 0 -40 -62z" />
    <glyph glyph-name="wacute.sc" horiz-adv-x="651" 
d="M618 483h48l-229 -489h-22l-69 380l-170 -380h-23l-102 489h44l79 -386l173 386h22l70 -386zM444 664h126l-202 -127h-46z" />
    <glyph glyph-name="wcircumflex.sc" horiz-adv-x="651" 
d="M618 483h48l-229 -489h-22l-69 380l-170 -380h-23l-102 489h44l79 -386l173 386h22l70 -386zM368 669h80l90 -132h-52l-76 87l-150 -87h-51z" />
    <glyph glyph-name="wdieresis.sc" horiz-adv-x="651" 
d="M618 483h48l-229 -489h-22l-69 380l-170 -380h-23l-102 489h44l79 -386l173 386h22l70 -386zM573 605q0 -17 -13 -31t-32 -14q-18 0 -31 13.5t-13 31.5t12.5 30.5t30.5 12.5q20 0 33 -12.5t13 -30.5zM327 605q0 -18 -13 -31t-31 -13t-30.5 13t-12.5 32t12.5 31.5
t29.5 12.5q20 0 32.5 -13t12.5 -32z" />
    <glyph glyph-name="wgrave.sc" horiz-adv-x="651" 
d="M618 483h48l-229 -489h-22l-69 380l-170 -380h-23l-102 489h44l79 -386l173 386h22l70 -386zM428 537l-202 127h126l122 -127h-46z" />
    <glyph glyph-name="ycircumflex.sc" horiz-adv-x="365" 
d="M330 483h54l-178 -236l-33 -247h-44l33 249l-118 234h48l97 -190zM215 669h80l90 -132h-52l-76 87l-150 -87h-51z" />
    <glyph glyph-name="ygrave.sc" horiz-adv-x="365" 
d="M330 483h54l-178 -236l-33 -247h-44l33 249l-118 234h48l97 -190zM285 537l-202 127h126l122 -127h-46z" />
    <glyph glyph-name="zacute.sc" horiz-adv-x="455" 
d="M456 483v-20l-375 -421h317l-5 -42h-392v19l376 423h-303l5 41h377zM356 664h126l-202 -127h-46z" />
    <glyph glyph-name="zdotaccent.sc" horiz-adv-x="455" 
d="M456 483v-20l-375 -421h317l-5 -42h-392v19l376 423h-303l5 41h377zM352 605q0 -28 -27 -40t-49 9q-19 22 -8 49t39 27q19 0 32 -13.5t13 -31.5z" />
    <glyph glyph-name="idotaccent.sc" horiz-adv-x="138" 
d="M80 483h44l-66 -483h-44zM178 605q0 -28 -27 -40t-49 9q-19 22 -8 49t39 27q19 0 32 -13.5t13 -31.5z" />
    <glyph glyph-name="one.alt" horiz-adv-x="522" 
d="M376 691l-97 -691h-45l84 600l-2 2q-54 -59 -156 -128l12 64q74 54 111 88q33 30 62 65h31z" />
    <glyph glyph-name="afii10066.ital" horiz-adv-x="448" 
d="M79 554q0 121 162 121q2 0 8 -0.5t18 -1t24 -0.5q29 -1 74 -1q60 2 94 8l-13 -48q-50 -8 -79 -8q-4 0 -12.5 0.5t-25 1t-30.5 0.5t-30 0.5t-24.5 1t-12.5 0.5q-8 0 -26 -2q-27 -2 -53 -20.5t-23 -52.5q0 -39 47 -68q48 -27 70 -27q73 0 115.5 -51t42.5 -137
q0 -127 -65 -204q-64 -75 -149 -75q-65 0 -110 49q-45 50 -45 140q0 91 35.5 162t96.5 98q-43 18 -66 49t-23 65zM358 270q0 67 -30.5 107t-82.5 40t-89.5 -35.5t-55 -88t-17.5 -114.5q0 -68 28.5 -107.5t77.5 -39.5q69 0 119 69q50 71 50 169z" />
    <glyph glyph-name="afii10068.ital" horiz-adv-x="177" 
d="M138 449l-63 -449h-44l63 449h44zM239 623l-7 -51h-209l7 51h209z" />
    <glyph glyph-name="afii10069.ital" horiz-adv-x="458" 
d="M-1 -189v59q14 -22 54.5 -35.5t84.5 -13.5q71 0 119 53.5t64 144.5q-53 -28 -124 -28q-74 0 -119.5 52t-45.5 138q0 52 18 100t53 88.5t94.5 64.5t135.5 24h94l-58 -411q-37 -268 -252 -268q-31 0 -66 9t-52 23zM330 72l49 353h-39q-71 0 -125 -22.5t-82 -61.5
q-54 -72 -54 -160q0 -73 36.5 -115t99.5 -42q28 0 60.5 13.5t54.5 34.5z" />
    <glyph glyph-name="afii10081.ital" horiz-adv-x="466" 
d="M364 0h-44l49 356l-323 -365h-20l64 458h44l-54 -373l326 373h21zM423 623l-7 -51h-267l7 51h267z" />
    <glyph glyph-name="afii10084.ital" horiz-adv-x="620" 
d="M479 39l58 410h44l-64 -449h-490l63 449h44l-58 -410h179l58 410h44l-58 -410h180zM550 623l-7 -51h-389l7 51h389z" />
    <glyph glyph-name="A.sc" horiz-adv-x="398" 
d="M242 489l109 -489h-45l-38 170h-161l-78 -170h-45l221 489h37zM126 212h133l-44 196z" />
    <glyph glyph-name="B.sc" horiz-adv-x="367" 
d="M327 143q0 -64 -49.5 -103.5t-128.5 -39.5h-135l66 484h50q75 0 117 -35t42 -88q0 -58 -53 -93q91 -34 91 -125zM141 442h-24l-21 -161h40q51 0 78.5 21.5t27.5 58.5t-27 59t-74 22zM280 141q0 43 -31.5 70.5t-81.5 27.5h-76l-28 -197h82q68 0 101.5 28t33.5 71z" />
    <glyph glyph-name="C.sc" horiz-adv-x="403" 
d="M391 481l-5 -40q-44 6 -60 6q-107 0 -181 -77q-73 -76 -73 -173q0 -69 40 -115t100 -46q70 0 153 56l-8 -52q-76 -46 -145 -46q-72 0 -130 55q-57 55 -57 147q0 114 86 203q85 90 216 90q27 0 64 -8z" />
    <glyph glyph-name="D.sc" horiz-adv-x="433" 
d="M409 237q0 -105 -69 -171t-173 -66h-153l66 484h87q96 0 169 -67t73 -180zM362 237q0 94 -61 149q-61 56 -148 56h-33l-56 -400h91q57 0 99.5 18.5t64.5 48.5t32.5 62t10.5 66z" />
    <glyph glyph-name="E.sc" horiz-adv-x="376" 
d="M63 42h271l-5 -42h-315l66 484h246l-6 -42h-202l-24 -174h192l-7 -42h-190z" />
    <glyph glyph-name="F.sc" horiz-adv-x="301" 
d="M81 484h222l-6 -42h-178l-24 -176h166l-5 -42h-167l-31 -224h-44z" />
    <glyph glyph-name="G.sc" horiz-adv-x="450" 
d="M447 476l-6 -41q-55 12 -89 12q-126 0 -199 -72q-74 -71 -74 -174q0 -72 43 -118q43 -45 112 -45q46 0 106 29l13 95h-103l6 42h147l-23 -160q-71 -50 -150 -50q-77 0 -138 56q-60 57 -60 154q0 114 87 200q88 85 236 85q46 0 92 -13z" />
    <glyph glyph-name="H.sc" horiz-adv-x="470" 
d="M413 483h43l-66 -483h-43l30 225h-289l-30 -225h-44l65 483h44l-29 -216h289z" />
    <glyph glyph-name="I.sc" horiz-adv-x="138" 
d="M80 483h44l-66 -483h-44z" />
    <glyph glyph-name="J.sc" horiz-adv-x="158" 
d="M101 483h43l-72 -523q-9 -61 -40 -90t-76 -29q-23 0 -44 7l-9 48q27 -10 52 -10q36 0 53.5 23.5t25.5 82.5z" />
    <glyph glyph-name="K.sc" horiz-adv-x="409" 
d="M335 484h65l-262 -223l247 -261h-57l-236 249l-34 -249h-44l66 484h44l-27 -202z" />
    <glyph glyph-name="L.sc" horiz-adv-x="327" 
d="M79 44h206l-6 -44h-249l66 483h44z" />
    <glyph glyph-name="M.sc" horiz-adv-x="553" 
d="M504 483v-483h-45v380l-195 -380h-20l-79 385l-124 -385h-46l156 483h36l79 -386l199 386h39z" />
    <glyph glyph-name="N.sc" horiz-adv-x="459" 
d="M402 483h43l-66 -487h-23l-244 394l-54 -390h-44l67 483h26l241 -392z" />
    <glyph glyph-name="O.sc" horiz-adv-x="441" 
d="M416 292q0 -122 -63 -211q-63 -87 -160 -87q-80 0 -124 53t-44 148q0 97 50 189q26 47 72 76t103 29q77 0 121.5 -53.5t44.5 -143.5zM369 300q0 68 -32.5 106.5t-86.5 38.5q-47 0 -83.5 -26t-57.5 -69q-37 -83 -37 -165q0 -71 32 -109t90 -38q80 0 127 75q48 77 48 187z
" />
    <glyph glyph-name="P.sc" horiz-adv-x="342" 
d="M170 212h-67l-29 -212h-44l66 484h97q60 0 97.5 -37t37.5 -95q0 -61 -40.5 -100.5t-117.5 -39.5zM281 350q0 41 -25 66.5t-67 25.5h-55l-26 -188h59q59 0 86.5 26.5t27.5 69.5z" />
    <glyph glyph-name="Q.sc" horiz-adv-x="441" 
d="M408 12h21q5 -63 -25.5 -104.5t-88.5 -41.5q-50 0 -93.5 36t-61.5 92q-71 11 -103 68q-32 59 -32 131q0 69 23 135q24 66 77 113q54 48 127 48q78 0 121 -52.5t43 -145.5q0 -69 -21 -134q-22 -66 -71 -111.5t-113 -51.5q39 -81 110 -81q39 0 62.5 26.5t24.5 72.5z
M369 299q0 70 -31.5 108t-87.5 38q-80 0 -129 -76t-49 -186q0 -69 33 -107t92 -38q79 0 125 79q47 80 47 182z" />
    <glyph glyph-name="R.sc" horiz-adv-x="388" 
d="M277 162l88 -162h-49l-79 144q-34 62 -37 64q-10 13 -36 13h-58l-30 -221h-44l65 484h111q60 0 94.5 -36.5t34.5 -93.5q0 -48 -27 -82.5t-73 -47.5q14 -14 40 -62zM290 354q0 37 -21.5 62.5t-63.5 25.5h-69l-24 -179h76q48 0 75 24.5t27 66.5z" />
    <glyph glyph-name="S.sc" horiz-adv-x="298" 
d="M272 459l-11 -40q-53 27 -80 27q-32 0 -56 -25t-24 -59q0 -28 15.5 -50t38 -38.5t45 -34.5t38 -46.5t15.5 -65.5q0 -57 -38 -95t-94 -38q-25 0 -55 10t-49 25l11 43q56 -35 90 -35q39 0 64.5 24t25.5 66q0 34 -24 63t-52 47.5t-52 50t-24 70.5q0 56 36 93q36 38 89 38
q57 0 91 -30z" />
    <glyph glyph-name="T.sc" horiz-adv-x="337" 
d="M47 483h315l-5 -41h-136l-61 -442h-43l60 442h-135z" />
    <glyph glyph-name="U.sc" horiz-adv-x="442" 
d="M396 483h43l-43 -312q-12 -86 -66 -131.5t-127 -45.5q-71 0 -118 51t-36 131l42 307h44l-42 -304q-9 -67 23.5 -105t91.5 -38q61 0 98 39.5t46 100.5z" />
    <glyph glyph-name="V.sc" horiz-adv-x="370" 
d="M339 483h46l-213 -489h-22l-99 489h44l74 -383z" />
    <glyph glyph-name="W.sc" horiz-adv-x="651" 
d="M618 483h48l-229 -489h-22l-69 380l-170 -380h-23l-102 489h44l79 -386l173 386h22l70 -386z" />
    <glyph glyph-name="X.sc" horiz-adv-x="495" 
d="M438 483h58l-216 -232l164 -251h-52l-143 216l-201 -216h-59l236 252l-151 231h52l131 -196z" />
    <glyph glyph-name="Y.sc" horiz-adv-x="365" 
d="M330 483h54l-178 -236l-33 -247h-44l33 249l-118 234h48l97 -190z" />
    <glyph glyph-name="Z.sc" horiz-adv-x="455" 
d="M456 483v-20l-375 -421h317l-5 -42h-392v19l376 423h-303l5 41h377z" />
    <glyph glyph-name="Lslash.sc" horiz-adv-x="327" 
d="M79 44h206l-6 -44h-249l28 207l-67 -47l6 39l67 47l32 237h44l-28 -203l124 87l-5 -39l-125 -87z" />
    <glyph glyph-name="Scaron.sc" horiz-adv-x="298" 
d="M272 459l-11 -40q-53 27 -80 27q-32 0 -56 -25t-24 -59q0 -28 15.5 -50t38 -38.5t45 -34.5t38 -46.5t15.5 -65.5q0 -57 -38 -95t-94 -38q-25 0 -55 10t-49 25l11 43q56 -35 90 -35q39 0 64.5 24t25.5 66q0 34 -24 63t-52 47.5t-52 50t-24 70.5q0 56 36 93q36 38 89 38
q57 0 91 -30zM230 537h-80l-90 132h52l76 -87l150 87h51z" />
    <glyph glyph-name="Zcaron.sc" horiz-adv-x="455" 
d="M456 483v-20l-375 -421h317l-5 -42h-392v19l376 423h-303l5 41h377zM308 537h-80l-90 132h52l76 -87l150 87h51z" />
    <glyph glyph-name="Agrave.sc" horiz-adv-x="398" 
d="M242 489l109 -489h-45l-38 170h-161l-78 -170h-45l221 489h37zM126 212h133l-44 196zM261 537l-202 127h126l122 -127h-46z" />
    <glyph glyph-name="Aacute.sc" horiz-adv-x="398" 
d="M242 489l109 -489h-45l-38 170h-161l-78 -170h-45l221 489h37zM126 212h133l-44 196zM288 664h126l-202 -127h-46z" />
    <glyph glyph-name="Acircumflex.sc" horiz-adv-x="398" 
d="M242 489l109 -489h-45l-38 170h-161l-78 -170h-45l221 489h37zM126 212h133l-44 196zM203 669h80l90 -132h-52l-76 87l-150 -87h-51z" />
    <glyph glyph-name="Atilde.sc" horiz-adv-x="398" 
d="M242 489l109 -489h-45l-38 170h-161l-78 -170h-45l221 489h37zM126 212h133l-44 196zM99 545h-41q3 50 12 68q29 51 79 51q23 0 41 -7t53 -28q49 -27 68 -27q15 2 23.5 11t11.5 20t5 30h38q2 -57 -24 -88.5t-66 -31.5q-32 0 -87 31q-57 33 -73 33q-37 0 -40 -62z" />
    <glyph glyph-name="Adieresis.sc" horiz-adv-x="398" 
d="M242 489l109 -489h-45l-38 170h-161l-78 -170h-45l221 489h37zM126 212h133l-44 196zM406 605q0 -17 -13 -31t-32 -14q-18 0 -31 13.5t-13 31.5t12.5 30.5t30.5 12.5q20 0 33 -12.5t13 -30.5zM160 605q0 -18 -13 -31t-31 -13t-30.5 13t-12.5 32t12.5 31.5t29.5 12.5
q20 0 32.5 -13t12.5 -32z" />
    <glyph glyph-name="Aring.sc" horiz-adv-x="398" 
d="M242 489l109 -489h-45l-38 170h-161l-78 -170h-45l221 489h37zM126 212h133l-44 196zM330 641q0 -43 -30.5 -73.5t-73.5 -30.5t-73.5 30.5t-30.5 73.5q0 44 30.5 74.5t73.5 30.5t73.5 -30.5t30.5 -74.5zM225 714q-29 0 -50.5 -21t-21.5 -51t21 -51.5t51 -21.5t51.5 21.5
t21.5 51.5t-21.5 51t-51.5 21z" />
    <glyph glyph-name="AE.sc" horiz-adv-x="594" 
d="M287 42h266l-6 -42h-309l31 224h-106l-137 -224h-50l296 484h272l-6 -42h-196l-24 -176h183l-6 -42h-183zM274 266l24 176h-2l-106 -176h84z" />
    <glyph glyph-name="Ccedilla.sc" horiz-adv-x="403" 
d="M391 481l-5 -42q-44 6 -60 6q-109 0 -182 -76q-72 -77 -72 -172q0 -68 40 -114q40 -45 100 -45q70 0 153 56l-8 -54q-66 -40 -131 -45l-12 -29q16 -5 26 -19.5t10 -32.5q0 -48 -38 -70.5t-101 -13.5l10 32q47 -5 69 10q24 15 24 42t-41 29l22 52q-67 7 -119 61
q-51 54 -51 140q0 114 86 203q85 90 216 90q27 0 64 -8z" />
    <glyph glyph-name="Egrave.sc" horiz-adv-x="376" 
d="M63 42h271l-5 -42h-315l66 484h246l-6 -42h-202l-24 -174h192l-7 -42h-190zM260 537l-202 127h126l122 -127h-46z" />
    <glyph glyph-name="Eacute.sc" horiz-adv-x="376" 
d="M63 42h271l-5 -42h-315l66 484h246l-6 -42h-202l-24 -174h192l-7 -42h-190zM287 664h126l-202 -127h-46z" />
    <glyph glyph-name="Ecircumflex.sc" horiz-adv-x="376" 
d="M63 42h271l-5 -42h-315l66 484h246l-6 -42h-202l-24 -174h192l-7 -42h-190zM200 669h80l90 -132h-52l-76 87l-150 -87h-51z" />
    <glyph glyph-name="Edieresis.sc" horiz-adv-x="376" 
d="M63 42h271l-5 -42h-315l66 484h246l-6 -42h-202l-24 -174h192l-7 -42h-190zM405 605q0 -17 -13 -31t-32 -14q-18 0 -31 13.5t-13 31.5t12.5 30.5t30.5 12.5q20 0 33 -12.5t13 -30.5zM159 605q0 -18 -13 -31t-31 -13t-30.5 13t-12.5 32t12.5 31.5t29.5 12.5q20 0 32.5 -13
t12.5 -32z" />
    <glyph glyph-name="Igrave.sc" horiz-adv-x="138" 
d="M80 483h44l-66 -483h-44zM141 537l-202 127h126l122 -127h-46z" />
    <glyph glyph-name="Iacute.sc" horiz-adv-x="138" 
d="M80 483h44l-66 -483h-44zM188 664h126l-202 -127h-46z" />
    <glyph glyph-name="Icircumflex.sc" horiz-adv-x="138" 
d="M80 483h44l-66 -483h-44zM81 669h80l90 -132h-52l-76 87l-150 -87h-51z" />
    <glyph glyph-name="Idieresis.sc" horiz-adv-x="138" 
d="M80 483h44l-66 -483h-44zM301 605q0 -17 -13 -31t-32 -14q-18 0 -31 13.5t-13 31.5t12.5 30.5t30.5 12.5q20 0 33 -12.5t13 -30.5zM55 605q0 -18 -13 -31t-31 -13t-30.5 13t-12.5 32t12.5 31.5t29.5 12.5q20 0 32.5 -13t12.5 -32z" />
    <glyph glyph-name="Eth.sc" horiz-adv-x="433" 
d="M0 219l6 43h44l30 222h87q96 0 169 -67t73 -180q0 -105 -69 -171t-173 -66h-153l30 219h-44zM120 442l-25 -180h150l-6 -43h-150l-25 -177h91q57 0 99.5 18.5t64.5 48.5t32.5 62t10.5 66q0 94 -61 149q-61 56 -148 56h-33z" />
    <glyph glyph-name="Ntilde.sc" horiz-adv-x="459" 
d="M402 483h43l-66 -487h-23l-244 394l-54 -390h-44l67 483h26l241 -392zM160 545h-41q3 50 12 68q29 51 79 51q23 0 41 -7t53 -28q49 -27 68 -27q15 2 23.5 11t11.5 20t5 30h38q2 -57 -24 -88.5t-66 -31.5q-32 0 -87 31q-57 33 -73 33q-37 0 -40 -62z" />
    <glyph glyph-name="Ograve.sc" horiz-adv-x="441" 
d="M416 292q0 -122 -63 -211q-63 -87 -160 -87q-80 0 -124 53t-44 148q0 97 50 189q26 47 72 76t103 29q77 0 121.5 -53.5t44.5 -143.5zM369 300q0 68 -32.5 106.5t-86.5 38.5q-47 0 -83.5 -26t-57.5 -69q-37 -83 -37 -165q0 -71 32 -109t90 -38q80 0 127 75q48 77 48 187z
M298 537l-202 127h126l122 -127h-46z" />
    </font>
</defs>
</svg>
